<?xml version="1.0" encoding="utf-8" standalone="no"?>
<!DOCTYPE svg PUBLIC "-//W3C//DTD SVG 1.1//EN"
  "http://www.w3.org/Graphics/SVG/1.1/DTD/svg11.dtd">
<svg xmlns:xlink="http://www.w3.org/1999/xlink" width="567.485625pt" height="352.67875pt" viewBox="0 0 567.485625 352.67875" xmlns="http://www.w3.org/2000/svg" version="1.1">
 <metadata>
  <rdf:RDF xmlns:dc="http://purl.org/dc/elements/1.1/" xmlns:cc="http://creativecommons.org/ns#" xmlns:rdf="http://www.w3.org/1999/02/22-rdf-syntax-ns#">
   <cc:Work>
    <dc:type rdf:resource="http://purl.org/dc/dcmitype/StillImage"/>
    <dc:date>2026-07-21T23:29:37.817316</dc:date>
    <dc:format>image/svg+xml</dc:format>
    <dc:creator>
     <cc:Agent>
      <dc:title>Matplotlib v3.11.0, https://matplotlib.org/</dc:title>
     </cc:Agent>
    </dc:creator>
   </cc:Work>
  </rdf:RDF>
 </metadata>
 <defs>
  <style type="text/css">*{stroke-linejoin: round; stroke-linecap: butt}</style>
 </defs>
 <g id="figure_1">
  <g id="patch_1">
   <path d="M 0 352.67875 
L 567.485625 352.67875 
L 567.485625 0 
L 0 0 
z
" style="fill: #ffffff"/>
  </g>
  <g id="axes_1">
   <g id="patch_2">
    <path d="M 62.802344 308.477656 
L 560.285625 308.477656 
L 560.285625 24.597656 
L 62.802344 24.597656 
z
" style="fill: #ffffff"/>
   </g>
   <g id="matplotlib.axis_1">
    <g id="xtick_1">
     <g id="line2d_1">
      <path d="M 85.41522 308.477656 
L 85.41522 24.597656 
" clip-path="url(#p6703ca6465)" style="fill: none; stroke: #b0b0b0; stroke-width: 0.8; stroke-linecap: square"/>
     </g>
     <g id="line2d_2">
      <defs>
       <path id="m16cf6ba04d" d="M 0 0 
L 0 3.5 
" style="stroke: #000000; stroke-width: 0.8"/>
      </defs>
      <g>
       <use xlink:href="#m16cf6ba04d" x="85.41522" y="308.477656" style="stroke: #000000; stroke-width: 0.8"/>
      </g>
     </g>
     <g id="text_1">
      <!-- 0 -->
      <g transform="translate(81.59772 324.594844) scale(0.12 -0.12)">
       <defs>
        <path id="DejaVuSans-13" d="M 2034 4250 
Q 1547 4250 1301 3770 
Q 1056 3291 1056 2328 
Q 1056 1369 1301 889 
Q 1547 409 2034 409 
Q 2525 409 2770 889 
Q 3016 1369 3016 2328 
Q 3016 3291 2770 3770 
Q 2525 4250 2034 4250 
z
M 2034 4750 
Q 2819 4750 3233 4129 
Q 3647 3509 3647 2328 
Q 3647 1150 3233 529 
Q 2819 -91 2034 -91 
Q 1250 -91 836 529 
Q 422 1150 422 2328 
Q 422 3509 836 4129 
Q 1250 4750 2034 4750 
z
" transform="scale(0.015625)"/>
       </defs>
       <use xlink:href="#DejaVuSans-13"/>
      </g>
     </g>
    </g>
    <g id="xtick_2">
     <g id="line2d_3">
      <path d="M 142.089096 308.477656 
L 142.089096 24.597656 
" clip-path="url(#p6703ca6465)" style="fill: none; stroke: #b0b0b0; stroke-width: 0.8; stroke-linecap: square"/>
     </g>
     <g id="line2d_4">
      <g>
       <use xlink:href="#m16cf6ba04d" x="142.089096" y="308.477656" style="stroke: #000000; stroke-width: 0.8"/>
      </g>
     </g>
     <g id="text_2">
      <!-- 50 -->
      <g transform="translate(134.454096 324.594844) scale(0.12 -0.12)">
       <defs>
        <path id="DejaVuSans-18" d="M 691 4666 
L 3169 4666 
L 3169 4134 
L 1269 4134 
L 1269 2991 
Q 1406 3038 1543 3061 
Q 1681 3084 1819 3084 
Q 2600 3084 3056 2656 
Q 3513 2228 3513 1497 
Q 3513 744 3044 326 
Q 2575 -91 1722 -91 
Q 1428 -91 1123 -41 
Q 819 9 494 109 
L 494 744 
Q 775 591 1075 516 
Q 1375 441 1709 441 
Q 2250 441 2565 725 
Q 2881 1009 2881 1497 
Q 2881 1984 2565 2268 
Q 2250 2553 1709 2553 
Q 1456 2553 1204 2497 
Q 953 2441 691 2322 
L 691 4666 
z
" transform="scale(0.015625)"/>
       </defs>
       <use xlink:href="#DejaVuSans-18"/>
       <use xlink:href="#DejaVuSans-13" transform="translate(63.625 0)"/>
      </g>
     </g>
    </g>
    <g id="xtick_3">
     <g id="line2d_5">
      <path d="M 198.762972 308.477656 
L 198.762972 24.597656 
" clip-path="url(#p6703ca6465)" style="fill: none; stroke: #b0b0b0; stroke-width: 0.8; stroke-linecap: square"/>
     </g>
     <g id="line2d_6">
      <g>
       <use xlink:href="#m16cf6ba04d" x="198.762972" y="308.477656" style="stroke: #000000; stroke-width: 0.8"/>
      </g>
     </g>
     <g id="text_3">
      <!-- 100 -->
      <g transform="translate(187.310472 324.594844) scale(0.12 -0.12)">
       <defs>
        <path id="DejaVuSans-14" d="M 794 531 
L 1825 531 
L 1825 4091 
L 703 3866 
L 703 4441 
L 1819 4666 
L 2450 4666 
L 2450 531 
L 3481 531 
L 3481 0 
L 794 0 
L 794 531 
z
" transform="scale(0.015625)"/>
       </defs>
       <use xlink:href="#DejaVuSans-14"/>
       <use xlink:href="#DejaVuSans-13" transform="translate(63.625 0)"/>
       <use xlink:href="#DejaVuSans-13" transform="translate(127.25 0)"/>
      </g>
     </g>
    </g>
    <g id="xtick_4">
     <g id="line2d_7">
      <path d="M 255.436847 308.477656 
L 255.436847 24.597656 
" clip-path="url(#p6703ca6465)" style="fill: none; stroke: #b0b0b0; stroke-width: 0.8; stroke-linecap: square"/>
     </g>
     <g id="line2d_8">
      <g>
       <use xlink:href="#m16cf6ba04d" x="255.436847" y="308.477656" style="stroke: #000000; stroke-width: 0.8"/>
      </g>
     </g>
     <g id="text_4">
      <!-- 150 -->
      <g transform="translate(243.984347 324.594844) scale(0.12 -0.12)">
       <use xlink:href="#DejaVuSans-14"/>
       <use xlink:href="#DejaVuSans-18" transform="translate(63.625 0)"/>
       <use xlink:href="#DejaVuSans-13" transform="translate(127.25 0)"/>
      </g>
     </g>
    </g>
    <g id="xtick_5">
     <g id="line2d_9">
      <path d="M 312.110723 308.477656 
L 312.110723 24.597656 
" clip-path="url(#p6703ca6465)" style="fill: none; stroke: #b0b0b0; stroke-width: 0.8; stroke-linecap: square"/>
     </g>
     <g id="line2d_10">
      <g>
       <use xlink:href="#m16cf6ba04d" x="312.110723" y="308.477656" style="stroke: #000000; stroke-width: 0.8"/>
      </g>
     </g>
     <g id="text_5">
      <!-- 200 -->
      <g transform="translate(300.658223 324.594844) scale(0.12 -0.12)">
       <defs>
        <path id="DejaVuSans-15" d="M 1228 531 
L 3431 531 
L 3431 0 
L 469 0 
L 469 531 
Q 828 903 1448 1529 
Q 2069 2156 2228 2338 
Q 2531 2678 2651 2914 
Q 2772 3150 2772 3378 
Q 2772 3750 2511 3984 
Q 2250 4219 1831 4219 
Q 1534 4219 1204 4116 
Q 875 4013 500 3803 
L 500 4441 
Q 881 4594 1212 4672 
Q 1544 4750 1819 4750 
Q 2544 4750 2975 4387 
Q 3406 4025 3406 3419 
Q 3406 3131 3298 2873 
Q 3191 2616 2906 2266 
Q 2828 2175 2409 1742 
Q 1991 1309 1228 531 
z
" transform="scale(0.015625)"/>
       </defs>
       <use xlink:href="#DejaVuSans-15"/>
       <use xlink:href="#DejaVuSans-13" transform="translate(63.625 0)"/>
       <use xlink:href="#DejaVuSans-13" transform="translate(127.25 0)"/>
      </g>
     </g>
    </g>
    <g id="xtick_6">
     <g id="line2d_11">
      <path d="M 368.784599 308.477656 
L 368.784599 24.597656 
" clip-path="url(#p6703ca6465)" style="fill: none; stroke: #b0b0b0; stroke-width: 0.8; stroke-linecap: square"/>
     </g>
     <g id="line2d_12">
      <g>
       <use xlink:href="#m16cf6ba04d" x="368.784599" y="308.477656" style="stroke: #000000; stroke-width: 0.8"/>
      </g>
     </g>
     <g id="text_6">
      <!-- 250 -->
      <g transform="translate(357.332099 324.594844) scale(0.12 -0.12)">
       <use xlink:href="#DejaVuSans-15"/>
       <use xlink:href="#DejaVuSans-18" transform="translate(63.625 0)"/>
       <use xlink:href="#DejaVuSans-13" transform="translate(127.25 0)"/>
      </g>
     </g>
    </g>
    <g id="xtick_7">
     <g id="line2d_13">
      <path d="M 425.458475 308.477656 
L 425.458475 24.597656 
" clip-path="url(#p6703ca6465)" style="fill: none; stroke: #b0b0b0; stroke-width: 0.8; stroke-linecap: square"/>
     </g>
     <g id="line2d_14">
      <g>
       <use xlink:href="#m16cf6ba04d" x="425.458475" y="308.477656" style="stroke: #000000; stroke-width: 0.8"/>
      </g>
     </g>
     <g id="text_7">
      <!-- 300 -->
      <g transform="translate(414.005975 324.594844) scale(0.12 -0.12)">
       <defs>
        <path id="DejaVuSans-16" d="M 2597 2516 
Q 3050 2419 3304 2112 
Q 3559 1806 3559 1356 
Q 3559 666 3084 287 
Q 2609 -91 1734 -91 
Q 1441 -91 1130 -33 
Q 819 25 488 141 
L 488 750 
Q 750 597 1062 519 
Q 1375 441 1716 441 
Q 2309 441 2620 675 
Q 2931 909 2931 1356 
Q 2931 1769 2642 2001 
Q 2353 2234 1838 2234 
L 1294 2234 
L 1294 2753 
L 1863 2753 
Q 2328 2753 2575 2939 
Q 2822 3125 2822 3475 
Q 2822 3834 2567 4026 
Q 2313 4219 1838 4219 
Q 1578 4219 1281 4162 
Q 984 4106 628 3988 
L 628 4550 
Q 988 4650 1302 4700 
Q 1616 4750 1894 4750 
Q 2613 4750 3031 4423 
Q 3450 4097 3450 3541 
Q 3450 3153 3228 2886 
Q 3006 2619 2597 2516 
z
" transform="scale(0.015625)"/>
       </defs>
       <use xlink:href="#DejaVuSans-16"/>
       <use xlink:href="#DejaVuSans-13" transform="translate(63.625 0)"/>
       <use xlink:href="#DejaVuSans-13" transform="translate(127.25 0)"/>
      </g>
     </g>
    </g>
    <g id="xtick_8">
     <g id="line2d_15">
      <path d="M 482.13235 308.477656 
L 482.13235 24.597656 
" clip-path="url(#p6703ca6465)" style="fill: none; stroke: #b0b0b0; stroke-width: 0.8; stroke-linecap: square"/>
     </g>
     <g id="line2d_16">
      <g>
       <use xlink:href="#m16cf6ba04d" x="482.13235" y="308.477656" style="stroke: #000000; stroke-width: 0.8"/>
      </g>
     </g>
     <g id="text_8">
      <!-- 350 -->
      <g transform="translate(470.67985 324.594844) scale(0.12 -0.12)">
       <use xlink:href="#DejaVuSans-16"/>
       <use xlink:href="#DejaVuSans-18" transform="translate(63.625 0)"/>
       <use xlink:href="#DejaVuSans-13" transform="translate(127.25 0)"/>
      </g>
     </g>
    </g>
    <g id="xtick_9">
     <g id="line2d_17">
      <path d="M 538.806226 308.477656 
L 538.806226 24.597656 
" clip-path="url(#p6703ca6465)" style="fill: none; stroke: #b0b0b0; stroke-width: 0.8; stroke-linecap: square"/>
     </g>
     <g id="line2d_18">
      <g>
       <use xlink:href="#m16cf6ba04d" x="538.806226" y="308.477656" style="stroke: #000000; stroke-width: 0.8"/>
      </g>
     </g>
     <g id="text_9">
      <!-- 400 -->
      <g transform="translate(527.353726 324.594844) scale(0.12 -0.12)">
       <defs>
        <path id="DejaVuSans-17" d="M 2419 4116 
L 825 1625 
L 2419 1625 
L 2419 4116 
z
M 2253 4666 
L 3047 4666 
L 3047 1625 
L 3713 1625 
L 3713 1100 
L 3047 1100 
L 3047 0 
L 2419 0 
L 2419 1100 
L 313 1100 
L 313 1709 
L 2253 4666 
z
" transform="scale(0.015625)"/>
       </defs>
       <use xlink:href="#DejaVuSans-17"/>
       <use xlink:href="#DejaVuSans-13" transform="translate(63.625 0)"/>
       <use xlink:href="#DejaVuSans-13" transform="translate(127.25 0)"/>
      </g>
     </g>
    </g>
    <g id="text_10">
     <!-- Iteration -->
     <g transform="translate(281.851953 342.115469) scale(0.14 -0.14)">
      <defs>
       <path id="DejaVuSans-2c" d="M 628 4666 
L 1259 4666 
L 1259 0 
L 628 0 
L 628 4666 
z
" transform="scale(0.015625)"/>
       <path id="DejaVuSans-57" d="M 1172 4494 
L 1172 3500 
L 2356 3500 
L 2356 3053 
L 1172 3053 
L 1172 1153 
Q 1172 725 1289 603 
Q 1406 481 1766 481 
L 2356 481 
L 2356 0 
L 1766 0 
Q 1100 0 847 248 
Q 594 497 594 1153 
L 594 3053 
L 172 3053 
L 172 3500 
L 594 3500 
L 594 4494 
L 1172 4494 
z
" transform="scale(0.015625)"/>
       <path id="DejaVuSans-48" d="M 3597 1894 
L 3597 1613 
L 953 1613 
Q 991 1019 1311 708 
Q 1631 397 2203 397 
Q 2534 397 2845 478 
Q 3156 559 3463 722 
L 3463 178 
Q 3153 47 2828 -22 
Q 2503 -91 2169 -91 
Q 1331 -91 842 396 
Q 353 884 353 1716 
Q 353 2575 817 3079 
Q 1281 3584 2069 3584 
Q 2775 3584 3186 3129 
Q 3597 2675 3597 1894 
z
M 3022 2063 
Q 3016 2534 2758 2815 
Q 2500 3097 2075 3097 
Q 1594 3097 1305 2825 
Q 1016 2553 972 2059 
L 3022 2063 
z
" transform="scale(0.015625)"/>
       <path id="DejaVuSans-55" d="M 2631 2963 
Q 2534 3019 2420 3045 
Q 2306 3072 2169 3072 
Q 1681 3072 1420 2755 
Q 1159 2438 1159 1844 
L 1159 0 
L 581 0 
L 581 3500 
L 1159 3500 
L 1159 2956 
Q 1341 3275 1631 3429 
Q 1922 3584 2338 3584 
Q 2397 3584 2469 3576 
Q 2541 3569 2628 3553 
L 2631 2963 
z
" transform="scale(0.015625)"/>
       <path id="DejaVuSans-44" d="M 2194 1759 
Q 1497 1759 1228 1600 
Q 959 1441 959 1056 
Q 959 750 1161 570 
Q 1363 391 1709 391 
Q 2188 391 2477 730 
Q 2766 1069 2766 1631 
L 2766 1759 
L 2194 1759 
z
M 3341 1997 
L 3341 0 
L 2766 0 
L 2766 531 
Q 2569 213 2275 61 
Q 1981 -91 1556 -91 
Q 1019 -91 701 211 
Q 384 513 384 1019 
Q 384 1609 779 1909 
Q 1175 2209 1959 2209 
L 2766 2209 
L 2766 2266 
Q 2766 2663 2505 2880 
Q 2244 3097 1772 3097 
Q 1472 3097 1187 3025 
Q 903 2953 641 2809 
L 641 3341 
Q 956 3463 1253 3523 
Q 1550 3584 1831 3584 
Q 2591 3584 2966 3190 
Q 3341 2797 3341 1997 
z
" transform="scale(0.015625)"/>
       <path id="DejaVuSans-4c" d="M 603 3500 
L 1178 3500 
L 1178 0 
L 603 0 
L 603 3500 
z
M 603 4863 
L 1178 4863 
L 1178 4134 
L 603 4134 
L 603 4863 
z
" transform="scale(0.015625)"/>
       <path id="DejaVuSans-52" d="M 1959 3097 
Q 1497 3097 1228 2736 
Q 959 2375 959 1747 
Q 959 1119 1226 758 
Q 1494 397 1959 397 
Q 2419 397 2687 759 
Q 2956 1122 2956 1747 
Q 2956 2369 2687 2733 
Q 2419 3097 1959 3097 
z
M 1959 3584 
Q 2709 3584 3137 3096 
Q 3566 2609 3566 1747 
Q 3566 888 3137 398 
Q 2709 -91 1959 -91 
Q 1206 -91 779 398 
Q 353 888 353 1747 
Q 353 2609 779 3096 
Q 1206 3584 1959 3584 
z
" transform="scale(0.015625)"/>
       <path id="DejaVuSans-51" d="M 3513 2113 
L 3513 0 
L 2938 0 
L 2938 2094 
Q 2938 2591 2744 2837 
Q 2550 3084 2163 3084 
Q 1697 3084 1428 2787 
Q 1159 2491 1159 1978 
L 1159 0 
L 581 0 
L 581 3500 
L 1159 3500 
L 1159 2956 
Q 1366 3272 1645 3428 
Q 1925 3584 2291 3584 
Q 2894 3584 3203 3211 
Q 3513 2838 3513 2113 
z
" transform="scale(0.015625)"/>
      </defs>
      <use xlink:href="#DejaVuSans-2c"/>
      <use xlink:href="#DejaVuSans-57" transform="translate(29.5 0)"/>
      <use xlink:href="#DejaVuSans-48" transform="translate(68.703125 0)"/>
      <use xlink:href="#DejaVuSans-55" transform="translate(130.234375 0)"/>
      <use xlink:href="#DejaVuSans-44" transform="translate(171.34375 0)"/>
      <use xlink:href="#DejaVuSans-57" transform="translate(232.625 0)"/>
      <use xlink:href="#DejaVuSans-4c" transform="translate(271.828125 0)"/>
      <use xlink:href="#DejaVuSans-52" transform="translate(299.609375 0)"/>
      <use xlink:href="#DejaVuSans-51" transform="translate(360.796875 0)"/>
     </g>
    </g>
   </g>
   <g id="matplotlib.axis_2">
    <g id="ytick_1">
     <g id="line2d_19">
      <path d="M 62.802344 295.712647 
L 560.285625 295.712647 
" clip-path="url(#p6703ca6465)" style="fill: none; stroke: #b0b0b0; stroke-width: 0.8; stroke-linecap: square"/>
     </g>
     <g id="line2d_20">
      <defs>
       <path id="mdf3be28759" d="M 0 0 
L -3.5 0 
" style="stroke: #000000; stroke-width: 0.8"/>
      </defs>
      <g>
       <use xlink:href="#mdf3be28759" x="62.802344" y="295.712647" style="stroke: #000000; stroke-width: 0.8"/>
      </g>
     </g>
     <g id="text_11">
      <!-- 0 -->
      <g transform="translate(48.167344 300.27124) scale(0.12 -0.12)">
       <use xlink:href="#DejaVuSans-13"/>
      </g>
     </g>
    </g>
    <g id="ytick_2">
     <g id="line2d_21">
      <path d="M 62.802344 254.943804 
L 560.285625 254.943804 
" clip-path="url(#p6703ca6465)" style="fill: none; stroke: #b0b0b0; stroke-width: 0.8; stroke-linecap: square"/>
     </g>
     <g id="line2d_22">
      <g>
       <use xlink:href="#mdf3be28759" x="62.802344" y="254.943804" style="stroke: #000000; stroke-width: 0.8"/>
      </g>
     </g>
     <g id="text_12">
      <!-- 200 -->
      <g transform="translate(32.897344 259.502398) scale(0.12 -0.12)">
       <use xlink:href="#DejaVuSans-15"/>
       <use xlink:href="#DejaVuSans-13" transform="translate(63.625 0)"/>
       <use xlink:href="#DejaVuSans-13" transform="translate(127.25 0)"/>
      </g>
     </g>
    </g>
    <g id="ytick_3">
     <g id="line2d_23">
      <path d="M 62.802344 214.174962 
L 560.285625 214.174962 
" clip-path="url(#p6703ca6465)" style="fill: none; stroke: #b0b0b0; stroke-width: 0.8; stroke-linecap: square"/>
     </g>
     <g id="line2d_24">
      <g>
       <use xlink:href="#mdf3be28759" x="62.802344" y="214.174962" style="stroke: #000000; stroke-width: 0.8"/>
      </g>
     </g>
     <g id="text_13">
      <!-- 400 -->
      <g transform="translate(32.897344 218.733555) scale(0.12 -0.12)">
       <use xlink:href="#DejaVuSans-17"/>
       <use xlink:href="#DejaVuSans-13" transform="translate(63.625 0)"/>
       <use xlink:href="#DejaVuSans-13" transform="translate(127.25 0)"/>
      </g>
     </g>
    </g>
    <g id="ytick_4">
     <g id="line2d_25">
      <path d="M 62.802344 173.406119 
L 560.285625 173.406119 
" clip-path="url(#p6703ca6465)" style="fill: none; stroke: #b0b0b0; stroke-width: 0.8; stroke-linecap: square"/>
     </g>
     <g id="line2d_26">
      <g>
       <use xlink:href="#mdf3be28759" x="62.802344" y="173.406119" style="stroke: #000000; stroke-width: 0.8"/>
      </g>
     </g>
     <g id="text_14">
      <!-- 600 -->
      <g transform="translate(32.897344 177.964713) scale(0.12 -0.12)">
       <defs>
        <path id="DejaVuSans-19" d="M 2113 2584 
Q 1688 2584 1439 2293 
Q 1191 2003 1191 1497 
Q 1191 994 1439 701 
Q 1688 409 2113 409 
Q 2538 409 2786 701 
Q 3034 994 3034 1497 
Q 3034 2003 2786 2293 
Q 2538 2584 2113 2584 
z
M 3366 4563 
L 3366 3988 
Q 3128 4100 2886 4159 
Q 2644 4219 2406 4219 
Q 1781 4219 1451 3797 
Q 1122 3375 1075 2522 
Q 1259 2794 1537 2939 
Q 1816 3084 2150 3084 
Q 2853 3084 3261 2657 
Q 3669 2231 3669 1497 
Q 3669 778 3244 343 
Q 2819 -91 2113 -91 
Q 1303 -91 875 529 
Q 447 1150 447 2328 
Q 447 3434 972 4092 
Q 1497 4750 2381 4750 
Q 2619 4750 2861 4703 
Q 3103 4656 3366 4563 
z
" transform="scale(0.015625)"/>
       </defs>
       <use xlink:href="#DejaVuSans-19"/>
       <use xlink:href="#DejaVuSans-13" transform="translate(63.625 0)"/>
       <use xlink:href="#DejaVuSans-13" transform="translate(127.25 0)"/>
      </g>
     </g>
    </g>
    <g id="ytick_5">
     <g id="line2d_27">
      <path d="M 62.802344 132.637277 
L 560.285625 132.637277 
" clip-path="url(#p6703ca6465)" style="fill: none; stroke: #b0b0b0; stroke-width: 0.8; stroke-linecap: square"/>
     </g>
     <g id="line2d_28">
      <g>
       <use xlink:href="#mdf3be28759" x="62.802344" y="132.637277" style="stroke: #000000; stroke-width: 0.8"/>
      </g>
     </g>
     <g id="text_15">
      <!-- 800 -->
      <g transform="translate(32.897344 137.19587) scale(0.12 -0.12)">
       <defs>
        <path id="DejaVuSans-1b" d="M 2034 2216 
Q 1584 2216 1326 1975 
Q 1069 1734 1069 1313 
Q 1069 891 1326 650 
Q 1584 409 2034 409 
Q 2484 409 2743 651 
Q 3003 894 3003 1313 
Q 3003 1734 2745 1975 
Q 2488 2216 2034 2216 
z
M 1403 2484 
Q 997 2584 770 2862 
Q 544 3141 544 3541 
Q 544 4100 942 4425 
Q 1341 4750 2034 4750 
Q 2731 4750 3128 4425 
Q 3525 4100 3525 3541 
Q 3525 3141 3298 2862 
Q 3072 2584 2669 2484 
Q 3125 2378 3379 2068 
Q 3634 1759 3634 1313 
Q 3634 634 3220 271 
Q 2806 -91 2034 -91 
Q 1263 -91 848 271 
Q 434 634 434 1313 
Q 434 1759 690 2068 
Q 947 2378 1403 2484 
z
M 1172 3481 
Q 1172 3119 1398 2916 
Q 1625 2713 2034 2713 
Q 2441 2713 2670 2916 
Q 2900 3119 2900 3481 
Q 2900 3844 2670 4047 
Q 2441 4250 2034 4250 
Q 1625 4250 1398 4047 
Q 1172 3844 1172 3481 
z
" transform="scale(0.015625)"/>
       </defs>
       <use xlink:href="#DejaVuSans-1b"/>
       <use xlink:href="#DejaVuSans-13" transform="translate(63.625 0)"/>
       <use xlink:href="#DejaVuSans-13" transform="translate(127.25 0)"/>
      </g>
     </g>
    </g>
    <g id="ytick_6">
     <g id="line2d_29">
      <path d="M 62.802344 91.868434 
L 560.285625 91.868434 
" clip-path="url(#p6703ca6465)" style="fill: none; stroke: #b0b0b0; stroke-width: 0.8; stroke-linecap: square"/>
     </g>
     <g id="line2d_30">
      <g>
       <use xlink:href="#mdf3be28759" x="62.802344" y="91.868434" style="stroke: #000000; stroke-width: 0.8"/>
      </g>
     </g>
     <g id="text_16">
      <!-- 1000 -->
      <g transform="translate(25.262344 96.427028) scale(0.12 -0.12)">
       <use xlink:href="#DejaVuSans-14"/>
       <use xlink:href="#DejaVuSans-13" transform="translate(63.625 0)"/>
       <use xlink:href="#DejaVuSans-13" transform="translate(127.25 0)"/>
       <use xlink:href="#DejaVuSans-13" transform="translate(190.875 0)"/>
      </g>
     </g>
    </g>
    <g id="ytick_7">
     <g id="line2d_31">
      <path d="M 62.802344 51.099591 
L 560.285625 51.099591 
" clip-path="url(#p6703ca6465)" style="fill: none; stroke: #b0b0b0; stroke-width: 0.8; stroke-linecap: square"/>
     </g>
     <g id="line2d_32">
      <g>
       <use xlink:href="#mdf3be28759" x="62.802344" y="51.099591" style="stroke: #000000; stroke-width: 0.8"/>
      </g>
     </g>
     <g id="text_17">
      <!-- 1200 -->
      <g transform="translate(25.262344 55.658185) scale(0.12 -0.12)">
       <use xlink:href="#DejaVuSans-14"/>
       <use xlink:href="#DejaVuSans-15" transform="translate(63.625 0)"/>
       <use xlink:href="#DejaVuSans-13" transform="translate(127.25 0)"/>
       <use xlink:href="#DejaVuSans-13" transform="translate(190.875 0)"/>
      </g>
     </g>
    </g>
    <g id="text_18">
     <!-- ||grad|| -->
     <g transform="translate(17.899063 192.025312) rotate(-90) scale(0.14 -0.14)">
      <defs>
       <path id="DejaVuSans-5f" d="M 1344 4891 
L 1344 -1509 
L 813 -1509 
L 813 4891 
L 1344 4891 
z
" transform="scale(0.015625)"/>
       <path id="DejaVuSans-4a" d="M 2906 1791 
Q 2906 2416 2648 2759 
Q 2391 3103 1925 3103 
Q 1463 3103 1205 2759 
Q 947 2416 947 1791 
Q 947 1169 1205 825 
Q 1463 481 1925 481 
Q 2391 481 2648 825 
Q 2906 1169 2906 1791 
z
M 3481 434 
Q 3481 -459 3084 -895 
Q 2688 -1331 1869 -1331 
Q 1566 -1331 1297 -1286 
Q 1028 -1241 775 -1147 
L 775 -588 
Q 1028 -725 1275 -790 
Q 1522 -856 1778 -856 
Q 2344 -856 2625 -561 
Q 2906 -266 2906 331 
L 2906 616 
Q 2728 306 2450 153 
Q 2172 0 1784 0 
Q 1141 0 747 490 
Q 353 981 353 1791 
Q 353 2603 747 3093 
Q 1141 3584 1784 3584 
Q 2172 3584 2450 3431 
Q 2728 3278 2906 2969 
L 2906 3500 
L 3481 3500 
L 3481 434 
z
" transform="scale(0.015625)"/>
       <path id="DejaVuSans-47" d="M 2906 2969 
L 2906 4863 
L 3481 4863 
L 3481 0 
L 2906 0 
L 2906 525 
Q 2725 213 2448 61 
Q 2172 -91 1784 -91 
Q 1150 -91 751 415 
Q 353 922 353 1747 
Q 353 2572 751 3078 
Q 1150 3584 1784 3584 
Q 2172 3584 2448 3432 
Q 2725 3281 2906 2969 
z
M 947 1747 
Q 947 1113 1208 752 
Q 1469 391 1925 391 
Q 2381 391 2643 752 
Q 2906 1113 2906 1747 
Q 2906 2381 2643 2742 
Q 2381 3103 1925 3103 
Q 1469 3103 1208 2742 
Q 947 2381 947 1747 
z
" transform="scale(0.015625)"/>
      </defs>
      <use xlink:href="#DejaVuSans-5f"/>
      <use xlink:href="#DejaVuSans-5f" transform="translate(33.6875 0)"/>
      <use xlink:href="#DejaVuSans-4a" transform="translate(67.375 0)"/>
      <use xlink:href="#DejaVuSans-55" transform="translate(130.859375 0)"/>
      <use xlink:href="#DejaVuSans-44" transform="translate(171.96875 0)"/>
      <use xlink:href="#DejaVuSans-47" transform="translate(233.25 0)"/>
      <use xlink:href="#DejaVuSans-5f" transform="translate(296.734375 0)"/>
      <use xlink:href="#DejaVuSans-5f" transform="translate(330.421875 0)"/>
     </g>
    </g>
   </g>
   <g id="line2d_33">
    <path d="M 85.41522 249.277453 
L 86.548698 221.9996 
L 87.682175 67.532174 
L 88.815653 277.429533 
L 89.94913 275.953118 
L 91.082608 175.155343 
L 92.216085 144.144607 
L 93.349563 167.710716 
L 94.48304 157.954584 
L 95.616518 37.501293 
L 96.749995 107.48732 
L 97.883473 185.472667 
L 99.01695 215.795703 
L 100.150428 224.584124 
L 101.283905 229.407716 
L 102.417383 196.889506 
L 103.55086 282.670817 
L 104.684338 228.353051 
L 105.817815 253.784333 
L 106.951293 132.310055 
L 108.08477 139.369367 
L 109.218248 147.222895 
L 110.351725 128.469698 
L 111.485203 287.497632 
L 112.618681 214.062204 
L 113.752158 236.364049 
L 114.885636 173.230518 
L 116.019113 214.06706 
L 117.152591 206.814463 
L 118.286068 227.982993 
L 119.419546 141.39992 
L 120.553023 217.838742 
L 122.819978 277.575923 
L 123.953456 189.903661 
L 125.086933 237.815909 
L 126.220411 263.073599 
L 127.353888 154.857525 
L 128.487366 166.141246 
L 129.620843 267.098011 
L 130.754321 228.74543 
L 131.887798 278.752453 
L 133.021276 107.027331 
L 134.154753 281.425331 
L 135.288231 113.305126 
L 136.421708 185.744828 
L 137.555186 189.384651 
L 138.688663 189.825881 
L 139.822141 273.046789 
L 140.955618 197.36322 
L 142.089096 278.557278 
L 143.222573 268.501423 
L 144.356051 261.0423 
L 145.489528 255.563074 
L 146.623006 266.444763 
L 147.756483 213.022079 
L 148.889961 219.499931 
L 150.023439 275.96523 
L 151.156916 226.878029 
L 152.290394 268.078921 
L 153.423871 239.301853 
L 154.557349 250.638696 
L 155.690826 266.278154 
L 156.824304 255.88816 
L 157.957781 196.599436 
L 159.091259 249.028154 
L 160.224736 253.668011 
L 161.358214 247.027843 
L 162.491691 270.949328 
L 163.625169 284.250649 
L 164.758646 226.790093 
L 165.892124 264.376858 
L 167.025601 281.067983 
L 168.159079 134.562665 
L 169.292556 249.064377 
L 170.426034 293.142464 
L 171.559511 283.203086 
L 172.692989 181.341746 
L 173.826466 260.161446 
L 174.959944 173.640119 
L 176.093421 265.191981 
L 177.226899 228.096465 
L 178.360376 158.633095 
L 179.493854 274.93746 
L 180.627331 208.182947 
L 181.760809 166.683377 
L 182.894286 250.44344 
L 184.027764 230.045 
L 185.161241 272.927555 
L 186.294719 276.323796 
L 187.428197 245.596302 
L 188.561674 233.486336 
L 189.695152 235.141913 
L 190.828629 252.124815 
L 193.095584 185.122342 
L 194.229062 249.011446 
L 195.362539 154.771994 
L 196.496017 288.723548 
L 197.629494 244.717987 
L 198.762972 270.638266 
L 199.896449 256.056263 
L 201.029927 196.125965 
L 202.163404 293.556751 
L 203.296882 183.795568 
L 204.430359 287.561765 
L 205.563837 293.971516 
L 206.697314 211.975537 
L 207.830792 255.292604 
L 208.964269 274.499909 
L 210.097747 264.964783 
L 211.231224 227.214694 
L 212.364702 274.419195 
L 213.498179 273.224098 
L 214.631657 281.823736 
L 215.765134 245.362682 
L 216.898612 257.746661 
L 218.032089 272.057197 
L 219.165567 272.943209 
L 220.299044 278.628624 
L 221.432522 291.930411 
L 222.565999 256.745684 
L 223.699477 284.894892 
L 224.832954 284.324605 
L 225.966432 254.646847 
L 227.09991 283.65294 
L 228.233387 259.724733 
L 229.366865 292.326736 
L 230.500342 244.587041 
L 231.63382 286.264733 
L 232.767297 260.240554 
L 233.900775 270.412278 
L 235.034252 294.422495 
L 236.16773 289.404783 
L 237.301207 250.40846 
L 238.434685 274.020192 
L 239.568162 261.791477 
L 240.70164 271.495951 
L 241.835117 258.910379 
L 242.968595 294.133048 
L 244.102072 252.695237 
L 245.23555 286.105478 
L 246.369027 293.676833 
L 247.502505 273.192582 
L 248.635982 282.743192 
L 249.76946 268.735361 
L 250.902937 293.683818 
L 252.036415 292.099283 
L 253.169892 289.618329 
L 254.30337 286.412727 
L 255.436847 271.352541 
L 256.570325 288.06178 
L 257.703802 284.981397 
L 258.83728 286.20502 
L 259.970757 267.108367 
L 261.104235 289.921308 
L 262.237712 285.053037 
L 263.37119 292.720884 
L 264.504668 272.373902 
L 265.638145 290.928389 
L 266.771623 275.01572 
L 267.9051 274.029 
L 269.038578 287.290405 
L 270.172055 290.009737 
L 271.305533 268.016448 
L 272.43901 268.282684 
L 273.572488 281.88066 
L 274.705965 275.358116 
L 275.839443 282.553322 
L 276.97292 283.926906 
L 278.106398 279.366728 
L 279.239875 278.860375 
L 280.373353 286.186772 
L 281.50683 284.341052 
L 282.640308 277.668665 
L 283.773785 288.228688 
L 284.907263 290.042686 
L 287.174218 263.455448 
L 288.307695 285.786092 
L 289.441173 293.261372 
L 290.57465 263.297112 
L 291.708128 265.72774 
L 292.841605 281.273993 
L 293.975083 291.163549 
L 295.10856 260.120092 
L 296.242038 294.240218 
L 297.375515 290.669283 
L 299.64247 246.316267 
L 300.775948 289.837728 
L 301.909425 282.232051 
L 303.042903 290.944677 
L 304.176381 271.713924 
L 305.309858 290.858651 
L 306.443336 273.778949 
L 307.576813 294.009156 
L 308.710291 286.347768 
L 309.843768 267.369451 
L 310.977246 254.203746 
L 312.110723 289.222291 
L 313.244201 280.538795 
L 314.377678 287.675742 
L 315.511156 263.248034 
L 316.644633 271.761751 
L 317.778111 265.572827 
L 318.911588 294.233796 
L 320.045066 287.798067 
L 321.178543 271.452797 
L 322.312021 291.67433 
L 323.445498 285.15985 
L 324.578976 285.360489 
L 325.712453 291.153174 
L 326.845931 290.291907 
L 327.979408 290.796711 
L 329.112886 271.640527 
L 330.246363 288.479625 
L 331.379841 281.888489 
L 332.513318 268.227164 
L 333.646796 291.907285 
L 334.780273 267.963469 
L 335.913751 290.5501 
L 337.047228 271.906935 
L 338.180706 286.770285 
L 339.314183 281.477307 
L 340.447661 266.709851 
L 341.581139 282.698458 
L 342.714616 291.458984 
L 343.848094 274.539766 
L 344.981571 291.812652 
L 346.115049 288.951553 
L 347.248526 281.241403 
L 348.382004 249.534173 
L 349.515481 283.528524 
L 350.648959 254.873453 
L 351.782436 254.652685 
L 352.915914 266.545271 
L 354.049391 290.840271 
L 355.182869 277.092566 
L 356.316346 236.032202 
L 357.449824 282.516542 
L 358.583301 289.143812 
L 359.716779 278.544903 
L 360.850256 261.960633 
L 363.117211 281.480061 
L 364.250689 277.478075 
L 365.384166 286.59131 
L 366.517644 270.725111 
L 367.651121 235.183738 
L 368.784599 234.554138 
L 369.918076 253.314034 
L 371.051554 256.833973 
L 372.185031 294.682435 
L 373.318509 269.119692 
L 374.451986 290.366808 
L 375.585464 278.133787 
L 376.718941 280.307016 
L 377.852419 283.63837 
L 378.985897 279.323907 
L 380.119374 285.085727 
L 381.252852 236.10671 
L 382.386329 287.81549 
L 383.519807 278.631691 
L 384.653284 262.457323 
L 385.786762 270.109878 
L 386.920239 289.568021 
L 388.053717 215.718185 
L 389.187194 267.753307 
L 390.320672 254.746462 
L 391.454149 286.662405 
L 392.587627 272.360238 
L 393.721104 282.976584 
L 394.854582 282.927676 
L 395.988059 272.192977 
L 397.121537 255.595981 
L 398.255014 264.986613 
L 399.388492 272.715484 
L 400.521969 286.007202 
L 401.655447 272.904028 
L 402.788924 268.93325 
L 403.922402 274.6534 
L 405.055879 221.019267 
L 406.189357 283.768492 
L 407.322834 282.516011 
L 408.456312 289.253612 
L 409.589789 221.778147 
L 410.723267 270.950668 
L 411.856744 286.403452 
L 412.990222 254.61958 
L 414.123699 280.601441 
L 415.257177 262.694762 
L 416.390654 273.41746 
L 417.524132 279.69864 
L 418.65761 282.556408 
L 419.791087 295.186954 
L 420.924565 228.004135 
L 423.19152 285.406823 
L 424.324997 262.581284 
L 425.458475 283.526108 
L 426.591952 270.847165 
L 427.72543 288.801151 
L 428.858907 243.128721 
L 429.992385 259.454301 
L 431.125862 290.236777 
L 432.25934 256.904592 
L 433.392817 292.644172 
L 434.526295 286.2186 
L 435.659772 288.343317 
L 436.79325 291.673882 
L 437.926727 293.452399 
L 439.060205 272.606849 
L 440.193682 263.210101 
L 441.32716 293.549008 
L 442.460637 288.466964 
L 443.594115 289.973373 
L 444.727592 295.051961 
L 445.86107 295.409657 
L 446.994547 293.071004 
L 449.261502 248.151981 
L 450.39498 266.731277 
L 451.528457 267.020381 
L 452.661935 265.310887 
L 453.795412 283.81416 
L 454.92889 294.084023 
L 456.062368 295.128956 
L 458.329323 251.053013 
L 459.4628 293.955596 
L 460.596278 289.302988 
L 461.729755 266.243744 
L 462.863233 292.258659 
L 463.99671 275.483693 
L 465.130188 285.324467 
L 466.263665 290.746758 
L 467.397143 293.093508 
L 468.53062 284.128796 
L 469.664098 291.632148 
L 470.797575 284.418799 
L 471.931053 276.349906 
L 473.06453 271.311333 
L 474.198008 278.747568 
L 475.331485 293.070471 
L 476.464963 292.845131 
L 477.59844 264.310287 
L 478.731918 254.283413 
L 479.865395 290.236709 
L 480.998873 286.754996 
L 482.13235 282.368839 
L 483.265828 291.226511 
L 484.399305 280.095593 
L 485.532783 255.92009 
L 486.66626 284.138333 
L 487.799738 272.868413 
L 488.933215 279.775017 
L 490.066693 290.618142 
L 491.20017 276.618583 
L 492.333648 288.082327 
L 493.467126 294.756205 
L 494.600603 254.921625 
L 495.734081 289.639655 
L 496.867558 290.933753 
L 498.001036 287.34132 
L 499.134513 294.743873 
L 500.267991 251.07161 
L 501.401468 284.865958 
L 502.534946 281.566976 
L 503.668423 285.420795 
L 504.801901 291.495041 
L 505.935378 270.788385 
L 507.068856 262.656118 
L 508.202333 270.501825 
L 509.335811 283.279444 
L 510.469288 271.182399 
L 511.602766 295.268535 
L 512.736243 294.044101 
L 513.869721 288.570564 
L 515.003198 289.585735 
L 516.136676 245.580524 
L 517.270153 283.065557 
L 518.403631 281.020456 
L 519.537108 264.378574 
L 520.670586 283.76638 
L 521.804063 274.611561 
L 522.937541 223.376037 
L 524.071018 290.12687 
L 525.204496 277.383953 
L 526.337973 295.57402 
L 527.471451 286.15291 
L 528.604928 281.358041 
L 529.738406 281.226779 
L 530.871883 270.86088 
L 532.005361 294.347538 
L 533.138839 263.398725 
L 534.272316 282.094469 
L 535.405794 265.088398 
L 536.539271 255.730973 
L 537.672749 289.813083 
L 537.672749 289.813083 
" clip-path="url(#p6703ca6465)" style="fill: none; stroke: #1f77b4; stroke-width: 1.5; stroke-linecap: square"/>
   </g>
   <g id="patch_3">
    <path d="M 62.802344 308.477656 
L 62.802344 24.597656 
" style="fill: none; stroke: #000000; stroke-width: 0.8; stroke-linejoin: miter; stroke-linecap: square"/>
   </g>
   <g id="patch_4">
    <path d="M 560.285625 308.477656 
L 560.285625 24.597656 
" style="fill: none; stroke: #000000; stroke-width: 0.8; stroke-linejoin: miter; stroke-linecap: square"/>
   </g>
   <g id="patch_5">
    <path d="M 62.802344 308.477656 
L 560.285625 308.477656 
" style="fill: none; stroke: #000000; stroke-width: 0.8; stroke-linejoin: miter; stroke-linecap: square"/>
   </g>
   <g id="patch_6">
    <path d="M 62.802344 24.597656 
L 560.285625 24.597656 
" style="fill: none; stroke: #000000; stroke-width: 0.8; stroke-linejoin: miter; stroke-linecap: square"/>
   </g>
   <g id="text_19">
    <!-- Gradient norm over training (combined, all 4 params) -->
    <g transform="translate(109.822109 18.597656) scale(0.15 -0.15)">
     <defs>
      <path id="DejaVuSans-2a" d="M 3809 666 
L 3809 1919 
L 2778 1919 
L 2778 2438 
L 4434 2438 
L 4434 434 
Q 4069 175 3628 42 
Q 3188 -91 2688 -91 
Q 1594 -91 976 548 
Q 359 1188 359 2328 
Q 359 3472 976 4111 
Q 1594 4750 2688 4750 
Q 3144 4750 3555 4637 
Q 3966 4525 4313 4306 
L 4313 3634 
Q 3963 3931 3569 4081 
Q 3175 4231 2741 4231 
Q 1884 4231 1454 3753 
Q 1025 3275 1025 2328 
Q 1025 1384 1454 906 
Q 1884 428 2741 428 
Q 3075 428 3337 486 
Q 3600 544 3809 666 
z
" transform="scale(0.015625)"/>
      <path id="DejaVuSans-3" transform="scale(0.015625)"/>
      <path id="DejaVuSans-50" d="M 3328 2828 
Q 3544 3216 3844 3400 
Q 4144 3584 4550 3584 
Q 5097 3584 5394 3201 
Q 5691 2819 5691 2113 
L 5691 0 
L 5113 0 
L 5113 2094 
Q 5113 2597 4934 2840 
Q 4756 3084 4391 3084 
Q 3944 3084 3684 2787 
Q 3425 2491 3425 1978 
L 3425 0 
L 2847 0 
L 2847 2094 
Q 2847 2600 2669 2842 
Q 2491 3084 2119 3084 
Q 1678 3084 1418 2786 
Q 1159 2488 1159 1978 
L 1159 0 
L 581 0 
L 581 3500 
L 1159 3500 
L 1159 2956 
Q 1356 3278 1631 3431 
Q 1906 3584 2284 3584 
Q 2666 3584 2933 3390 
Q 3200 3197 3328 2828 
z
" transform="scale(0.015625)"/>
      <path id="DejaVuSans-59" d="M 191 3500 
L 800 3500 
L 1894 563 
L 2988 3500 
L 3597 3500 
L 2284 0 
L 1503 0 
L 191 3500 
z
" transform="scale(0.015625)"/>
      <path id="DejaVuSans-b" d="M 1984 4856 
Q 1566 4138 1362 3434 
Q 1159 2731 1159 2009 
Q 1159 1288 1364 580 
Q 1569 -128 1984 -844 
L 1484 -844 
Q 1016 -109 783 600 
Q 550 1309 550 2009 
Q 550 2706 781 3412 
Q 1013 4119 1484 4856 
L 1984 4856 
z
" transform="scale(0.015625)"/>
      <path id="DejaVuSans-46" d="M 3122 3366 
L 3122 2828 
Q 2878 2963 2633 3030 
Q 2388 3097 2138 3097 
Q 1578 3097 1268 2742 
Q 959 2388 959 1747 
Q 959 1106 1268 751 
Q 1578 397 2138 397 
Q 2388 397 2633 464 
Q 2878 531 3122 666 
L 3122 134 
Q 2881 22 2623 -34 
Q 2366 -91 2075 -91 
Q 1284 -91 818 406 
Q 353 903 353 1747 
Q 353 2603 823 3093 
Q 1294 3584 2113 3584 
Q 2378 3584 2631 3529 
Q 2884 3475 3122 3366 
z
" transform="scale(0.015625)"/>
      <path id="DejaVuSans-45" d="M 3116 1747 
Q 3116 2381 2855 2742 
Q 2594 3103 2138 3103 
Q 1681 3103 1420 2742 
Q 1159 2381 1159 1747 
Q 1159 1113 1420 752 
Q 1681 391 2138 391 
Q 2594 391 2855 752 
Q 3116 1113 3116 1747 
z
M 1159 2969 
Q 1341 3281 1617 3432 
Q 1894 3584 2278 3584 
Q 2916 3584 3314 3078 
Q 3713 2572 3713 1747 
Q 3713 922 3314 415 
Q 2916 -91 2278 -91 
Q 1894 -91 1617 61 
Q 1341 213 1159 525 
L 1159 0 
L 581 0 
L 581 4863 
L 1159 4863 
L 1159 2969 
z
" transform="scale(0.015625)"/>
      <path id="DejaVuSans-f" d="M 750 794 
L 1409 794 
L 1409 256 
L 897 -744 
L 494 -744 
L 750 256 
L 750 794 
z
" transform="scale(0.015625)"/>
      <path id="DejaVuSans-4f" d="M 603 4863 
L 1178 4863 
L 1178 0 
L 603 0 
L 603 4863 
z
" transform="scale(0.015625)"/>
      <path id="DejaVuSans-53" d="M 1159 525 
L 1159 -1331 
L 581 -1331 
L 581 3500 
L 1159 3500 
L 1159 2969 
Q 1341 3281 1617 3432 
Q 1894 3584 2278 3584 
Q 2916 3584 3314 3078 
Q 3713 2572 3713 1747 
Q 3713 922 3314 415 
Q 2916 -91 2278 -91 
Q 1894 -91 1617 61 
Q 1341 213 1159 525 
z
M 3116 1747 
Q 3116 2381 2855 2742 
Q 2594 3103 2138 3103 
Q 1681 3103 1420 2742 
Q 1159 2381 1159 1747 
Q 1159 1113 1420 752 
Q 1681 391 2138 391 
Q 2594 391 2855 752 
Q 3116 1113 3116 1747 
z
" transform="scale(0.015625)"/>
      <path id="DejaVuSans-56" d="M 2834 3397 
L 2834 2853 
Q 2591 2978 2328 3040 
Q 2066 3103 1784 3103 
Q 1356 3103 1142 2972 
Q 928 2841 928 2578 
Q 928 2378 1081 2264 
Q 1234 2150 1697 2047 
L 1894 2003 
Q 2506 1872 2764 1633 
Q 3022 1394 3022 966 
Q 3022 478 2636 193 
Q 2250 -91 1575 -91 
Q 1294 -91 989 -36 
Q 684 19 347 128 
L 347 722 
Q 666 556 975 473 
Q 1284 391 1588 391 
Q 1994 391 2212 530 
Q 2431 669 2431 922 
Q 2431 1156 2273 1281 
Q 2116 1406 1581 1522 
L 1381 1569 
Q 847 1681 609 1914 
Q 372 2147 372 2553 
Q 372 3047 722 3315 
Q 1072 3584 1716 3584 
Q 2034 3584 2315 3537 
Q 2597 3491 2834 3397 
z
" transform="scale(0.015625)"/>
      <path id="DejaVuSans-c" d="M 513 4856 
L 1013 4856 
Q 1481 4119 1714 3412 
Q 1947 2706 1947 2009 
Q 1947 1309 1714 600 
Q 1481 -109 1013 -844 
L 513 -844 
Q 928 -128 1133 580 
Q 1338 1288 1338 2009 
Q 1338 2731 1133 3434 
Q 928 4138 513 4856 
z
" transform="scale(0.015625)"/>
     </defs>
     <use xlink:href="#DejaVuSans-2a"/>
     <use xlink:href="#DejaVuSans-55" transform="translate(77.484375 0)"/>
     <use xlink:href="#DejaVuSans-44" transform="translate(118.59375 0)"/>
     <use xlink:href="#DejaVuSans-47" transform="translate(179.875 0)"/>
     <use xlink:href="#DejaVuSans-4c" transform="translate(243.359375 0)"/>
     <use xlink:href="#DejaVuSans-48" transform="translate(271.140625 0)"/>
     <use xlink:href="#DejaVuSans-51" transform="translate(332.671875 0)"/>
     <use xlink:href="#DejaVuSans-57" transform="translate(396.046875 0)"/>
     <use xlink:href="#DejaVuSans-3" transform="translate(435.25 0)"/>
     <use xlink:href="#DejaVuSans-51" transform="translate(467.03125 0)"/>
     <use xlink:href="#DejaVuSans-52" transform="translate(530.40625 0)"/>
     <use xlink:href="#DejaVuSans-55" transform="translate(591.59375 0)"/>
     <use xlink:href="#DejaVuSans-50" transform="translate(630.953125 0)"/>
     <use xlink:href="#DejaVuSans-3" transform="translate(728.359375 0)"/>
     <use xlink:href="#DejaVuSans-52" transform="translate(760.140625 0)"/>
     <use xlink:href="#DejaVuSans-59" transform="translate(821.328125 0)"/>
     <use xlink:href="#DejaVuSans-48" transform="translate(880.515625 0)"/>
     <use xlink:href="#DejaVuSans-55" transform="translate(942.046875 0)"/>
     <use xlink:href="#DejaVuSans-3" transform="translate(983.15625 0)"/>
     <use xlink:href="#DejaVuSans-57" transform="translate(1014.9375 0)"/>
     <use xlink:href="#DejaVuSans-55" transform="translate(1054.140625 0)"/>
     <use xlink:href="#DejaVuSans-44" transform="translate(1095.25 0)"/>
     <use xlink:href="#DejaVuSans-4c" transform="translate(1156.53125 0)"/>
     <use xlink:href="#DejaVuSans-51" transform="translate(1184.3125 0)"/>
     <use xlink:href="#DejaVuSans-4c" transform="translate(1247.6875 0)"/>
     <use xlink:href="#DejaVuSans-51" transform="translate(1275.46875 0)"/>
     <use xlink:href="#DejaVuSans-4a" transform="translate(1338.84375 0)"/>
     <use xlink:href="#DejaVuSans-3" transform="translate(1402.328125 0)"/>
     <use xlink:href="#DejaVuSans-b" transform="translate(1434.109375 0)"/>
     <use xlink:href="#DejaVuSans-46" transform="translate(1473.125 0)"/>
     <use xlink:href="#DejaVuSans-52" transform="translate(1528.109375 0)"/>
     <use xlink:href="#DejaVuSans-50" transform="translate(1589.296875 0)"/>
     <use xlink:href="#DejaVuSans-45" transform="translate(1686.703125 0)"/>
     <use xlink:href="#DejaVuSans-4c" transform="translate(1750.1875 0)"/>
     <use xlink:href="#DejaVuSans-51" transform="translate(1777.96875 0)"/>
     <use xlink:href="#DejaVuSans-48" transform="translate(1841.34375 0)"/>
     <use xlink:href="#DejaVuSans-47" transform="translate(1902.875 0)"/>
     <use xlink:href="#DejaVuSans-f" transform="translate(1966.359375 0)"/>
     <use xlink:href="#DejaVuSans-3" transform="translate(1998.140625 0)"/>
     <use xlink:href="#DejaVuSans-44" transform="translate(2029.921875 0)"/>
     <use xlink:href="#DejaVuSans-4f" transform="translate(2091.203125 0)"/>
     <use xlink:href="#DejaVuSans-4f" transform="translate(2118.984375 0)"/>
     <use xlink:href="#DejaVuSans-3" transform="translate(2146.765625 0)"/>
     <use xlink:href="#DejaVuSans-17" transform="translate(2178.546875 0)"/>
     <use xlink:href="#DejaVuSans-3" transform="translate(2242.171875 0)"/>
     <use xlink:href="#DejaVuSans-53" transform="translate(2273.953125 0)"/>
     <use xlink:href="#DejaVuSans-44" transform="translate(2337.4375 0)"/>
     <use xlink:href="#DejaVuSans-55" transform="translate(2398.71875 0)"/>
     <use xlink:href="#DejaVuSans-44" transform="translate(2439.828125 0)"/>
     <use xlink:href="#DejaVuSans-50" transform="translate(2501.109375 0)"/>
     <use xlink:href="#DejaVuSans-56" transform="translate(2598.515625 0)"/>
     <use xlink:href="#DejaVuSans-c" transform="translate(2650.609375 0)"/>
    </g>
   </g>
  </g>
 </g>
 <defs>
  <clipPath id="p6703ca6465">
   <rect x="62.802344" y="24.597656" width="497.483281" height="283.88"/>
  </clipPath>
 </defs>
</svg>
