<?xml version="1.0" encoding="utf-8" standalone="no"?>
<!DOCTYPE svg PUBLIC "-//W3C//DTD SVG 1.1//EN"
  "http://www.w3.org/Graphics/SVG/1.1/DTD/svg11.dtd">
<svg xmlns:xlink="http://www.w3.org/1999/xlink" width="855.58875pt" height="568.67875pt" viewBox="0 0 855.58875 568.67875" xmlns="http://www.w3.org/2000/svg" version="1.1">
 <metadata>
  <rdf:RDF xmlns:dc="http://purl.org/dc/elements/1.1/" xmlns:cc="http://creativecommons.org/ns#" xmlns:rdf="http://www.w3.org/1999/02/22-rdf-syntax-ns#">
   <cc:Work>
    <dc:type rdf:resource="http://purl.org/dc/dcmitype/StillImage"/>
    <dc:date>2026-07-21T23:29:35.073282</dc:date>
    <dc:format>image/svg+xml</dc:format>
    <dc:creator>
     <cc:Agent>
      <dc:title>Matplotlib v3.11.0, https://matplotlib.org/</dc:title>
     </cc:Agent>
    </dc:creator>
   </cc:Work>
  </rdf:RDF>
 </metadata>
 <defs>
  <style type="text/css">*{stroke-linejoin: round; stroke-linecap: butt}</style>
 </defs>
 <g id="figure_1">
  <g id="patch_1">
   <path d="M 0 568.67875 
L 855.58875 568.67875 
L 855.58875 0 
L 0 0 
z
" style="fill: #ffffff"/>
  </g>
  <g id="axes_1">
   <g id="patch_2">
    <path d="M 56.18875 241.877656 
L 427.54875 241.877656 
L 427.54875 24.597656 
L 56.18875 24.597656 
z
" style="fill: #ffffff"/>
   </g>
   <g id="matplotlib.axis_1">
    <g id="xtick_1">
     <g id="line2d_1">
      <path d="M 73.06875 241.877656 
L 73.06875 24.597656 
" clip-path="url(#pa71cc979e4)" style="fill: none; stroke: #b0b0b0; stroke-width: 0.8; stroke-linecap: square"/>
     </g>
     <g id="line2d_2">
      <defs>
       <path id="m47dfccf32e" d="M 0 0 
L 0 3.5 
" style="stroke: #000000; stroke-width: 0.8"/>
      </defs>
      <g>
       <use xlink:href="#m47dfccf32e" x="73.06875" y="241.877656" style="stroke: #000000; stroke-width: 0.8"/>
      </g>
     </g>
     <g id="text_1">
      <!-- 0 -->
      <g transform="translate(69.25125 257.994844) scale(0.12 -0.12)">
       <defs>
        <path id="DejaVuSans-13" d="M 2034 4250 
Q 1547 4250 1301 3770 
Q 1056 3291 1056 2328 
Q 1056 1369 1301 889 
Q 1547 409 2034 409 
Q 2525 409 2770 889 
Q 3016 1369 3016 2328 
Q 3016 3291 2770 3770 
Q 2525 4250 2034 4250 
z
M 2034 4750 
Q 2819 4750 3233 4129 
Q 3647 3509 3647 2328 
Q 3647 1150 3233 529 
Q 2819 -91 2034 -91 
Q 1250 -91 836 529 
Q 422 1150 422 2328 
Q 422 3509 836 4129 
Q 1250 4750 2034 4750 
z
" transform="scale(0.015625)"/>
       </defs>
       <use xlink:href="#DejaVuSans-13"/>
      </g>
     </g>
    </g>
    <g id="xtick_2">
     <g id="line2d_3">
      <path d="M 115.374514 241.877656 
L 115.374514 24.597656 
" clip-path="url(#pa71cc979e4)" style="fill: none; stroke: #b0b0b0; stroke-width: 0.8; stroke-linecap: square"/>
     </g>
     <g id="line2d_4">
      <g>
       <use xlink:href="#m47dfccf32e" x="115.374514" y="241.877656" style="stroke: #000000; stroke-width: 0.8"/>
      </g>
     </g>
     <g id="text_2">
      <!-- 50 -->
      <g transform="translate(107.739514 257.994844) scale(0.12 -0.12)">
       <defs>
        <path id="DejaVuSans-18" d="M 691 4666 
L 3169 4666 
L 3169 4134 
L 1269 4134 
L 1269 2991 
Q 1406 3038 1543 3061 
Q 1681 3084 1819 3084 
Q 2600 3084 3056 2656 
Q 3513 2228 3513 1497 
Q 3513 744 3044 326 
Q 2575 -91 1722 -91 
Q 1428 -91 1123 -41 
Q 819 9 494 109 
L 494 744 
Q 775 591 1075 516 
Q 1375 441 1709 441 
Q 2250 441 2565 725 
Q 2881 1009 2881 1497 
Q 2881 1984 2565 2268 
Q 2250 2553 1709 2553 
Q 1456 2553 1204 2497 
Q 953 2441 691 2322 
L 691 4666 
z
" transform="scale(0.015625)"/>
       </defs>
       <use xlink:href="#DejaVuSans-18"/>
       <use xlink:href="#DejaVuSans-13" transform="translate(63.625 0)"/>
      </g>
     </g>
    </g>
    <g id="xtick_3">
     <g id="line2d_5">
      <path d="M 157.680279 241.877656 
L 157.680279 24.597656 
" clip-path="url(#pa71cc979e4)" style="fill: none; stroke: #b0b0b0; stroke-width: 0.8; stroke-linecap: square"/>
     </g>
     <g id="line2d_6">
      <g>
       <use xlink:href="#m47dfccf32e" x="157.680279" y="241.877656" style="stroke: #000000; stroke-width: 0.8"/>
      </g>
     </g>
     <g id="text_3">
      <!-- 100 -->
      <g transform="translate(146.227779 257.994844) scale(0.12 -0.12)">
       <defs>
        <path id="DejaVuSans-14" d="M 794 531 
L 1825 531 
L 1825 4091 
L 703 3866 
L 703 4441 
L 1819 4666 
L 2450 4666 
L 2450 531 
L 3481 531 
L 3481 0 
L 794 0 
L 794 531 
z
" transform="scale(0.015625)"/>
       </defs>
       <use xlink:href="#DejaVuSans-14"/>
       <use xlink:href="#DejaVuSans-13" transform="translate(63.625 0)"/>
       <use xlink:href="#DejaVuSans-13" transform="translate(127.25 0)"/>
      </g>
     </g>
    </g>
    <g id="xtick_4">
     <g id="line2d_7">
      <path d="M 199.986043 241.877656 
L 199.986043 24.597656 
" clip-path="url(#pa71cc979e4)" style="fill: none; stroke: #b0b0b0; stroke-width: 0.8; stroke-linecap: square"/>
     </g>
     <g id="line2d_8">
      <g>
       <use xlink:href="#m47dfccf32e" x="199.986043" y="241.877656" style="stroke: #000000; stroke-width: 0.8"/>
      </g>
     </g>
     <g id="text_4">
      <!-- 150 -->
      <g transform="translate(188.533543 257.994844) scale(0.12 -0.12)">
       <use xlink:href="#DejaVuSans-14"/>
       <use xlink:href="#DejaVuSans-18" transform="translate(63.625 0)"/>
       <use xlink:href="#DejaVuSans-13" transform="translate(127.25 0)"/>
      </g>
     </g>
    </g>
    <g id="xtick_5">
     <g id="line2d_9">
      <path d="M 242.291808 241.877656 
L 242.291808 24.597656 
" clip-path="url(#pa71cc979e4)" style="fill: none; stroke: #b0b0b0; stroke-width: 0.8; stroke-linecap: square"/>
     </g>
     <g id="line2d_10">
      <g>
       <use xlink:href="#m47dfccf32e" x="242.291808" y="241.877656" style="stroke: #000000; stroke-width: 0.8"/>
      </g>
     </g>
     <g id="text_5">
      <!-- 200 -->
      <g transform="translate(230.839308 257.994844) scale(0.12 -0.12)">
       <defs>
        <path id="DejaVuSans-15" d="M 1228 531 
L 3431 531 
L 3431 0 
L 469 0 
L 469 531 
Q 828 903 1448 1529 
Q 2069 2156 2228 2338 
Q 2531 2678 2651 2914 
Q 2772 3150 2772 3378 
Q 2772 3750 2511 3984 
Q 2250 4219 1831 4219 
Q 1534 4219 1204 4116 
Q 875 4013 500 3803 
L 500 4441 
Q 881 4594 1212 4672 
Q 1544 4750 1819 4750 
Q 2544 4750 2975 4387 
Q 3406 4025 3406 3419 
Q 3406 3131 3298 2873 
Q 3191 2616 2906 2266 
Q 2828 2175 2409 1742 
Q 1991 1309 1228 531 
z
" transform="scale(0.015625)"/>
       </defs>
       <use xlink:href="#DejaVuSans-15"/>
       <use xlink:href="#DejaVuSans-13" transform="translate(63.625 0)"/>
       <use xlink:href="#DejaVuSans-13" transform="translate(127.25 0)"/>
      </g>
     </g>
    </g>
    <g id="xtick_6">
     <g id="line2d_11">
      <path d="M 284.597572 241.877656 
L 284.597572 24.597656 
" clip-path="url(#pa71cc979e4)" style="fill: none; stroke: #b0b0b0; stroke-width: 0.8; stroke-linecap: square"/>
     </g>
     <g id="line2d_12">
      <g>
       <use xlink:href="#m47dfccf32e" x="284.597572" y="241.877656" style="stroke: #000000; stroke-width: 0.8"/>
      </g>
     </g>
     <g id="text_6">
      <!-- 250 -->
      <g transform="translate(273.145072 257.994844) scale(0.12 -0.12)">
       <use xlink:href="#DejaVuSans-15"/>
       <use xlink:href="#DejaVuSans-18" transform="translate(63.625 0)"/>
       <use xlink:href="#DejaVuSans-13" transform="translate(127.25 0)"/>
      </g>
     </g>
    </g>
    <g id="xtick_7">
     <g id="line2d_13">
      <path d="M 326.903336 241.877656 
L 326.903336 24.597656 
" clip-path="url(#pa71cc979e4)" style="fill: none; stroke: #b0b0b0; stroke-width: 0.8; stroke-linecap: square"/>
     </g>
     <g id="line2d_14">
      <g>
       <use xlink:href="#m47dfccf32e" x="326.903336" y="241.877656" style="stroke: #000000; stroke-width: 0.8"/>
      </g>
     </g>
     <g id="text_7">
      <!-- 300 -->
      <g transform="translate(315.450836 257.994844) scale(0.12 -0.12)">
       <defs>
        <path id="DejaVuSans-16" d="M 2597 2516 
Q 3050 2419 3304 2112 
Q 3559 1806 3559 1356 
Q 3559 666 3084 287 
Q 2609 -91 1734 -91 
Q 1441 -91 1130 -33 
Q 819 25 488 141 
L 488 750 
Q 750 597 1062 519 
Q 1375 441 1716 441 
Q 2309 441 2620 675 
Q 2931 909 2931 1356 
Q 2931 1769 2642 2001 
Q 2353 2234 1838 2234 
L 1294 2234 
L 1294 2753 
L 1863 2753 
Q 2328 2753 2575 2939 
Q 2822 3125 2822 3475 
Q 2822 3834 2567 4026 
Q 2313 4219 1838 4219 
Q 1578 4219 1281 4162 
Q 984 4106 628 3988 
L 628 4550 
Q 988 4650 1302 4700 
Q 1616 4750 1894 4750 
Q 2613 4750 3031 4423 
Q 3450 4097 3450 3541 
Q 3450 3153 3228 2886 
Q 3006 2619 2597 2516 
z
" transform="scale(0.015625)"/>
       </defs>
       <use xlink:href="#DejaVuSans-16"/>
       <use xlink:href="#DejaVuSans-13" transform="translate(63.625 0)"/>
       <use xlink:href="#DejaVuSans-13" transform="translate(127.25 0)"/>
      </g>
     </g>
    </g>
    <g id="xtick_8">
     <g id="line2d_15">
      <path d="M 369.209101 241.877656 
L 369.209101 24.597656 
" clip-path="url(#pa71cc979e4)" style="fill: none; stroke: #b0b0b0; stroke-width: 0.8; stroke-linecap: square"/>
     </g>
     <g id="line2d_16">
      <g>
       <use xlink:href="#m47dfccf32e" x="369.209101" y="241.877656" style="stroke: #000000; stroke-width: 0.8"/>
      </g>
     </g>
     <g id="text_8">
      <!-- 350 -->
      <g transform="translate(357.756601 257.994844) scale(0.12 -0.12)">
       <use xlink:href="#DejaVuSans-16"/>
       <use xlink:href="#DejaVuSans-18" transform="translate(63.625 0)"/>
       <use xlink:href="#DejaVuSans-13" transform="translate(127.25 0)"/>
      </g>
     </g>
    </g>
    <g id="xtick_9">
     <g id="line2d_17">
      <path d="M 411.514865 241.877656 
L 411.514865 24.597656 
" clip-path="url(#pa71cc979e4)" style="fill: none; stroke: #b0b0b0; stroke-width: 0.8; stroke-linecap: square"/>
     </g>
     <g id="line2d_18">
      <g>
       <use xlink:href="#m47dfccf32e" x="411.514865" y="241.877656" style="stroke: #000000; stroke-width: 0.8"/>
      </g>
     </g>
     <g id="text_9">
      <!-- 400 -->
      <g transform="translate(400.062365 257.994844) scale(0.12 -0.12)">
       <defs>
        <path id="DejaVuSans-17" d="M 2419 4116 
L 825 1625 
L 2419 1625 
L 2419 4116 
z
M 2253 4666 
L 3047 4666 
L 3047 1625 
L 3713 1625 
L 3713 1100 
L 3047 1100 
L 3047 0 
L 2419 0 
L 2419 1100 
L 313 1100 
L 313 1709 
L 2253 4666 
z
" transform="scale(0.015625)"/>
       </defs>
       <use xlink:href="#DejaVuSans-17"/>
       <use xlink:href="#DejaVuSans-13" transform="translate(63.625 0)"/>
       <use xlink:href="#DejaVuSans-13" transform="translate(127.25 0)"/>
      </g>
     </g>
    </g>
    <g id="text_10">
     <!-- Iteration -->
     <g transform="translate(212.176719 275.515469) scale(0.14 -0.14)">
      <defs>
       <path id="DejaVuSans-2c" d="M 628 4666 
L 1259 4666 
L 1259 0 
L 628 0 
L 628 4666 
z
" transform="scale(0.015625)"/>
       <path id="DejaVuSans-57" d="M 1172 4494 
L 1172 3500 
L 2356 3500 
L 2356 3053 
L 1172 3053 
L 1172 1153 
Q 1172 725 1289 603 
Q 1406 481 1766 481 
L 2356 481 
L 2356 0 
L 1766 0 
Q 1100 0 847 248 
Q 594 497 594 1153 
L 594 3053 
L 172 3053 
L 172 3500 
L 594 3500 
L 594 4494 
L 1172 4494 
z
" transform="scale(0.015625)"/>
       <path id="DejaVuSans-48" d="M 3597 1894 
L 3597 1613 
L 953 1613 
Q 991 1019 1311 708 
Q 1631 397 2203 397 
Q 2534 397 2845 478 
Q 3156 559 3463 722 
L 3463 178 
Q 3153 47 2828 -22 
Q 2503 -91 2169 -91 
Q 1331 -91 842 396 
Q 353 884 353 1716 
Q 353 2575 817 3079 
Q 1281 3584 2069 3584 
Q 2775 3584 3186 3129 
Q 3597 2675 3597 1894 
z
M 3022 2063 
Q 3016 2534 2758 2815 
Q 2500 3097 2075 3097 
Q 1594 3097 1305 2825 
Q 1016 2553 972 2059 
L 3022 2063 
z
" transform="scale(0.015625)"/>
       <path id="DejaVuSans-55" d="M 2631 2963 
Q 2534 3019 2420 3045 
Q 2306 3072 2169 3072 
Q 1681 3072 1420 2755 
Q 1159 2438 1159 1844 
L 1159 0 
L 581 0 
L 581 3500 
L 1159 3500 
L 1159 2956 
Q 1341 3275 1631 3429 
Q 1922 3584 2338 3584 
Q 2397 3584 2469 3576 
Q 2541 3569 2628 3553 
L 2631 2963 
z
" transform="scale(0.015625)"/>
       <path id="DejaVuSans-44" d="M 2194 1759 
Q 1497 1759 1228 1600 
Q 959 1441 959 1056 
Q 959 750 1161 570 
Q 1363 391 1709 391 
Q 2188 391 2477 730 
Q 2766 1069 2766 1631 
L 2766 1759 
L 2194 1759 
z
M 3341 1997 
L 3341 0 
L 2766 0 
L 2766 531 
Q 2569 213 2275 61 
Q 1981 -91 1556 -91 
Q 1019 -91 701 211 
Q 384 513 384 1019 
Q 384 1609 779 1909 
Q 1175 2209 1959 2209 
L 2766 2209 
L 2766 2266 
Q 2766 2663 2505 2880 
Q 2244 3097 1772 3097 
Q 1472 3097 1187 3025 
Q 903 2953 641 2809 
L 641 3341 
Q 956 3463 1253 3523 
Q 1550 3584 1831 3584 
Q 2591 3584 2966 3190 
Q 3341 2797 3341 1997 
z
" transform="scale(0.015625)"/>
       <path id="DejaVuSans-4c" d="M 603 3500 
L 1178 3500 
L 1178 0 
L 603 0 
L 603 3500 
z
M 603 4863 
L 1178 4863 
L 1178 4134 
L 603 4134 
L 603 4863 
z
" transform="scale(0.015625)"/>
       <path id="DejaVuSans-52" d="M 1959 3097 
Q 1497 3097 1228 2736 
Q 959 2375 959 1747 
Q 959 1119 1226 758 
Q 1494 397 1959 397 
Q 2419 397 2687 759 
Q 2956 1122 2956 1747 
Q 2956 2369 2687 2733 
Q 2419 3097 1959 3097 
z
M 1959 3584 
Q 2709 3584 3137 3096 
Q 3566 2609 3566 1747 
Q 3566 888 3137 398 
Q 2709 -91 1959 -91 
Q 1206 -91 779 398 
Q 353 888 353 1747 
Q 353 2609 779 3096 
Q 1206 3584 1959 3584 
z
" transform="scale(0.015625)"/>
       <path id="DejaVuSans-51" d="M 3513 2113 
L 3513 0 
L 2938 0 
L 2938 2094 
Q 2938 2591 2744 2837 
Q 2550 3084 2163 3084 
Q 1697 3084 1428 2787 
Q 1159 2491 1159 1978 
L 1159 0 
L 581 0 
L 581 3500 
L 1159 3500 
L 1159 2956 
Q 1366 3272 1645 3428 
Q 1925 3584 2291 3584 
Q 2894 3584 3203 3211 
Q 3513 2838 3513 2113 
z
" transform="scale(0.015625)"/>
      </defs>
      <use xlink:href="#DejaVuSans-2c"/>
      <use xlink:href="#DejaVuSans-57" transform="translate(29.5 0)"/>
      <use xlink:href="#DejaVuSans-48" transform="translate(68.703125 0)"/>
      <use xlink:href="#DejaVuSans-55" transform="translate(130.234375 0)"/>
      <use xlink:href="#DejaVuSans-44" transform="translate(171.34375 0)"/>
      <use xlink:href="#DejaVuSans-57" transform="translate(232.625 0)"/>
      <use xlink:href="#DejaVuSans-4c" transform="translate(271.828125 0)"/>
      <use xlink:href="#DejaVuSans-52" transform="translate(299.609375 0)"/>
      <use xlink:href="#DejaVuSans-51" transform="translate(360.796875 0)"/>
     </g>
    </g>
   </g>
   <g id="matplotlib.axis_2">
    <g id="ytick_1">
     <g id="line2d_19">
      <path d="M 56.18875 236.603705 
L 427.54875 236.603705 
" clip-path="url(#pa71cc979e4)" style="fill: none; stroke: #b0b0b0; stroke-width: 0.8; stroke-linecap: square"/>
     </g>
     <g id="line2d_20">
      <defs>
       <path id="m07f4f99f6c" d="M 0 0 
L -3.5 0 
" style="stroke: #000000; stroke-width: 0.8"/>
      </defs>
      <g>
       <use xlink:href="#m07f4f99f6c" x="56.18875" y="236.603705" style="stroke: #000000; stroke-width: 0.8"/>
      </g>
     </g>
     <g id="text_11">
      <!-- 0.5 -->
      <g transform="translate(30.105 241.162299) scale(0.12 -0.12)">
       <defs>
        <path id="DejaVuSans-11" d="M 684 794 
L 1344 794 
L 1344 0 
L 684 0 
L 684 794 
z
" transform="scale(0.015625)"/>
       </defs>
       <use xlink:href="#DejaVuSans-13"/>
       <use xlink:href="#DejaVuSans-11" transform="translate(63.625 0)"/>
       <use xlink:href="#DejaVuSans-18" transform="translate(95.40625 0)"/>
      </g>
     </g>
    </g>
    <g id="ytick_2">
     <g id="line2d_21">
      <path d="M 56.18875 190.579578 
L 427.54875 190.579578 
" clip-path="url(#pa71cc979e4)" style="fill: none; stroke: #b0b0b0; stroke-width: 0.8; stroke-linecap: square"/>
     </g>
     <g id="line2d_22">
      <g>
       <use xlink:href="#m07f4f99f6c" x="56.18875" y="190.579578" style="stroke: #000000; stroke-width: 0.8"/>
      </g>
     </g>
     <g id="text_12">
      <!-- 1.0 -->
      <g transform="translate(30.105 195.138172) scale(0.12 -0.12)">
       <use xlink:href="#DejaVuSans-14"/>
       <use xlink:href="#DejaVuSans-11" transform="translate(63.625 0)"/>
       <use xlink:href="#DejaVuSans-13" transform="translate(95.40625 0)"/>
      </g>
     </g>
    </g>
    <g id="ytick_3">
     <g id="line2d_23">
      <path d="M 56.18875 144.555451 
L 427.54875 144.555451 
" clip-path="url(#pa71cc979e4)" style="fill: none; stroke: #b0b0b0; stroke-width: 0.8; stroke-linecap: square"/>
     </g>
     <g id="line2d_24">
      <g>
       <use xlink:href="#m07f4f99f6c" x="56.18875" y="144.555451" style="stroke: #000000; stroke-width: 0.8"/>
      </g>
     </g>
     <g id="text_13">
      <!-- 1.5 -->
      <g transform="translate(30.105 149.114045) scale(0.12 -0.12)">
       <use xlink:href="#DejaVuSans-14"/>
       <use xlink:href="#DejaVuSans-11" transform="translate(63.625 0)"/>
       <use xlink:href="#DejaVuSans-18" transform="translate(95.40625 0)"/>
      </g>
     </g>
    </g>
    <g id="ytick_4">
     <g id="line2d_25">
      <path d="M 56.18875 98.531325 
L 427.54875 98.531325 
" clip-path="url(#pa71cc979e4)" style="fill: none; stroke: #b0b0b0; stroke-width: 0.8; stroke-linecap: square"/>
     </g>
     <g id="line2d_26">
      <g>
       <use xlink:href="#m07f4f99f6c" x="56.18875" y="98.531325" style="stroke: #000000; stroke-width: 0.8"/>
      </g>
     </g>
     <g id="text_14">
      <!-- 2.0 -->
      <g transform="translate(30.105 103.089918) scale(0.12 -0.12)">
       <use xlink:href="#DejaVuSans-15"/>
       <use xlink:href="#DejaVuSans-11" transform="translate(63.625 0)"/>
       <use xlink:href="#DejaVuSans-13" transform="translate(95.40625 0)"/>
      </g>
     </g>
    </g>
    <g id="ytick_5">
     <g id="line2d_27">
      <path d="M 56.18875 52.507198 
L 427.54875 52.507198 
" clip-path="url(#pa71cc979e4)" style="fill: none; stroke: #b0b0b0; stroke-width: 0.8; stroke-linecap: square"/>
     </g>
     <g id="line2d_28">
      <g>
       <use xlink:href="#m07f4f99f6c" x="56.18875" y="52.507198" style="stroke: #000000; stroke-width: 0.8"/>
      </g>
     </g>
     <g id="text_15">
      <!-- 2.5 -->
      <g transform="translate(30.105 57.065791) scale(0.12 -0.12)">
       <use xlink:href="#DejaVuSans-15"/>
       <use xlink:href="#DejaVuSans-11" transform="translate(63.625 0)"/>
       <use xlink:href="#DejaVuSans-18" transform="translate(95.40625 0)"/>
      </g>
     </g>
    </g>
   </g>
   <g id="line2d_29">
    <path d="M 73.06875 232.001293 
L 74.760981 224.956244 
L 75.607096 221.00129 
L 76.453211 219.383963 
L 77.299326 219.897845 
L 78.145442 221.034025 
L 78.991557 222.600212 
L 79.837672 222.936161 
L 80.683788 222.220123 
L 81.529903 221.05455 
L 83.222133 219.183234 
L 84.068249 219.865021 
L 84.914364 221.078547 
L 86.606595 222.016923 
L 87.45271 221.988269 
L 88.298825 221.420895 
L 89.14494 220.200783 
L 90.837171 216.35059 
L 91.683286 213.881678 
L 92.529402 212.078616 
L 94.221632 207.833563 
L 96.759978 202.237597 
L 97.606093 200.331856 
L 98.452209 198.715302 
L 99.298324 197.85162 
L 100.144439 197.484989 
L 100.990555 196.65668 
L 101.83667 195.43454 
L 104.375016 190.089175 
L 106.067246 188.518134 
L 107.759477 187.150301 
L 109.451707 186.568456 
L 110.297823 185.985474 
L 111.143938 185.70766 
L 111.990053 185.248882 
L 113.682284 182.588716 
L 116.22063 177.11523 
L 117.066745 175.953414 
L 118.758976 172.936585 
L 120.451206 170.455852 
L 122.989552 167.25595 
L 123.835667 166.321396 
L 124.681783 165.067135 
L 126.374013 163.807781 
L 128.066244 160.789535 
L 128.912359 160.16986 
L 129.758474 159.033862 
L 133.989051 150.98068 
L 136.527397 145.721626 
L 137.373512 144.330784 
L 138.219627 142.551894 
L 139.911858 139.844045 
L 140.757973 138.834228 
L 141.604088 137.611718 
L 142.450204 136.064542 
L 143.296319 134.784387 
L 144.142434 132.984048 
L 146.68078 126.029858 
L 147.526895 124.144772 
L 149.219126 121.43289 
L 150.911357 118.051606 
L 153.449702 112.338997 
L 154.295818 110.1719 
L 155.141933 107.603429 
L 157.680279 101.272101 
L 158.526394 99.775158 
L 160.218625 96.335795 
L 161.06474 94.161651 
L 165.295316 85.950531 
L 166.141432 84.102161 
L 166.987547 81.939539 
L 167.833662 80.444915 
L 168.679778 79.472531 
L 170.372008 76.357332 
L 173.756469 69.354397 
L 175.4487 66.313611 
L 177.14093 64.383506 
L 177.987046 63.056537 
L 178.833161 62.093907 
L 179.679276 60.673043 
L 180.525392 59.542636 
L 183.909853 54.092448 
L 185.602083 52.483662 
L 188.986544 50.330279 
L 189.83266 49.41315 
L 193.217121 47.301108 
L 194.909352 46.913933 
L 195.755467 46.788279 
L 196.601582 46.478185 
L 198.293813 46.5163 
L 199.139928 46.535734 
L 203.370504 46.071276 
L 204.21662 46.2168 
L 205.062735 46.158529 
L 205.90885 46.252546 
L 206.754966 46.191214 
L 207.601081 46.313128 
L 210.139427 46.997268 
L 210.985542 47.075246 
L 215.216118 48.872235 
L 216.062234 49.390847 
L 216.908349 49.673246 
L 217.754464 50.299697 
L 218.60058 50.780297 
L 220.29281 52.308862 
L 221.138925 53.303346 
L 221.985041 54.12482 
L 222.831156 55.387235 
L 224.523387 58.64939 
L 225.369502 59.650534 
L 226.215617 60.371182 
L 227.061732 61.455317 
L 227.907848 62.106755 
L 228.753963 63.314652 
L 229.600078 63.539968 
L 230.446194 63.630587 
L 231.292309 63.945087 
L 232.138424 64.053433 
L 233.830655 62.743201 
L 234.67677 62.404942 
L 236.369001 60.808756 
L 237.215116 60.409411 
L 238.061231 59.837378 
L 240.599577 59.257946 
L 241.445692 59.621616 
L 245.676269 62.677421 
L 247.368499 62.387713 
L 249.06073 61.765819 
L 249.906845 61.883893 
L 250.752961 61.883394 
L 251.599076 62.213684 
L 252.445191 63.014856 
L 253.291306 64.041028 
L 254.137422 64.82896 
L 254.983537 65.232083 
L 256.675768 66.756889 
L 258.367998 67.47418 
L 260.060229 67.329488 
L 260.906344 66.982135 
L 262.598575 65.778898 
L 265.13692 64.887202 
L 266.829151 62.78576 
L 268.521382 62.118604 
L 270.213612 63.663349 
L 271.905843 63.452692 
L 273.598073 64.196122 
L 274.444189 64.786621 
L 275.290304 64.54962 
L 276.982534 64.873333 
L 277.82865 65.108817 
L 278.674765 65.057304 
L 279.52088 65.436966 
L 280.366996 66.024078 
L 282.059226 66.367585 
L 282.905341 66.821412 
L 283.751457 66.839102 
L 286.289803 64.817581 
L 287.135918 63.924365 
L 287.982033 62.861805 
L 288.828148 62.214383 
L 290.520379 62.024053 
L 291.366494 61.946252 
L 292.21261 62.314875 
L 293.058725 62.902829 
L 293.90484 62.494896 
L 294.750956 61.858773 
L 295.597071 61.815183 
L 296.443186 62.503124 
L 297.289301 62.465826 
L 298.135417 62.589294 
L 299.827647 61.872355 
L 300.673763 60.822698 
L 303.212108 57.038062 
L 304.904339 55.440468 
L 305.750454 54.357223 
L 306.59657 53.7063 
L 307.442685 52.875668 
L 308.2888 52.2496 
L 309.134915 51.819359 
L 309.981031 51.786334 
L 310.827146 51.458046 
L 311.673261 50.442725 
L 314.211607 46.440389 
L 315.057722 46.134778 
L 316.749953 45.056816 
L 317.596068 45.374134 
L 318.442184 45.851878 
L 320.134414 47.439978 
L 321.826645 47.612519 
L 322.67276 47.891601 
L 323.518875 47.00409 
L 324.364991 46.747063 
L 325.211106 46.37117 
L 327.749452 46.279088 
L 328.595567 45.896442 
L 329.441682 45.953296 
L 330.287798 45.65591 
L 331.133913 45.144988 
L 332.826143 45.23481 
L 334.518374 44.681996 
L 335.364489 44.005975 
L 337.902835 42.51918 
L 340.441181 40.624703 
L 342.133412 39.827441 
L 343.825642 39.893506 
L 344.671758 40.648206 
L 345.517873 41.126374 
L 346.363988 41.844153 
L 348.056219 43.912034 
L 351.44068 46.588695 
L 353.979026 46.995928 
L 354.825141 47.495852 
L 355.671256 48.470199 
L 356.517372 49.221883 
L 357.363487 49.393525 
L 359.055717 50.223574 
L 359.901833 50.846089 
L 360.747948 51.755501 
L 362.440179 52.799187 
L 364.132409 52.850375 
L 364.978524 53.307182 
L 365.82464 53.087178 
L 366.670755 52.567442 
L 367.51687 52.317179 
L 368.362986 52.244257 
L 369.209101 51.910273 
L 370.055216 51.293312 
L 370.901331 50.277503 
L 373.439677 44.904604 
L 375.131908 41.969968 
L 375.978023 41.639834 
L 376.824138 40.730534 
L 378.516369 38.434414 
L 379.362484 36.878178 
L 380.2086 35.86706 
L 381.90083 34.703101 
L 382.746945 34.540831 
L 384.439176 34.632522 
L 385.285291 34.47402 
L 386.977522 34.790668 
L 387.823637 35.148979 
L 388.669753 35.92541 
L 389.515868 37.054998 
L 391.208098 38.380346 
L 392.054214 39.331131 
L 392.900329 39.726568 
L 393.746444 39.961309 
L 394.59256 39.629404 
L 397.977021 39.25802 
L 398.823136 39.348955 
L 399.669251 38.965522 
L 400.515367 38.932058 
L 401.361482 39.17704 
L 402.207597 39.579604 
L 403.053712 40.14815 
L 404.745943 41.589896 
L 406.438174 42.045827 
L 408.130404 43.733483 
L 408.976519 44.549933 
L 409.822635 45.572164 
L 410.66875 46.792193 
L 410.66875 46.792193 
" clip-path="url(#pa71cc979e4)" style="fill: none; stroke: #1f77b4; stroke-width: 1.5; stroke-linecap: square"/>
   </g>
   <g id="patch_3">
    <path d="M 56.18875 241.877656 
L 56.18875 24.597656 
" style="fill: none; stroke: #000000; stroke-width: 0.8; stroke-linejoin: miter; stroke-linecap: square"/>
   </g>
   <g id="patch_4">
    <path d="M 427.54875 241.877656 
L 427.54875 24.597656 
" style="fill: none; stroke: #000000; stroke-width: 0.8; stroke-linejoin: miter; stroke-linecap: square"/>
   </g>
   <g id="patch_5">
    <path d="M 56.18875 241.877656 
L 427.54875 241.877656 
" style="fill: none; stroke: #000000; stroke-width: 0.8; stroke-linejoin: miter; stroke-linecap: square"/>
   </g>
   <g id="patch_6">
    <path d="M 56.18875 24.597656 
L 427.54875 24.597656 
" style="fill: none; stroke: #000000; stroke-width: 0.8; stroke-linejoin: miter; stroke-linecap: square"/>
   </g>
   <g id="text_16">
    <!-- beta_min -->
    <g transform="translate(207.064063 18.597656) scale(0.15 -0.15)">
     <defs>
      <path id="DejaVuSans-45" d="M 3116 1747 
Q 3116 2381 2855 2742 
Q 2594 3103 2138 3103 
Q 1681 3103 1420 2742 
Q 1159 2381 1159 1747 
Q 1159 1113 1420 752 
Q 1681 391 2138 391 
Q 2594 391 2855 752 
Q 3116 1113 3116 1747 
z
M 1159 2969 
Q 1341 3281 1617 3432 
Q 1894 3584 2278 3584 
Q 2916 3584 3314 3078 
Q 3713 2572 3713 1747 
Q 3713 922 3314 415 
Q 2916 -91 2278 -91 
Q 1894 -91 1617 61 
Q 1341 213 1159 525 
L 1159 0 
L 581 0 
L 581 4863 
L 1159 4863 
L 1159 2969 
z
" transform="scale(0.015625)"/>
      <path id="DejaVuSans-42" d="M 3263 -1063 
L 3263 -1509 
L -63 -1509 
L -63 -1063 
L 3263 -1063 
z
" transform="scale(0.015625)"/>
      <path id="DejaVuSans-50" d="M 3328 2828 
Q 3544 3216 3844 3400 
Q 4144 3584 4550 3584 
Q 5097 3584 5394 3201 
Q 5691 2819 5691 2113 
L 5691 0 
L 5113 0 
L 5113 2094 
Q 5113 2597 4934 2840 
Q 4756 3084 4391 3084 
Q 3944 3084 3684 2787 
Q 3425 2491 3425 1978 
L 3425 0 
L 2847 0 
L 2847 2094 
Q 2847 2600 2669 2842 
Q 2491 3084 2119 3084 
Q 1678 3084 1418 2786 
Q 1159 2488 1159 1978 
L 1159 0 
L 581 0 
L 581 3500 
L 1159 3500 
L 1159 2956 
Q 1356 3278 1631 3431 
Q 1906 3584 2284 3584 
Q 2666 3584 2933 3390 
Q 3200 3197 3328 2828 
z
" transform="scale(0.015625)"/>
     </defs>
     <use xlink:href="#DejaVuSans-45"/>
     <use xlink:href="#DejaVuSans-48" transform="translate(63.484375 0)"/>
     <use xlink:href="#DejaVuSans-57" transform="translate(125.015625 0)"/>
     <use xlink:href="#DejaVuSans-44" transform="translate(164.21875 0)"/>
     <use xlink:href="#DejaVuSans-42" transform="translate(225.5 0)"/>
     <use xlink:href="#DejaVuSans-50" transform="translate(275.5 0)"/>
     <use xlink:href="#DejaVuSans-4c" transform="translate(372.90625 0)"/>
     <use xlink:href="#DejaVuSans-51" transform="translate(400.6875 0)"/>
    </g>
   </g>
  </g>
  <g id="axes_2">
   <g id="patch_7">
    <path d="M 477.02875 241.877656 
L 848.38875 241.877656 
L 848.38875 24.597656 
L 477.02875 24.597656 
z
" style="fill: #ffffff"/>
   </g>
   <g id="matplotlib.axis_3">
    <g id="xtick_10">
     <g id="line2d_30">
      <path d="M 493.90875 241.877656 
L 493.90875 24.597656 
" clip-path="url(#pe6c17537f9)" style="fill: none; stroke: #b0b0b0; stroke-width: 0.8; stroke-linecap: square"/>
     </g>
     <g id="line2d_31">
      <g>
       <use xlink:href="#m47dfccf32e" x="493.90875" y="241.877656" style="stroke: #000000; stroke-width: 0.8"/>
      </g>
     </g>
     <g id="text_17">
      <!-- 0 -->
      <g transform="translate(490.09125 257.994844) scale(0.12 -0.12)">
       <use xlink:href="#DejaVuSans-13"/>
      </g>
     </g>
    </g>
    <g id="xtick_11">
     <g id="line2d_32">
      <path d="M 536.214514 241.877656 
L 536.214514 24.597656 
" clip-path="url(#pe6c17537f9)" style="fill: none; stroke: #b0b0b0; stroke-width: 0.8; stroke-linecap: square"/>
     </g>
     <g id="line2d_33">
      <g>
       <use xlink:href="#m47dfccf32e" x="536.214514" y="241.877656" style="stroke: #000000; stroke-width: 0.8"/>
      </g>
     </g>
     <g id="text_18">
      <!-- 50 -->
      <g transform="translate(528.579514 257.994844) scale(0.12 -0.12)">
       <use xlink:href="#DejaVuSans-18"/>
       <use xlink:href="#DejaVuSans-13" transform="translate(63.625 0)"/>
      </g>
     </g>
    </g>
    <g id="xtick_12">
     <g id="line2d_34">
      <path d="M 578.520279 241.877656 
L 578.520279 24.597656 
" clip-path="url(#pe6c17537f9)" style="fill: none; stroke: #b0b0b0; stroke-width: 0.8; stroke-linecap: square"/>
     </g>
     <g id="line2d_35">
      <g>
       <use xlink:href="#m47dfccf32e" x="578.520279" y="241.877656" style="stroke: #000000; stroke-width: 0.8"/>
      </g>
     </g>
     <g id="text_19">
      <!-- 100 -->
      <g transform="translate(567.067779 257.994844) scale(0.12 -0.12)">
       <use xlink:href="#DejaVuSans-14"/>
       <use xlink:href="#DejaVuSans-13" transform="translate(63.625 0)"/>
       <use xlink:href="#DejaVuSans-13" transform="translate(127.25 0)"/>
      </g>
     </g>
    </g>
    <g id="xtick_13">
     <g id="line2d_36">
      <path d="M 620.826043 241.877656 
L 620.826043 24.597656 
" clip-path="url(#pe6c17537f9)" style="fill: none; stroke: #b0b0b0; stroke-width: 0.8; stroke-linecap: square"/>
     </g>
     <g id="line2d_37">
      <g>
       <use xlink:href="#m47dfccf32e" x="620.826043" y="241.877656" style="stroke: #000000; stroke-width: 0.8"/>
      </g>
     </g>
     <g id="text_20">
      <!-- 150 -->
      <g transform="translate(609.373543 257.994844) scale(0.12 -0.12)">
       <use xlink:href="#DejaVuSans-14"/>
       <use xlink:href="#DejaVuSans-18" transform="translate(63.625 0)"/>
       <use xlink:href="#DejaVuSans-13" transform="translate(127.25 0)"/>
      </g>
     </g>
    </g>
    <g id="xtick_14">
     <g id="line2d_38">
      <path d="M 663.131808 241.877656 
L 663.131808 24.597656 
" clip-path="url(#pe6c17537f9)" style="fill: none; stroke: #b0b0b0; stroke-width: 0.8; stroke-linecap: square"/>
     </g>
     <g id="line2d_39">
      <g>
       <use xlink:href="#m47dfccf32e" x="663.131808" y="241.877656" style="stroke: #000000; stroke-width: 0.8"/>
      </g>
     </g>
     <g id="text_21">
      <!-- 200 -->
      <g transform="translate(651.679308 257.994844) scale(0.12 -0.12)">
       <use xlink:href="#DejaVuSans-15"/>
       <use xlink:href="#DejaVuSans-13" transform="translate(63.625 0)"/>
       <use xlink:href="#DejaVuSans-13" transform="translate(127.25 0)"/>
      </g>
     </g>
    </g>
    <g id="xtick_15">
     <g id="line2d_40">
      <path d="M 705.437572 241.877656 
L 705.437572 24.597656 
" clip-path="url(#pe6c17537f9)" style="fill: none; stroke: #b0b0b0; stroke-width: 0.8; stroke-linecap: square"/>
     </g>
     <g id="line2d_41">
      <g>
       <use xlink:href="#m47dfccf32e" x="705.437572" y="241.877656" style="stroke: #000000; stroke-width: 0.8"/>
      </g>
     </g>
     <g id="text_22">
      <!-- 250 -->
      <g transform="translate(693.985072 257.994844) scale(0.12 -0.12)">
       <use xlink:href="#DejaVuSans-15"/>
       <use xlink:href="#DejaVuSans-18" transform="translate(63.625 0)"/>
       <use xlink:href="#DejaVuSans-13" transform="translate(127.25 0)"/>
      </g>
     </g>
    </g>
    <g id="xtick_16">
     <g id="line2d_42">
      <path d="M 747.743336 241.877656 
L 747.743336 24.597656 
" clip-path="url(#pe6c17537f9)" style="fill: none; stroke: #b0b0b0; stroke-width: 0.8; stroke-linecap: square"/>
     </g>
     <g id="line2d_43">
      <g>
       <use xlink:href="#m47dfccf32e" x="747.743336" y="241.877656" style="stroke: #000000; stroke-width: 0.8"/>
      </g>
     </g>
     <g id="text_23">
      <!-- 300 -->
      <g transform="translate(736.290836 257.994844) scale(0.12 -0.12)">
       <use xlink:href="#DejaVuSans-16"/>
       <use xlink:href="#DejaVuSans-13" transform="translate(63.625 0)"/>
       <use xlink:href="#DejaVuSans-13" transform="translate(127.25 0)"/>
      </g>
     </g>
    </g>
    <g id="xtick_17">
     <g id="line2d_44">
      <path d="M 790.049101 241.877656 
L 790.049101 24.597656 
" clip-path="url(#pe6c17537f9)" style="fill: none; stroke: #b0b0b0; stroke-width: 0.8; stroke-linecap: square"/>
     </g>
     <g id="line2d_45">
      <g>
       <use xlink:href="#m47dfccf32e" x="790.049101" y="241.877656" style="stroke: #000000; stroke-width: 0.8"/>
      </g>
     </g>
     <g id="text_24">
      <!-- 350 -->
      <g transform="translate(778.596601 257.994844) scale(0.12 -0.12)">
       <use xlink:href="#DejaVuSans-16"/>
       <use xlink:href="#DejaVuSans-18" transform="translate(63.625 0)"/>
       <use xlink:href="#DejaVuSans-13" transform="translate(127.25 0)"/>
      </g>
     </g>
    </g>
    <g id="xtick_18">
     <g id="line2d_46">
      <path d="M 832.354865 241.877656 
L 832.354865 24.597656 
" clip-path="url(#pe6c17537f9)" style="fill: none; stroke: #b0b0b0; stroke-width: 0.8; stroke-linecap: square"/>
     </g>
     <g id="line2d_47">
      <g>
       <use xlink:href="#m47dfccf32e" x="832.354865" y="241.877656" style="stroke: #000000; stroke-width: 0.8"/>
      </g>
     </g>
     <g id="text_25">
      <!-- 400 -->
      <g transform="translate(820.902365 257.994844) scale(0.12 -0.12)">
       <use xlink:href="#DejaVuSans-17"/>
       <use xlink:href="#DejaVuSans-13" transform="translate(63.625 0)"/>
       <use xlink:href="#DejaVuSans-13" transform="translate(127.25 0)"/>
      </g>
     </g>
    </g>
    <g id="text_26">
     <!-- Iteration -->
     <g transform="translate(633.016719 275.515469) scale(0.14 -0.14)">
      <use xlink:href="#DejaVuSans-2c"/>
      <use xlink:href="#DejaVuSans-57" transform="translate(29.5 0)"/>
      <use xlink:href="#DejaVuSans-48" transform="translate(68.703125 0)"/>
      <use xlink:href="#DejaVuSans-55" transform="translate(130.234375 0)"/>
      <use xlink:href="#DejaVuSans-44" transform="translate(171.34375 0)"/>
      <use xlink:href="#DejaVuSans-57" transform="translate(232.625 0)"/>
      <use xlink:href="#DejaVuSans-4c" transform="translate(271.828125 0)"/>
      <use xlink:href="#DejaVuSans-52" transform="translate(299.609375 0)"/>
      <use xlink:href="#DejaVuSans-51" transform="translate(360.796875 0)"/>
     </g>
    </g>
   </g>
   <g id="matplotlib.axis_4">
    <g id="ytick_6">
     <g id="line2d_48">
      <path d="M 477.02875 203.52809 
L 848.38875 203.52809 
" clip-path="url(#pe6c17537f9)" style="fill: none; stroke: #b0b0b0; stroke-width: 0.8; stroke-linecap: square"/>
     </g>
     <g id="line2d_49">
      <g>
       <use xlink:href="#m07f4f99f6c" x="477.02875" y="203.52809" style="stroke: #000000; stroke-width: 0.8"/>
      </g>
     </g>
     <g id="text_27">
      <!-- 4 -->
      <g transform="translate(462.39375 208.086684) scale(0.12 -0.12)">
       <use xlink:href="#DejaVuSans-17"/>
      </g>
     </g>
    </g>
    <g id="ytick_7">
     <g id="line2d_50">
      <path d="M 477.02875 160.894335 
L 848.38875 160.894335 
" clip-path="url(#pe6c17537f9)" style="fill: none; stroke: #b0b0b0; stroke-width: 0.8; stroke-linecap: square"/>
     </g>
     <g id="line2d_51">
      <g>
       <use xlink:href="#m07f4f99f6c" x="477.02875" y="160.894335" style="stroke: #000000; stroke-width: 0.8"/>
      </g>
     </g>
     <g id="text_28">
      <!-- 5 -->
      <g transform="translate(462.39375 165.452928) scale(0.12 -0.12)">
       <use xlink:href="#DejaVuSans-18"/>
      </g>
     </g>
    </g>
    <g id="ytick_8">
     <g id="line2d_52">
      <path d="M 477.02875 118.260579 
L 848.38875 118.260579 
" clip-path="url(#pe6c17537f9)" style="fill: none; stroke: #b0b0b0; stroke-width: 0.8; stroke-linecap: square"/>
     </g>
     <g id="line2d_53">
      <g>
       <use xlink:href="#m07f4f99f6c" x="477.02875" y="118.260579" style="stroke: #000000; stroke-width: 0.8"/>
      </g>
     </g>
     <g id="text_29">
      <!-- 6 -->
      <g transform="translate(462.39375 122.819173) scale(0.12 -0.12)">
       <defs>
        <path id="DejaVuSans-19" d="M 2113 2584 
Q 1688 2584 1439 2293 
Q 1191 2003 1191 1497 
Q 1191 994 1439 701 
Q 1688 409 2113 409 
Q 2538 409 2786 701 
Q 3034 994 3034 1497 
Q 3034 2003 2786 2293 
Q 2538 2584 2113 2584 
z
M 3366 4563 
L 3366 3988 
Q 3128 4100 2886 4159 
Q 2644 4219 2406 4219 
Q 1781 4219 1451 3797 
Q 1122 3375 1075 2522 
Q 1259 2794 1537 2939 
Q 1816 3084 2150 3084 
Q 2853 3084 3261 2657 
Q 3669 2231 3669 1497 
Q 3669 778 3244 343 
Q 2819 -91 2113 -91 
Q 1303 -91 875 529 
Q 447 1150 447 2328 
Q 447 3434 972 4092 
Q 1497 4750 2381 4750 
Q 2619 4750 2861 4703 
Q 3103 4656 3366 4563 
z
" transform="scale(0.015625)"/>
       </defs>
       <use xlink:href="#DejaVuSans-19"/>
      </g>
     </g>
    </g>
    <g id="ytick_9">
     <g id="line2d_54">
      <path d="M 477.02875 75.626824 
L 848.38875 75.626824 
" clip-path="url(#pe6c17537f9)" style="fill: none; stroke: #b0b0b0; stroke-width: 0.8; stroke-linecap: square"/>
     </g>
     <g id="line2d_55">
      <g>
       <use xlink:href="#m07f4f99f6c" x="477.02875" y="75.626824" style="stroke: #000000; stroke-width: 0.8"/>
      </g>
     </g>
     <g id="text_30">
      <!-- 7 -->
      <g transform="translate(462.39375 80.185418) scale(0.12 -0.12)">
       <defs>
        <path id="DejaVuSans-1a" d="M 525 4666 
L 3525 4666 
L 3525 4397 
L 1831 0 
L 1172 0 
L 2766 4134 
L 525 4134 
L 525 4666 
z
" transform="scale(0.015625)"/>
       </defs>
       <use xlink:href="#DejaVuSans-1a"/>
      </g>
     </g>
    </g>
    <g id="ytick_10">
     <g id="line2d_56">
      <path d="M 477.02875 32.993068 
L 848.38875 32.993068 
" clip-path="url(#pe6c17537f9)" style="fill: none; stroke: #b0b0b0; stroke-width: 0.8; stroke-linecap: square"/>
     </g>
     <g id="line2d_57">
      <g>
       <use xlink:href="#m07f4f99f6c" x="477.02875" y="32.993068" style="stroke: #000000; stroke-width: 0.8"/>
      </g>
     </g>
     <g id="text_31">
      <!-- 8 -->
      <g transform="translate(462.39375 37.551662) scale(0.12 -0.12)">
       <defs>
        <path id="DejaVuSans-1b" d="M 2034 2216 
Q 1584 2216 1326 1975 
Q 1069 1734 1069 1313 
Q 1069 891 1326 650 
Q 1584 409 2034 409 
Q 2484 409 2743 651 
Q 3003 894 3003 1313 
Q 3003 1734 2745 1975 
Q 2488 2216 2034 2216 
z
M 1403 2484 
Q 997 2584 770 2862 
Q 544 3141 544 3541 
Q 544 4100 942 4425 
Q 1341 4750 2034 4750 
Q 2731 4750 3128 4425 
Q 3525 4100 3525 3541 
Q 3525 3141 3298 2862 
Q 3072 2584 2669 2484 
Q 3125 2378 3379 2068 
Q 3634 1759 3634 1313 
Q 3634 634 3220 271 
Q 2806 -91 2034 -91 
Q 1263 -91 848 271 
Q 434 634 434 1313 
Q 434 1759 690 2068 
Q 947 2378 1403 2484 
z
M 1172 3481 
Q 1172 3119 1398 2916 
Q 1625 2713 2034 2713 
Q 2441 2713 2670 2916 
Q 2900 3119 2900 3481 
Q 2900 3844 2670 4047 
Q 2441 4250 2034 4250 
Q 1625 4250 1398 4047 
Q 1172 3844 1172 3481 
z
" transform="scale(0.015625)"/>
       </defs>
       <use xlink:href="#DejaVuSans-1b"/>
      </g>
     </g>
    </g>
   </g>
   <g id="line2d_58">
    <path d="M 493.90875 35.124756 
L 494.754865 35.650187 
L 496.447096 34.558034 
L 497.293211 34.47402 
L 498.985442 36.136173 
L 499.831557 36.664518 
L 500.677672 36.874974 
L 502.369903 36.72813 
L 503.216018 36.414158 
L 504.062133 36.69708 
L 504.908249 37.239774 
L 505.754364 38.241785 
L 506.600479 39.447369 
L 507.446595 40.923178 
L 509.98494 44.318793 
L 512.523286 47.584458 
L 514.215517 50.197601 
L 515.907747 52.984837 
L 522.67667 63.395187 
L 524.3689 66.522205 
L 525.215016 67.80181 
L 526.907246 71.202579 
L 530.291707 78.678968 
L 533.676169 84.284947 
L 536.214514 88.762076 
L 537.06063 90.527359 
L 541.291206 98.11798 
L 544.675667 106.037526 
L 547.214013 110.882405 
L 548.060128 112.284822 
L 548.906244 113.950673 
L 550.598474 116.66909 
L 553.13682 120.540974 
L 554.829051 123.143784 
L 556.521281 124.646993 
L 558.213512 126.223735 
L 560.751858 128.778622 
L 563.290204 132.029454 
L 564.982434 134.406815 
L 566.674665 136.112019 
L 568.366895 137.378888 
L 569.213011 137.83166 
L 570.905241 138.583088 
L 571.751357 139.037384 
L 575.135818 142.357389 
L 577.674164 142.430704 
L 578.520279 142.911308 
L 580.212509 144.478145 
L 582.750855 148.318915 
L 584.443086 151.53163 
L 586.981432 155.281887 
L 588.673662 157.57698 
L 590.365893 160.301638 
L 591.212008 161.984639 
L 592.058123 163.310249 
L 592.904239 164.922136 
L 594.596469 166.857099 
L 596.2887 168.057674 
L 597.98093 169.817577 
L 599.673161 171.009768 
L 600.519276 171.7253 
L 601.365392 172.083151 
L 603.057622 173.112579 
L 604.749853 174.434633 
L 607.288199 176.769488 
L 608.134314 177.160598 
L 612.36489 181.308492 
L 614.057121 183.54563 
L 615.749352 186.285703 
L 618.287697 188.951385 
L 619.133813 190.107769 
L 622.518274 196.444239 
L 623.364389 197.841849 
L 625.05662 199.697925 
L 626.74885 201.440215 
L 627.594966 201.560247 
L 628.441081 201.524586 
L 629.287196 201.921494 
L 633.517773 206.444477 
L 635.210003 208.739309 
L 636.056118 210.224708 
L 636.902234 212.212707 
L 638.594464 215.178138 
L 640.286695 217.386726 
L 641.978925 220.67786 
L 642.825041 221.406787 
L 644.517271 221.430384 
L 645.363387 220.962801 
L 647.901732 218.329008 
L 649.593963 215.996064 
L 650.440078 214.947864 
L 651.286194 214.140297 
L 652.132309 213.535475 
L 652.978424 213.139054 
L 653.824539 212.912011 
L 654.670655 212.382796 
L 655.51677 212.352954 
L 656.362885 212.186974 
L 657.209001 212.2282 
L 658.055116 212.706185 
L 658.901231 213.327045 
L 661.439577 216.195738 
L 662.285692 216.561888 
L 663.131808 217.181728 
L 664.824038 218.758631 
L 665.670154 219.821422 
L 666.516269 220.43483 
L 667.362384 220.900701 
L 668.208499 221.57454 
L 669.054615 221.906053 
L 670.746845 221.364046 
L 671.592961 221.023902 
L 672.439076 221.037451 
L 673.285191 221.405721 
L 674.131306 222.048367 
L 675.823537 223.112881 
L 677.515768 224.356564 
L 678.361883 224.448518 
L 679.207998 225.154715 
L 680.054113 226.054611 
L 680.900229 226.528957 
L 681.746344 226.666561 
L 682.592459 226.360983 
L 684.28469 225.024554 
L 685.130805 224.27272 
L 686.823036 221.784238 
L 688.515266 219.206388 
L 689.361382 217.433497 
L 691.053612 215.259023 
L 691.899727 214.053998 
L 693.591958 213.064177 
L 694.438073 212.457493 
L 695.284189 212.038672 
L 696.130304 211.319912 
L 696.976419 210.823833 
L 699.514765 210.304014 
L 700.36088 209.910104 
L 701.206996 209.761 
L 702.053111 209.02307 
L 703.745341 207.981486 
L 704.591457 207.782106 
L 706.283687 206.520868 
L 707.975918 205.827995 
L 708.822033 205.207208 
L 709.668148 205.103669 
L 710.514264 205.327781 
L 712.206494 205.362857 
L 713.05261 205.777927 
L 716.437071 208.090402 
L 717.283186 208.724199 
L 718.129301 209.063865 
L 719.821532 209.176709 
L 721.513763 210.078027 
L 722.359878 210.45429 
L 723.205993 210.509417 
L 724.052108 210.422976 
L 724.898224 210.449219 
L 726.590454 209.387126 
L 728.282685 207.710805 
L 729.1288 207.077404 
L 729.974915 206.988789 
L 731.667146 207.126306 
L 733.359377 207.54141 
L 734.205492 207.481337 
L 735.051607 207.614806 
L 735.897722 207.632729 
L 737.589953 207.199846 
L 741.820529 204.816339 
L 742.666645 204.19971 
L 743.51276 203.847112 
L 744.358875 203.748419 
L 745.204991 203.533056 
L 746.051106 203.732191 
L 747.743336 204.271941 
L 749.435567 204.685047 
L 750.281682 204.888585 
L 751.127798 205.234157 
L 751.973913 205.761786 
L 752.820028 206.567879 
L 753.666143 207.714893 
L 756.204489 209.910529 
L 757.89672 211.278185 
L 758.742835 211.749401 
L 760.435066 212.206101 
L 761.281181 212.323087 
L 762.127296 212.238501 
L 762.973412 212.497643 
L 765.511758 214.344893 
L 766.357873 214.67615 
L 768.050103 215.903582 
L 768.896219 216.539144 
L 769.742334 216.852824 
L 771.434565 218.678388 
L 772.28068 219.638017 
L 773.126795 220.175199 
L 774.819026 222.162436 
L 775.665141 222.69854 
L 777.357372 224.621188 
L 778.203487 224.920078 
L 779.895717 225.044705 
L 780.741833 225.159963 
L 783.280179 226.788733 
L 784.126294 227.078435 
L 784.972409 227.487192 
L 785.818524 228.422917 
L 788.35687 230.608883 
L 789.202986 231.391047 
L 790.049101 232.001293 
L 790.895216 231.972651 
L 793.433562 230.667391 
L 795.125793 230.093145 
L 796.818023 229.217292 
L 798.510254 226.16933 
L 800.202484 223.092136 
L 802.74083 220.444616 
L 803.586945 219.437219 
L 804.433061 218.109051 
L 806.125291 214.880585 
L 806.971407 213.757866 
L 810.355868 210.46261 
L 812.048098 209.517369 
L 813.740329 209.078714 
L 816.278675 208.968826 
L 817.12479 208.977837 
L 817.970905 208.862088 
L 818.817021 208.561492 
L 819.663136 208.545693 
L 820.509251 208.873942 
L 822.201482 209.148643 
L 823.893712 209.860001 
L 824.739828 210.42721 
L 825.585943 211.335969 
L 826.432058 212.036662 
L 827.278174 212.906453 
L 828.970404 215.06583 
L 829.816519 216.264699 
L 831.50875 217.946724 
L 831.50875 217.946724 
" clip-path="url(#pe6c17537f9)" style="fill: none; stroke: #1f77b4; stroke-width: 1.5; stroke-linecap: square"/>
   </g>
   <g id="patch_8">
    <path d="M 477.02875 241.877656 
L 477.02875 24.597656 
" style="fill: none; stroke: #000000; stroke-width: 0.8; stroke-linejoin: miter; stroke-linecap: square"/>
   </g>
   <g id="patch_9">
    <path d="M 848.38875 241.877656 
L 848.38875 24.597656 
" style="fill: none; stroke: #000000; stroke-width: 0.8; stroke-linejoin: miter; stroke-linecap: square"/>
   </g>
   <g id="patch_10">
    <path d="M 477.02875 241.877656 
L 848.38875 241.877656 
" style="fill: none; stroke: #000000; stroke-width: 0.8; stroke-linejoin: miter; stroke-linecap: square"/>
   </g>
   <g id="patch_11">
    <path d="M 477.02875 24.597656 
L 848.38875 24.597656 
" style="fill: none; stroke: #000000; stroke-width: 0.8; stroke-linejoin: miter; stroke-linecap: square"/>
   </g>
   <g id="text_32">
    <!-- beta_max -->
    <g transform="translate(625.705625 18.597656) scale(0.15 -0.15)">
     <defs>
      <path id="DejaVuSans-5b" d="M 3513 3500 
L 2247 1797 
L 3578 0 
L 2900 0 
L 1881 1375 
L 863 0 
L 184 0 
L 1544 1831 
L 300 3500 
L 978 3500 
L 1906 2253 
L 2834 3500 
L 3513 3500 
z
" transform="scale(0.015625)"/>
     </defs>
     <use xlink:href="#DejaVuSans-45"/>
     <use xlink:href="#DejaVuSans-48" transform="translate(63.484375 0)"/>
     <use xlink:href="#DejaVuSans-57" transform="translate(125.015625 0)"/>
     <use xlink:href="#DejaVuSans-44" transform="translate(164.21875 0)"/>
     <use xlink:href="#DejaVuSans-42" transform="translate(225.5 0)"/>
     <use xlink:href="#DejaVuSans-50" transform="translate(275.5 0)"/>
     <use xlink:href="#DejaVuSans-44" transform="translate(372.90625 0)"/>
     <use xlink:href="#DejaVuSans-5b" transform="translate(434.1875 0)"/>
    </g>
   </g>
  </g>
  <g id="axes_3">
   <g id="patch_12">
    <path d="M 56.18875 524.477656 
L 427.54875 524.477656 
L 427.54875 307.197656 
L 56.18875 307.197656 
z
" style="fill: #ffffff"/>
   </g>
   <g id="matplotlib.axis_5">
    <g id="xtick_19">
     <g id="line2d_59">
      <path d="M 73.06875 524.477656 
L 73.06875 307.197656 
" clip-path="url(#p660a368e27)" style="fill: none; stroke: #b0b0b0; stroke-width: 0.8; stroke-linecap: square"/>
     </g>
     <g id="line2d_60">
      <g>
       <use xlink:href="#m47dfccf32e" x="73.06875" y="524.477656" style="stroke: #000000; stroke-width: 0.8"/>
      </g>
     </g>
     <g id="text_33">
      <!-- 0 -->
      <g transform="translate(69.25125 540.594844) scale(0.12 -0.12)">
       <use xlink:href="#DejaVuSans-13"/>
      </g>
     </g>
    </g>
    <g id="xtick_20">
     <g id="line2d_61">
      <path d="M 115.374514 524.477656 
L 115.374514 307.197656 
" clip-path="url(#p660a368e27)" style="fill: none; stroke: #b0b0b0; stroke-width: 0.8; stroke-linecap: square"/>
     </g>
     <g id="line2d_62">
      <g>
       <use xlink:href="#m47dfccf32e" x="115.374514" y="524.477656" style="stroke: #000000; stroke-width: 0.8"/>
      </g>
     </g>
     <g id="text_34">
      <!-- 50 -->
      <g transform="translate(107.739514 540.594844) scale(0.12 -0.12)">
       <use xlink:href="#DejaVuSans-18"/>
       <use xlink:href="#DejaVuSans-13" transform="translate(63.625 0)"/>
      </g>
     </g>
    </g>
    <g id="xtick_21">
     <g id="line2d_63">
      <path d="M 157.680279 524.477656 
L 157.680279 307.197656 
" clip-path="url(#p660a368e27)" style="fill: none; stroke: #b0b0b0; stroke-width: 0.8; stroke-linecap: square"/>
     </g>
     <g id="line2d_64">
      <g>
       <use xlink:href="#m47dfccf32e" x="157.680279" y="524.477656" style="stroke: #000000; stroke-width: 0.8"/>
      </g>
     </g>
     <g id="text_35">
      <!-- 100 -->
      <g transform="translate(146.227779 540.594844) scale(0.12 -0.12)">
       <use xlink:href="#DejaVuSans-14"/>
       <use xlink:href="#DejaVuSans-13" transform="translate(63.625 0)"/>
       <use xlink:href="#DejaVuSans-13" transform="translate(127.25 0)"/>
      </g>
     </g>
    </g>
    <g id="xtick_22">
     <g id="line2d_65">
      <path d="M 199.986043 524.477656 
L 199.986043 307.197656 
" clip-path="url(#p660a368e27)" style="fill: none; stroke: #b0b0b0; stroke-width: 0.8; stroke-linecap: square"/>
     </g>
     <g id="line2d_66">
      <g>
       <use xlink:href="#m47dfccf32e" x="199.986043" y="524.477656" style="stroke: #000000; stroke-width: 0.8"/>
      </g>
     </g>
     <g id="text_36">
      <!-- 150 -->
      <g transform="translate(188.533543 540.594844) scale(0.12 -0.12)">
       <use xlink:href="#DejaVuSans-14"/>
       <use xlink:href="#DejaVuSans-18" transform="translate(63.625 0)"/>
       <use xlink:href="#DejaVuSans-13" transform="translate(127.25 0)"/>
      </g>
     </g>
    </g>
    <g id="xtick_23">
     <g id="line2d_67">
      <path d="M 242.291808 524.477656 
L 242.291808 307.197656 
" clip-path="url(#p660a368e27)" style="fill: none; stroke: #b0b0b0; stroke-width: 0.8; stroke-linecap: square"/>
     </g>
     <g id="line2d_68">
      <g>
       <use xlink:href="#m47dfccf32e" x="242.291808" y="524.477656" style="stroke: #000000; stroke-width: 0.8"/>
      </g>
     </g>
     <g id="text_37">
      <!-- 200 -->
      <g transform="translate(230.839308 540.594844) scale(0.12 -0.12)">
       <use xlink:href="#DejaVuSans-15"/>
       <use xlink:href="#DejaVuSans-13" transform="translate(63.625 0)"/>
       <use xlink:href="#DejaVuSans-13" transform="translate(127.25 0)"/>
      </g>
     </g>
    </g>
    <g id="xtick_24">
     <g id="line2d_69">
      <path d="M 284.597572 524.477656 
L 284.597572 307.197656 
" clip-path="url(#p660a368e27)" style="fill: none; stroke: #b0b0b0; stroke-width: 0.8; stroke-linecap: square"/>
     </g>
     <g id="line2d_70">
      <g>
       <use xlink:href="#m47dfccf32e" x="284.597572" y="524.477656" style="stroke: #000000; stroke-width: 0.8"/>
      </g>
     </g>
     <g id="text_38">
      <!-- 250 -->
      <g transform="translate(273.145072 540.594844) scale(0.12 -0.12)">
       <use xlink:href="#DejaVuSans-15"/>
       <use xlink:href="#DejaVuSans-18" transform="translate(63.625 0)"/>
       <use xlink:href="#DejaVuSans-13" transform="translate(127.25 0)"/>
      </g>
     </g>
    </g>
    <g id="xtick_25">
     <g id="line2d_71">
      <path d="M 326.903336 524.477656 
L 326.903336 307.197656 
" clip-path="url(#p660a368e27)" style="fill: none; stroke: #b0b0b0; stroke-width: 0.8; stroke-linecap: square"/>
     </g>
     <g id="line2d_72">
      <g>
       <use xlink:href="#m47dfccf32e" x="326.903336" y="524.477656" style="stroke: #000000; stroke-width: 0.8"/>
      </g>
     </g>
     <g id="text_39">
      <!-- 300 -->
      <g transform="translate(315.450836 540.594844) scale(0.12 -0.12)">
       <use xlink:href="#DejaVuSans-16"/>
       <use xlink:href="#DejaVuSans-13" transform="translate(63.625 0)"/>
       <use xlink:href="#DejaVuSans-13" transform="translate(127.25 0)"/>
      </g>
     </g>
    </g>
    <g id="xtick_26">
     <g id="line2d_73">
      <path d="M 369.209101 524.477656 
L 369.209101 307.197656 
" clip-path="url(#p660a368e27)" style="fill: none; stroke: #b0b0b0; stroke-width: 0.8; stroke-linecap: square"/>
     </g>
     <g id="line2d_74">
      <g>
       <use xlink:href="#m47dfccf32e" x="369.209101" y="524.477656" style="stroke: #000000; stroke-width: 0.8"/>
      </g>
     </g>
     <g id="text_40">
      <!-- 350 -->
      <g transform="translate(357.756601 540.594844) scale(0.12 -0.12)">
       <use xlink:href="#DejaVuSans-16"/>
       <use xlink:href="#DejaVuSans-18" transform="translate(63.625 0)"/>
       <use xlink:href="#DejaVuSans-13" transform="translate(127.25 0)"/>
      </g>
     </g>
    </g>
    <g id="xtick_27">
     <g id="line2d_75">
      <path d="M 411.514865 524.477656 
L 411.514865 307.197656 
" clip-path="url(#p660a368e27)" style="fill: none; stroke: #b0b0b0; stroke-width: 0.8; stroke-linecap: square"/>
     </g>
     <g id="line2d_76">
      <g>
       <use xlink:href="#m47dfccf32e" x="411.514865" y="524.477656" style="stroke: #000000; stroke-width: 0.8"/>
      </g>
     </g>
     <g id="text_41">
      <!-- 400 -->
      <g transform="translate(400.062365 540.594844) scale(0.12 -0.12)">
       <use xlink:href="#DejaVuSans-17"/>
       <use xlink:href="#DejaVuSans-13" transform="translate(63.625 0)"/>
       <use xlink:href="#DejaVuSans-13" transform="translate(127.25 0)"/>
      </g>
     </g>
    </g>
    <g id="text_42">
     <!-- Iteration -->
     <g transform="translate(212.176719 558.115469) scale(0.14 -0.14)">
      <use xlink:href="#DejaVuSans-2c"/>
      <use xlink:href="#DejaVuSans-57" transform="translate(29.5 0)"/>
      <use xlink:href="#DejaVuSans-48" transform="translate(68.703125 0)"/>
      <use xlink:href="#DejaVuSans-55" transform="translate(130.234375 0)"/>
      <use xlink:href="#DejaVuSans-44" transform="translate(171.34375 0)"/>
      <use xlink:href="#DejaVuSans-57" transform="translate(232.625 0)"/>
      <use xlink:href="#DejaVuSans-4c" transform="translate(271.828125 0)"/>
      <use xlink:href="#DejaVuSans-52" transform="translate(299.609375 0)"/>
      <use xlink:href="#DejaVuSans-51" transform="translate(360.796875 0)"/>
     </g>
    </g>
   </g>
   <g id="matplotlib.axis_6">
    <g id="ytick_11">
     <g id="line2d_77">
      <path d="M 56.18875 523.241565 
L 427.54875 523.241565 
" clip-path="url(#p660a368e27)" style="fill: none; stroke: #b0b0b0; stroke-width: 0.8; stroke-linecap: square"/>
     </g>
     <g id="line2d_78">
      <g>
       <use xlink:href="#m07f4f99f6c" x="56.18875" y="523.241565" style="stroke: #000000; stroke-width: 0.8"/>
      </g>
     </g>
     <g id="text_43">
      <!-- 0.0008 -->
      <g transform="translate(7.2 527.800159) scale(0.12 -0.12)">
       <use xlink:href="#DejaVuSans-13"/>
       <use xlink:href="#DejaVuSans-11" transform="translate(63.625 0)"/>
       <use xlink:href="#DejaVuSans-13" transform="translate(95.40625 0)"/>
       <use xlink:href="#DejaVuSans-13" transform="translate(159.03125 0)"/>
       <use xlink:href="#DejaVuSans-13" transform="translate(222.65625 0)"/>
       <use xlink:href="#DejaVuSans-1b" transform="translate(286.28125 0)"/>
      </g>
     </g>
    </g>
    <g id="ytick_12">
     <g id="line2d_79">
      <path d="M 56.18875 488.591557 
L 427.54875 488.591557 
" clip-path="url(#p660a368e27)" style="fill: none; stroke: #b0b0b0; stroke-width: 0.8; stroke-linecap: square"/>
     </g>
     <g id="line2d_80">
      <g>
       <use xlink:href="#m07f4f99f6c" x="56.18875" y="488.591557" style="stroke: #000000; stroke-width: 0.8"/>
      </g>
     </g>
     <g id="text_44">
      <!-- 0.0010 -->
      <g transform="translate(7.2 493.150151) scale(0.12 -0.12)">
       <use xlink:href="#DejaVuSans-13"/>
       <use xlink:href="#DejaVuSans-11" transform="translate(63.625 0)"/>
       <use xlink:href="#DejaVuSans-13" transform="translate(95.40625 0)"/>
       <use xlink:href="#DejaVuSans-13" transform="translate(159.03125 0)"/>
       <use xlink:href="#DejaVuSans-14" transform="translate(222.65625 0)"/>
       <use xlink:href="#DejaVuSans-13" transform="translate(286.28125 0)"/>
      </g>
     </g>
    </g>
    <g id="ytick_13">
     <g id="line2d_81">
      <path d="M 56.18875 453.94155 
L 427.54875 453.94155 
" clip-path="url(#p660a368e27)" style="fill: none; stroke: #b0b0b0; stroke-width: 0.8; stroke-linecap: square"/>
     </g>
     <g id="line2d_82">
      <g>
       <use xlink:href="#m07f4f99f6c" x="56.18875" y="453.94155" style="stroke: #000000; stroke-width: 0.8"/>
      </g>
     </g>
     <g id="text_45">
      <!-- 0.0012 -->
      <g transform="translate(7.2 458.500144) scale(0.12 -0.12)">
       <use xlink:href="#DejaVuSans-13"/>
       <use xlink:href="#DejaVuSans-11" transform="translate(63.625 0)"/>
       <use xlink:href="#DejaVuSans-13" transform="translate(95.40625 0)"/>
       <use xlink:href="#DejaVuSans-13" transform="translate(159.03125 0)"/>
       <use xlink:href="#DejaVuSans-14" transform="translate(222.65625 0)"/>
       <use xlink:href="#DejaVuSans-15" transform="translate(286.28125 0)"/>
      </g>
     </g>
    </g>
    <g id="ytick_14">
     <g id="line2d_83">
      <path d="M 56.18875 419.291542 
L 427.54875 419.291542 
" clip-path="url(#p660a368e27)" style="fill: none; stroke: #b0b0b0; stroke-width: 0.8; stroke-linecap: square"/>
     </g>
     <g id="line2d_84">
      <g>
       <use xlink:href="#m07f4f99f6c" x="56.18875" y="419.291542" style="stroke: #000000; stroke-width: 0.8"/>
      </g>
     </g>
     <g id="text_46">
      <!-- 0.0014 -->
      <g transform="translate(7.2 423.850136) scale(0.12 -0.12)">
       <use xlink:href="#DejaVuSans-13"/>
       <use xlink:href="#DejaVuSans-11" transform="translate(63.625 0)"/>
       <use xlink:href="#DejaVuSans-13" transform="translate(95.40625 0)"/>
       <use xlink:href="#DejaVuSans-13" transform="translate(159.03125 0)"/>
       <use xlink:href="#DejaVuSans-14" transform="translate(222.65625 0)"/>
       <use xlink:href="#DejaVuSans-17" transform="translate(286.28125 0)"/>
      </g>
     </g>
    </g>
    <g id="ytick_15">
     <g id="line2d_85">
      <path d="M 56.18875 384.641535 
L 427.54875 384.641535 
" clip-path="url(#p660a368e27)" style="fill: none; stroke: #b0b0b0; stroke-width: 0.8; stroke-linecap: square"/>
     </g>
     <g id="line2d_86">
      <g>
       <use xlink:href="#m07f4f99f6c" x="56.18875" y="384.641535" style="stroke: #000000; stroke-width: 0.8"/>
      </g>
     </g>
     <g id="text_47">
      <!-- 0.0016 -->
      <g transform="translate(7.2 389.200128) scale(0.12 -0.12)">
       <use xlink:href="#DejaVuSans-13"/>
       <use xlink:href="#DejaVuSans-11" transform="translate(63.625 0)"/>
       <use xlink:href="#DejaVuSans-13" transform="translate(95.40625 0)"/>
       <use xlink:href="#DejaVuSans-13" transform="translate(159.03125 0)"/>
       <use xlink:href="#DejaVuSans-14" transform="translate(222.65625 0)"/>
       <use xlink:href="#DejaVuSans-19" transform="translate(286.28125 0)"/>
      </g>
     </g>
    </g>
    <g id="ytick_16">
     <g id="line2d_87">
      <path d="M 56.18875 349.991527 
L 427.54875 349.991527 
" clip-path="url(#p660a368e27)" style="fill: none; stroke: #b0b0b0; stroke-width: 0.8; stroke-linecap: square"/>
     </g>
     <g id="line2d_88">
      <g>
       <use xlink:href="#m07f4f99f6c" x="56.18875" y="349.991527" style="stroke: #000000; stroke-width: 0.8"/>
      </g>
     </g>
     <g id="text_48">
      <!-- 0.0018 -->
      <g transform="translate(7.2 354.550121) scale(0.12 -0.12)">
       <use xlink:href="#DejaVuSans-13"/>
       <use xlink:href="#DejaVuSans-11" transform="translate(63.625 0)"/>
       <use xlink:href="#DejaVuSans-13" transform="translate(95.40625 0)"/>
       <use xlink:href="#DejaVuSans-13" transform="translate(159.03125 0)"/>
       <use xlink:href="#DejaVuSans-14" transform="translate(222.65625 0)"/>
       <use xlink:href="#DejaVuSans-1b" transform="translate(286.28125 0)"/>
      </g>
     </g>
    </g>
    <g id="ytick_17">
     <g id="line2d_89">
      <path d="M 56.18875 315.34152 
L 427.54875 315.34152 
" clip-path="url(#p660a368e27)" style="fill: none; stroke: #b0b0b0; stroke-width: 0.8; stroke-linecap: square"/>
     </g>
     <g id="line2d_90">
      <g>
       <use xlink:href="#m07f4f99f6c" x="56.18875" y="315.34152" style="stroke: #000000; stroke-width: 0.8"/>
      </g>
     </g>
     <g id="text_49">
      <!-- 0.0020 -->
      <g transform="translate(7.2 319.900113) scale(0.12 -0.12)">
       <use xlink:href="#DejaVuSans-13"/>
       <use xlink:href="#DejaVuSans-11" transform="translate(63.625 0)"/>
       <use xlink:href="#DejaVuSans-13" transform="translate(95.40625 0)"/>
       <use xlink:href="#DejaVuSans-13" transform="translate(159.03125 0)"/>
       <use xlink:href="#DejaVuSans-15" transform="translate(222.65625 0)"/>
       <use xlink:href="#DejaVuSans-13" transform="translate(286.28125 0)"/>
      </g>
     </g>
    </g>
   </g>
   <g id="line2d_91">
    <path d="M 73.06875 317.07402 
L 75.607096 322.271521 
L 76.453211 323.157888 
L 77.299326 323.485336 
L 78.145442 324.082104 
L 78.991557 324.878286 
L 80.683788 326.896638 
L 82.376018 329.307523 
L 83.222133 330.617818 
L 84.068249 331.533575 
L 84.914364 332.115845 
L 86.606595 333.683855 
L 87.45271 334.632886 
L 89.14494 336.035364 
L 90.837171 337.87536 
L 91.683286 338.926984 
L 93.375517 340.531088 
L 95.067747 342.511963 
L 97.606093 345.658052 
L 99.298324 347.654755 
L 100.144439 348.764815 
L 101.83667 350.493989 
L 102.682785 351.489484 
L 106.067246 354.267774 
L 106.913362 354.703124 
L 107.759477 354.919063 
L 108.605592 354.938035 
L 109.451707 354.780145 
L 110.297823 354.812959 
L 111.143938 354.667843 
L 111.990053 354.711826 
L 112.836169 354.925742 
L 113.682284 355.292391 
L 115.374514 356.423702 
L 117.066745 358.000185 
L 119.605091 360.670369 
L 121.297321 362.42813 
L 122.989552 364.510884 
L 128.066244 371.206423 
L 129.758474 372.937837 
L 131.450705 374.998851 
L 132.29682 376.132869 
L 133.989051 377.915879 
L 136.527397 380.823747 
L 140.757973 383.710181 
L 142.450204 385.370126 
L 144.142434 387.373079 
L 147.526895 391.813118 
L 149.219126 393.25022 
L 150.911357 395.072646 
L 152.603587 397.207176 
L 155.141933 400.867579 
L 158.526394 406.029114 
L 164.449201 413.922748 
L 166.141432 415.767515 
L 166.987547 416.809286 
L 167.833662 417.573627 
L 169.525893 418.724723 
L 171.218123 420.315464 
L 173.756469 423.001103 
L 175.4487 424.108505 
L 177.14093 425.663852 
L 177.987046 426.582237 
L 182.217622 429.886274 
L 183.063737 430.728917 
L 183.909853 431.314045 
L 184.755968 431.66741 
L 185.602083 432.158688 
L 186.448199 432.427589 
L 187.294314 432.84285 
L 188.986544 434.055371 
L 189.83266 434.827604 
L 191.52489 435.992197 
L 192.371006 436.743997 
L 193.217121 437.247367 
L 194.063236 437.52715 
L 194.909352 437.605705 
L 195.755467 437.849654 
L 196.601582 438.242458 
L 197.447697 438.422732 
L 198.293813 438.411728 
L 199.139928 438.228575 
L 199.986043 437.890487 
L 200.832159 437.759458 
L 201.678274 437.468282 
L 202.524389 437.379473 
L 203.370504 437.472795 
L 204.21662 437.383535 
L 205.062735 437.476452 
L 205.90885 437.386826 
L 206.754966 437.132913 
L 207.601081 437.077641 
L 208.447196 437.201147 
L 209.293311 437.139052 
L 210.139427 436.909916 
L 210.985542 436.876944 
L 211.831657 436.674019 
L 212.677773 436.664637 
L 213.523888 436.829443 
L 214.370003 436.804518 
L 215.216118 436.955336 
L 216.062234 436.917822 
L 216.908349 437.057309 
L 217.754464 437.009598 
L 218.60058 436.793408 
L 219.446695 436.772086 
L 220.29281 436.926147 
L 221.138925 437.238052 
L 221.985041 437.692017 
L 222.831156 437.927335 
L 223.677271 437.965871 
L 224.523387 438.173803 
L 225.369502 438.187693 
L 226.215617 438.373443 
L 227.061732 438.367368 
L 227.907848 438.535151 
L 228.753963 438.512906 
L 229.600078 438.666135 
L 230.446194 438.977291 
L 231.292309 439.084082 
L 232.138424 439.353443 
L 232.984539 439.769118 
L 233.830655 440.316476 
L 234.67677 440.635848 
L 235.522885 441.096533 
L 236.369001 441.6844 
L 237.215116 442.04023 
L 238.061231 442.187226 
L 238.907346 442.146273 
L 239.753462 442.282666 
L 240.599577 442.578669 
L 241.445692 442.671822 
L 242.291808 442.582409 
L 243.137923 442.675188 
L 243.984038 442.585439 
L 244.830154 442.677915 
L 245.676269 442.587893 
L 246.522384 442.680123 
L 247.368499 442.936381 
L 248.214615 443.340263 
L 249.906845 444.533325 
L 255.829652 449.842352 
L 256.675768 450.248637 
L 257.521883 450.441043 
L 258.367998 450.787459 
L 260.060229 451.882255 
L 260.906344 452.604299 
L 261.752459 453.080889 
L 262.598575 453.33657 
L 263.44469 453.393433 
L 264.290805 453.61786 
L 265.13692 453.646594 
L 265.983036 453.845705 
L 266.829151 454.198154 
L 267.675266 454.342109 
L 268.521382 454.644918 
L 269.367497 454.744196 
L 270.213612 454.660296 
L 271.059727 454.758037 
L 271.905843 455.019253 
L 272.751958 455.081098 
L 273.598073 454.963508 
L 274.444189 454.684427 
L 275.290304 454.606504 
L 276.136419 454.709624 
L 276.982534 454.975681 
L 277.82865 455.388383 
L 278.674765 455.933065 
L 279.52088 456.250029 
L 280.366996 456.362046 
L 281.213111 456.636111 
L 282.059226 457.05602 
L 282.905341 457.260688 
L 283.751457 457.61814 
L 285.443687 458.731806 
L 286.289803 459.461896 
L 287.982033 460.554424 
L 288.828148 461.275502 
L 291.366494 462.720628 
L 292.21261 462.878586 
L 293.058725 463.193997 
L 293.90484 463.651118 
L 294.750956 464.235776 
L 295.597071 464.588719 
L 296.443186 464.733117 
L 297.289301 465.036326 
L 298.135417 465.135963 
L 298.981532 465.398887 
L 299.827647 465.808769 
L 301.519878 467.012091 
L 303.212108 468.645133 
L 304.904339 470.626247 
L 305.750454 471.726142 
L 309.134915 474.848206 
L 310.827146 475.979911 
L 312.519377 477.554942 
L 315.057722 480.222431 
L 317.596068 482.636538 
L 318.442184 483.055155 
L 319.288299 483.25866 
L 320.134414 483.615065 
L 322.67276 485.195521 
L 323.518875 485.79074 
L 324.364991 486.152936 
L 325.211106 486.652407 
L 326.057221 486.928432 
L 326.903336 487.35035 
L 330.287798 489.566878 
L 331.133913 489.898435 
L 331.980028 490.023345 
L 332.826143 489.962273 
L 333.672259 490.080797 
L 334.518374 490.360956 
L 335.364489 490.439611 
L 336.210605 490.683886 
L 337.05672 491.077218 
L 337.902835 491.257731 
L 338.748951 491.593675 
L 339.595066 491.72254 
L 342.133412 492.670065 
L 342.979527 492.753416 
L 343.825642 492.654475 
L 344.671758 492.391475 
L 345.517873 492.32873 
L 346.363988 492.446209 
L 347.210103 492.377992 
L 348.056219 492.142654 
L 349.748449 492.165093 
L 350.594565 492.393519 
L 351.44068 492.773252 
L 353.979026 494.32806 
L 354.825141 494.51432 
L 355.671256 494.507812 
L 356.517372 494.327821 
L 357.363487 494.339963 
L 358.209602 494.176762 
L 359.055717 493.855759 
L 359.901833 493.740983 
L 360.747948 493.811806 
L 361.594063 494.049662 
L 362.440179 494.437842 
L 365.82464 496.553132 
L 369.209101 499.138302 
L 370.055216 499.539861 
L 371.747447 500.731349 
L 374.285793 502.959716 
L 375.131908 503.327255 
L 375.978023 503.483968 
L 376.824138 503.450942 
L 377.670254 503.582901 
L 378.516369 503.875762 
L 379.362484 504.313429 
L 380.2086 504.533229 
L 381.054715 504.556955 
L 381.90083 504.413013 
L 382.746945 504.109353 
L 383.593061 504.010174 
L 384.439176 504.095023 
L 385.285291 504.345491 
L 386.131407 504.74501 
L 386.977522 505.278672 
L 387.823637 505.584863 
L 388.669753 505.686336 
L 389.515868 505.60357 
L 392.054214 505.903876 
L 392.900329 506.246311 
L 394.59256 507.33733 
L 395.438675 508.059294 
L 397.130905 509.136953 
L 398.823136 510.672107 
L 399.669251 511.583383 
L 400.515367 512.229239 
L 402.207597 513.020291 
L 403.053712 513.191405 
L 403.899828 513.170871 
L 404.745943 513.32692 
L 405.592058 513.641886 
L 406.438174 514.09987 
L 407.284289 514.337529 
L 408.130404 514.376904 
L 408.976519 514.586851 
L 409.822635 514.601293 
L 410.66875 514.439788 
L 410.66875 514.439788 
" clip-path="url(#p660a368e27)" style="fill: none; stroke: #1f77b4; stroke-width: 1.5; stroke-linecap: square"/>
   </g>
   <g id="patch_13">
    <path d="M 56.18875 524.477656 
L 56.18875 307.197656 
" style="fill: none; stroke: #000000; stroke-width: 0.8; stroke-linejoin: miter; stroke-linecap: square"/>
   </g>
   <g id="patch_14">
    <path d="M 427.54875 524.477656 
L 427.54875 307.197656 
" style="fill: none; stroke: #000000; stroke-width: 0.8; stroke-linejoin: miter; stroke-linecap: square"/>
   </g>
   <g id="patch_15">
    <path d="M 56.18875 524.477656 
L 427.54875 524.477656 
" style="fill: none; stroke: #000000; stroke-width: 0.8; stroke-linejoin: miter; stroke-linecap: square"/>
   </g>
   <g id="patch_16">
    <path d="M 56.18875 307.197656 
L 427.54875 307.197656 
" style="fill: none; stroke: #000000; stroke-width: 0.8; stroke-linejoin: miter; stroke-linecap: square"/>
   </g>
   <g id="text_50">
    <!-- k (steepness) -->
    <g transform="translate(191.269531 301.197656) scale(0.15 -0.15)">
     <defs>
      <path id="DejaVuSans-4e" d="M 581 4863 
L 1159 4863 
L 1159 1991 
L 2875 3500 
L 3609 3500 
L 1753 1863 
L 3688 0 
L 2938 0 
L 1159 1709 
L 1159 0 
L 581 0 
L 581 4863 
z
" transform="scale(0.015625)"/>
      <path id="DejaVuSans-3" transform="scale(0.015625)"/>
      <path id="DejaVuSans-b" d="M 1984 4856 
Q 1566 4138 1362 3434 
Q 1159 2731 1159 2009 
Q 1159 1288 1364 580 
Q 1569 -128 1984 -844 
L 1484 -844 
Q 1016 -109 783 600 
Q 550 1309 550 2009 
Q 550 2706 781 3412 
Q 1013 4119 1484 4856 
L 1984 4856 
z
" transform="scale(0.015625)"/>
      <path id="DejaVuSans-56" d="M 2834 3397 
L 2834 2853 
Q 2591 2978 2328 3040 
Q 2066 3103 1784 3103 
Q 1356 3103 1142 2972 
Q 928 2841 928 2578 
Q 928 2378 1081 2264 
Q 1234 2150 1697 2047 
L 1894 2003 
Q 2506 1872 2764 1633 
Q 3022 1394 3022 966 
Q 3022 478 2636 193 
Q 2250 -91 1575 -91 
Q 1294 -91 989 -36 
Q 684 19 347 128 
L 347 722 
Q 666 556 975 473 
Q 1284 391 1588 391 
Q 1994 391 2212 530 
Q 2431 669 2431 922 
Q 2431 1156 2273 1281 
Q 2116 1406 1581 1522 
L 1381 1569 
Q 847 1681 609 1914 
Q 372 2147 372 2553 
Q 372 3047 722 3315 
Q 1072 3584 1716 3584 
Q 2034 3584 2315 3537 
Q 2597 3491 2834 3397 
z
" transform="scale(0.015625)"/>
      <path id="DejaVuSans-53" d="M 1159 525 
L 1159 -1331 
L 581 -1331 
L 581 3500 
L 1159 3500 
L 1159 2969 
Q 1341 3281 1617 3432 
Q 1894 3584 2278 3584 
Q 2916 3584 3314 3078 
Q 3713 2572 3713 1747 
Q 3713 922 3314 415 
Q 2916 -91 2278 -91 
Q 1894 -91 1617 61 
Q 1341 213 1159 525 
z
M 3116 1747 
Q 3116 2381 2855 2742 
Q 2594 3103 2138 3103 
Q 1681 3103 1420 2742 
Q 1159 2381 1159 1747 
Q 1159 1113 1420 752 
Q 1681 391 2138 391 
Q 2594 391 2855 752 
Q 3116 1113 3116 1747 
z
" transform="scale(0.015625)"/>
      <path id="DejaVuSans-c" d="M 513 4856 
L 1013 4856 
Q 1481 4119 1714 3412 
Q 1947 2706 1947 2009 
Q 1947 1309 1714 600 
Q 1481 -109 1013 -844 
L 513 -844 
Q 928 -128 1133 580 
Q 1338 1288 1338 2009 
Q 1338 2731 1133 3434 
Q 928 4138 513 4856 
z
" transform="scale(0.015625)"/>
     </defs>
     <use xlink:href="#DejaVuSans-4e"/>
     <use xlink:href="#DejaVuSans-3" transform="translate(57.90625 0)"/>
     <use xlink:href="#DejaVuSans-b" transform="translate(89.6875 0)"/>
     <use xlink:href="#DejaVuSans-56" transform="translate(128.703125 0)"/>
     <use xlink:href="#DejaVuSans-57" transform="translate(180.796875 0)"/>
     <use xlink:href="#DejaVuSans-48" transform="translate(220 0)"/>
     <use xlink:href="#DejaVuSans-48" transform="translate(281.53125 0)"/>
     <use xlink:href="#DejaVuSans-53" transform="translate(343.0625 0)"/>
     <use xlink:href="#DejaVuSans-51" transform="translate(406.546875 0)"/>
     <use xlink:href="#DejaVuSans-48" transform="translate(469.921875 0)"/>
     <use xlink:href="#DejaVuSans-56" transform="translate(531.453125 0)"/>
     <use xlink:href="#DejaVuSans-56" transform="translate(583.546875 0)"/>
     <use xlink:href="#DejaVuSans-c" transform="translate(635.640625 0)"/>
    </g>
   </g>
  </g>
  <g id="axes_4">
   <g id="patch_17">
    <path d="M 477.02875 524.477656 
L 848.38875 524.477656 
L 848.38875 307.197656 
L 477.02875 307.197656 
z
" style="fill: #ffffff"/>
   </g>
   <g id="matplotlib.axis_7">
    <g id="xtick_28">
     <g id="line2d_92">
      <path d="M 493.90875 524.477656 
L 493.90875 307.197656 
" clip-path="url(#p894af99ea3)" style="fill: none; stroke: #b0b0b0; stroke-width: 0.8; stroke-linecap: square"/>
     </g>
     <g id="line2d_93">
      <g>
       <use xlink:href="#m47dfccf32e" x="493.90875" y="524.477656" style="stroke: #000000; stroke-width: 0.8"/>
      </g>
     </g>
     <g id="text_51">
      <!-- 0 -->
      <g transform="translate(490.09125 540.594844) scale(0.12 -0.12)">
       <use xlink:href="#DejaVuSans-13"/>
      </g>
     </g>
    </g>
    <g id="xtick_29">
     <g id="line2d_94">
      <path d="M 536.214514 524.477656 
L 536.214514 307.197656 
" clip-path="url(#p894af99ea3)" style="fill: none; stroke: #b0b0b0; stroke-width: 0.8; stroke-linecap: square"/>
     </g>
     <g id="line2d_95">
      <g>
       <use xlink:href="#m47dfccf32e" x="536.214514" y="524.477656" style="stroke: #000000; stroke-width: 0.8"/>
      </g>
     </g>
     <g id="text_52">
      <!-- 50 -->
      <g transform="translate(528.579514 540.594844) scale(0.12 -0.12)">
       <use xlink:href="#DejaVuSans-18"/>
       <use xlink:href="#DejaVuSans-13" transform="translate(63.625 0)"/>
      </g>
     </g>
    </g>
    <g id="xtick_30">
     <g id="line2d_96">
      <path d="M 578.520279 524.477656 
L 578.520279 307.197656 
" clip-path="url(#p894af99ea3)" style="fill: none; stroke: #b0b0b0; stroke-width: 0.8; stroke-linecap: square"/>
     </g>
     <g id="line2d_97">
      <g>
       <use xlink:href="#m47dfccf32e" x="578.520279" y="524.477656" style="stroke: #000000; stroke-width: 0.8"/>
      </g>
     </g>
     <g id="text_53">
      <!-- 100 -->
      <g transform="translate(567.067779 540.594844) scale(0.12 -0.12)">
       <use xlink:href="#DejaVuSans-14"/>
       <use xlink:href="#DejaVuSans-13" transform="translate(63.625 0)"/>
       <use xlink:href="#DejaVuSans-13" transform="translate(127.25 0)"/>
      </g>
     </g>
    </g>
    <g id="xtick_31">
     <g id="line2d_98">
      <path d="M 620.826043 524.477656 
L 620.826043 307.197656 
" clip-path="url(#p894af99ea3)" style="fill: none; stroke: #b0b0b0; stroke-width: 0.8; stroke-linecap: square"/>
     </g>
     <g id="line2d_99">
      <g>
       <use xlink:href="#m47dfccf32e" x="620.826043" y="524.477656" style="stroke: #000000; stroke-width: 0.8"/>
      </g>
     </g>
     <g id="text_54">
      <!-- 150 -->
      <g transform="translate(609.373543 540.594844) scale(0.12 -0.12)">
       <use xlink:href="#DejaVuSans-14"/>
       <use xlink:href="#DejaVuSans-18" transform="translate(63.625 0)"/>
       <use xlink:href="#DejaVuSans-13" transform="translate(127.25 0)"/>
      </g>
     </g>
    </g>
    <g id="xtick_32">
     <g id="line2d_100">
      <path d="M 663.131808 524.477656 
L 663.131808 307.197656 
" clip-path="url(#p894af99ea3)" style="fill: none; stroke: #b0b0b0; stroke-width: 0.8; stroke-linecap: square"/>
     </g>
     <g id="line2d_101">
      <g>
       <use xlink:href="#m47dfccf32e" x="663.131808" y="524.477656" style="stroke: #000000; stroke-width: 0.8"/>
      </g>
     </g>
     <g id="text_55">
      <!-- 200 -->
      <g transform="translate(651.679308 540.594844) scale(0.12 -0.12)">
       <use xlink:href="#DejaVuSans-15"/>
       <use xlink:href="#DejaVuSans-13" transform="translate(63.625 0)"/>
       <use xlink:href="#DejaVuSans-13" transform="translate(127.25 0)"/>
      </g>
     </g>
    </g>
    <g id="xtick_33">
     <g id="line2d_102">
      <path d="M 705.437572 524.477656 
L 705.437572 307.197656 
" clip-path="url(#p894af99ea3)" style="fill: none; stroke: #b0b0b0; stroke-width: 0.8; stroke-linecap: square"/>
     </g>
     <g id="line2d_103">
      <g>
       <use xlink:href="#m47dfccf32e" x="705.437572" y="524.477656" style="stroke: #000000; stroke-width: 0.8"/>
      </g>
     </g>
     <g id="text_56">
      <!-- 250 -->
      <g transform="translate(693.985072 540.594844) scale(0.12 -0.12)">
       <use xlink:href="#DejaVuSans-15"/>
       <use xlink:href="#DejaVuSans-18" transform="translate(63.625 0)"/>
       <use xlink:href="#DejaVuSans-13" transform="translate(127.25 0)"/>
      </g>
     </g>
    </g>
    <g id="xtick_34">
     <g id="line2d_104">
      <path d="M 747.743336 524.477656 
L 747.743336 307.197656 
" clip-path="url(#p894af99ea3)" style="fill: none; stroke: #b0b0b0; stroke-width: 0.8; stroke-linecap: square"/>
     </g>
     <g id="line2d_105">
      <g>
       <use xlink:href="#m47dfccf32e" x="747.743336" y="524.477656" style="stroke: #000000; stroke-width: 0.8"/>
      </g>
     </g>
     <g id="text_57">
      <!-- 300 -->
      <g transform="translate(736.290836 540.594844) scale(0.12 -0.12)">
       <use xlink:href="#DejaVuSans-16"/>
       <use xlink:href="#DejaVuSans-13" transform="translate(63.625 0)"/>
       <use xlink:href="#DejaVuSans-13" transform="translate(127.25 0)"/>
      </g>
     </g>
    </g>
    <g id="xtick_35">
     <g id="line2d_106">
      <path d="M 790.049101 524.477656 
L 790.049101 307.197656 
" clip-path="url(#p894af99ea3)" style="fill: none; stroke: #b0b0b0; stroke-width: 0.8; stroke-linecap: square"/>
     </g>
     <g id="line2d_107">
      <g>
       <use xlink:href="#m47dfccf32e" x="790.049101" y="524.477656" style="stroke: #000000; stroke-width: 0.8"/>
      </g>
     </g>
     <g id="text_58">
      <!-- 350 -->
      <g transform="translate(778.596601 540.594844) scale(0.12 -0.12)">
       <use xlink:href="#DejaVuSans-16"/>
       <use xlink:href="#DejaVuSans-18" transform="translate(63.625 0)"/>
       <use xlink:href="#DejaVuSans-13" transform="translate(127.25 0)"/>
      </g>
     </g>
    </g>
    <g id="xtick_36">
     <g id="line2d_108">
      <path d="M 832.354865 524.477656 
L 832.354865 307.197656 
" clip-path="url(#p894af99ea3)" style="fill: none; stroke: #b0b0b0; stroke-width: 0.8; stroke-linecap: square"/>
     </g>
     <g id="line2d_109">
      <g>
       <use xlink:href="#m47dfccf32e" x="832.354865" y="524.477656" style="stroke: #000000; stroke-width: 0.8"/>
      </g>
     </g>
     <g id="text_59">
      <!-- 400 -->
      <g transform="translate(820.902365 540.594844) scale(0.12 -0.12)">
       <use xlink:href="#DejaVuSans-17"/>
       <use xlink:href="#DejaVuSans-13" transform="translate(63.625 0)"/>
       <use xlink:href="#DejaVuSans-13" transform="translate(127.25 0)"/>
      </g>
     </g>
    </g>
    <g id="text_60">
     <!-- Iteration -->
     <g transform="translate(633.016719 558.115469) scale(0.14 -0.14)">
      <use xlink:href="#DejaVuSans-2c"/>
      <use xlink:href="#DejaVuSans-57" transform="translate(29.5 0)"/>
      <use xlink:href="#DejaVuSans-48" transform="translate(68.703125 0)"/>
      <use xlink:href="#DejaVuSans-55" transform="translate(130.234375 0)"/>
      <use xlink:href="#DejaVuSans-44" transform="translate(171.34375 0)"/>
      <use xlink:href="#DejaVuSans-57" transform="translate(232.625 0)"/>
      <use xlink:href="#DejaVuSans-4c" transform="translate(271.828125 0)"/>
      <use xlink:href="#DejaVuSans-52" transform="translate(299.609375 0)"/>
      <use xlink:href="#DejaVuSans-51" transform="translate(360.796875 0)"/>
     </g>
    </g>
   </g>
   <g id="matplotlib.axis_8">
    <g id="ytick_18">
     <g id="line2d_110">
      <path d="M 477.02875 509.546613 
L 848.38875 509.546613 
" clip-path="url(#p894af99ea3)" style="fill: none; stroke: #b0b0b0; stroke-width: 0.8; stroke-linecap: square"/>
     </g>
     <g id="line2d_111">
      <g>
       <use xlink:href="#m07f4f99f6c" x="477.02875" y="509.546613" style="stroke: #000000; stroke-width: 0.8"/>
      </g>
     </g>
     <g id="text_61">
      <!-- 4900 -->
      <g transform="translate(439.48875 514.105206) scale(0.12 -0.12)">
       <defs>
        <path id="DejaVuSans-1c" d="M 703 97 
L 703 672 
Q 941 559 1184 500 
Q 1428 441 1663 441 
Q 2288 441 2617 861 
Q 2947 1281 2994 2138 
Q 2813 1869 2534 1725 
Q 2256 1581 1919 1581 
Q 1219 1581 811 2004 
Q 403 2428 403 3163 
Q 403 3881 828 4315 
Q 1253 4750 1959 4750 
Q 2769 4750 3195 4129 
Q 3622 3509 3622 2328 
Q 3622 1225 3098 567 
Q 2575 -91 1691 -91 
Q 1453 -91 1209 -44 
Q 966 3 703 97 
z
M 1959 2075 
Q 2384 2075 2632 2365 
Q 2881 2656 2881 3163 
Q 2881 3666 2632 3958 
Q 2384 4250 1959 4250 
Q 1534 4250 1286 3958 
Q 1038 3666 1038 3163 
Q 1038 2656 1286 2365 
Q 1534 2075 1959 2075 
z
" transform="scale(0.015625)"/>
       </defs>
       <use xlink:href="#DejaVuSans-17"/>
       <use xlink:href="#DejaVuSans-1c" transform="translate(63.625 0)"/>
       <use xlink:href="#DejaVuSans-13" transform="translate(127.25 0)"/>
       <use xlink:href="#DejaVuSans-13" transform="translate(190.875 0)"/>
      </g>
     </g>
    </g>
    <g id="ytick_19">
     <g id="line2d_112">
      <path d="M 477.02875 466.466196 
L 848.38875 466.466196 
" clip-path="url(#p894af99ea3)" style="fill: none; stroke: #b0b0b0; stroke-width: 0.8; stroke-linecap: square"/>
     </g>
     <g id="line2d_113">
      <g>
       <use xlink:href="#m07f4f99f6c" x="477.02875" y="466.466196" style="stroke: #000000; stroke-width: 0.8"/>
      </g>
     </g>
     <g id="text_62">
      <!-- 5000 -->
      <g transform="translate(439.48875 471.024789) scale(0.12 -0.12)">
       <use xlink:href="#DejaVuSans-18"/>
       <use xlink:href="#DejaVuSans-13" transform="translate(63.625 0)"/>
       <use xlink:href="#DejaVuSans-13" transform="translate(127.25 0)"/>
       <use xlink:href="#DejaVuSans-13" transform="translate(190.875 0)"/>
      </g>
     </g>
    </g>
    <g id="ytick_20">
     <g id="line2d_114">
      <path d="M 477.02875 423.385779 
L 848.38875 423.385779 
" clip-path="url(#p894af99ea3)" style="fill: none; stroke: #b0b0b0; stroke-width: 0.8; stroke-linecap: square"/>
     </g>
     <g id="line2d_115">
      <g>
       <use xlink:href="#m07f4f99f6c" x="477.02875" y="423.385779" style="stroke: #000000; stroke-width: 0.8"/>
      </g>
     </g>
     <g id="text_63">
      <!-- 5100 -->
      <g transform="translate(439.48875 427.944372) scale(0.12 -0.12)">
       <use xlink:href="#DejaVuSans-18"/>
       <use xlink:href="#DejaVuSans-14" transform="translate(63.625 0)"/>
       <use xlink:href="#DejaVuSans-13" transform="translate(127.25 0)"/>
       <use xlink:href="#DejaVuSans-13" transform="translate(190.875 0)"/>
      </g>
     </g>
    </g>
    <g id="ytick_21">
     <g id="line2d_116">
      <path d="M 477.02875 380.305362 
L 848.38875 380.305362 
" clip-path="url(#p894af99ea3)" style="fill: none; stroke: #b0b0b0; stroke-width: 0.8; stroke-linecap: square"/>
     </g>
     <g id="line2d_117">
      <g>
       <use xlink:href="#m07f4f99f6c" x="477.02875" y="380.305362" style="stroke: #000000; stroke-width: 0.8"/>
      </g>
     </g>
     <g id="text_64">
      <!-- 5200 -->
      <g transform="translate(439.48875 384.863955) scale(0.12 -0.12)">
       <use xlink:href="#DejaVuSans-18"/>
       <use xlink:href="#DejaVuSans-15" transform="translate(63.625 0)"/>
       <use xlink:href="#DejaVuSans-13" transform="translate(127.25 0)"/>
       <use xlink:href="#DejaVuSans-13" transform="translate(190.875 0)"/>
      </g>
     </g>
    </g>
    <g id="ytick_22">
     <g id="line2d_118">
      <path d="M 477.02875 337.224945 
L 848.38875 337.224945 
" clip-path="url(#p894af99ea3)" style="fill: none; stroke: #b0b0b0; stroke-width: 0.8; stroke-linecap: square"/>
     </g>
     <g id="line2d_119">
      <g>
       <use xlink:href="#m07f4f99f6c" x="477.02875" y="337.224945" style="stroke: #000000; stroke-width: 0.8"/>
      </g>
     </g>
     <g id="text_65">
      <!-- 5300 -->
      <g transform="translate(439.48875 341.783538) scale(0.12 -0.12)">
       <use xlink:href="#DejaVuSans-18"/>
       <use xlink:href="#DejaVuSans-16" transform="translate(63.625 0)"/>
       <use xlink:href="#DejaVuSans-13" transform="translate(127.25 0)"/>
       <use xlink:href="#DejaVuSans-13" transform="translate(190.875 0)"/>
      </g>
     </g>
    </g>
   </g>
   <g id="line2d_120">
    <path d="M 493.90875 457.850229 
L 494.754865 460.201457 
L 496.447096 470.898126 
L 497.293211 473.951759 
L 498.139326 473.305825 
L 498.985442 474.262896 
L 499.831557 476.755149 
L 500.677672 479.670217 
L 502.369903 488.781088 
L 503.216018 493.901245 
L 504.062133 497.77271 
L 504.908249 500.333754 
L 505.754364 501.166151 
L 506.600479 501.233177 
L 507.446595 500.38738 
L 508.29271 500.258656 
L 509.138825 499.930864 
L 509.98494 499.863816 
L 510.831056 500.458433 
L 511.677171 501.679325 
L 512.523286 503.168488 
L 513.369402 504.245395 
L 514.215517 505.117872 
L 515.061632 505.207908 
L 515.907747 506.327139 
L 517.599978 508.97462 
L 518.446093 509.160117 
L 519.292209 509.755921 
L 520.984439 512.000476 
L 522.67667 513.429646 
L 523.522785 513.87989 
L 524.3689 513.866258 
L 525.215016 514.601293 
L 526.061131 513.311283 
L 526.907246 511.792998 
L 527.753362 509.642691 
L 528.599477 506.845038 
L 529.445592 502.970192 
L 530.291707 500.113842 
L 531.137823 498.778947 
L 531.983938 496.650544 
L 532.830053 495.771547 
L 533.676169 495.260601 
L 535.368399 493.369905 
L 536.214514 491.571911 
L 537.906745 487.158407 
L 539.598976 483.371494 
L 544.675667 467.839535 
L 545.521783 466.44887 
L 546.367898 465.493534 
L 547.214013 463.650957 
L 548.060128 462.861568 
L 548.906244 461.532012 
L 549.752359 459.959964 
L 550.598474 458.716665 
L 551.44459 457.822656 
L 553.13682 455.677634 
L 554.829051 451.771768 
L 555.675166 451.472077 
L 557.367397 451.248735 
L 559.059627 450.057139 
L 559.905742 448.888268 
L 560.751858 448.259072 
L 562.444088 447.60517 
L 563.290204 448.292782 
L 564.982434 448.777535 
L 565.828549 449.764933 
L 567.52078 452.298275 
L 572.597472 460.213717 
L 573.443587 461.035452 
L 575.135818 463.481829 
L 575.981933 465.399514 
L 577.674164 468.596348 
L 578.520279 469.758504 
L 580.212509 470.802998 
L 581.90474 469.664414 
L 582.750855 468.526799 
L 583.596971 467.036631 
L 584.443086 465.778105 
L 586.135316 463.806459 
L 586.981432 462.336652 
L 587.827547 461.131406 
L 589.519778 457.798527 
L 591.212008 453.905362 
L 592.058123 452.298901 
L 592.904239 450.389886 
L 594.596469 447.259347 
L 595.442585 445.672972 
L 597.134815 442.870745 
L 597.98093 441.401503 
L 600.519276 437.794057 
L 601.365392 436.859809 
L 602.211507 436.251958 
L 603.057622 435.789804 
L 604.749853 434.416417 
L 608.134314 430.580088 
L 608.980429 429.862748 
L 609.826544 429.313625 
L 611.518775 428.523494 
L 612.36489 428.466524 
L 613.211006 428.257463 
L 614.903236 426.942004 
L 615.749352 425.959547 
L 618.287697 424.017647 
L 621.672159 420.18402 
L 623.364389 418.707995 
L 626.74885 417.30829 
L 628.441081 417.075313 
L 629.287196 416.998284 
L 630.133311 416.391102 
L 635.210003 413.690462 
L 636.056118 412.955418 
L 636.902234 411.932368 
L 638.594464 410.379417 
L 639.44058 409.891821 
L 640.286695 409.539726 
L 641.978925 408.377002 
L 642.825041 408.050789 
L 643.671156 407.860276 
L 644.517271 407.350044 
L 645.363387 407.168782 
L 647.901732 407.109504 
L 650.440078 408.599018 
L 651.286194 408.976131 
L 652.132309 409.155562 
L 652.978424 409.520969 
L 653.824539 409.733712 
L 655.51677 410.853066 
L 657.209001 412.017172 
L 658.901231 412.007762 
L 661.439577 410.928247 
L 663.131808 410.429091 
L 663.977923 410.041838 
L 665.670154 409.486415 
L 666.516269 408.866139 
L 667.362384 408.466513 
L 669.054615 407.405205 
L 669.90073 407.192535 
L 672.439076 405.713895 
L 675.823537 402.417021 
L 677.515768 399.654319 
L 680.054113 395.178662 
L 680.900229 394.019464 
L 682.592459 392.605832 
L 683.438575 392.184719 
L 685.130805 391.023315 
L 685.97692 390.600649 
L 688.515266 390.262587 
L 689.361382 390.346467 
L 690.207497 389.929655 
L 691.053612 389.650823 
L 691.899727 389.507836 
L 692.745843 389.061885 
L 693.591958 388.312636 
L 695.284189 387.736667 
L 696.130304 387.841057 
L 696.976419 387.759971 
L 698.66865 386.681765 
L 700.36088 386.629389 
L 701.206996 386.308527 
L 702.053111 386.739511 
L 704.591457 387.710168 
L 706.283687 389.307188 
L 708.822033 390.881545 
L 709.668148 390.874155 
L 710.514264 390.6227 
L 712.206494 390.573445 
L 713.898725 388.741976 
L 715.590956 387.911821 
L 717.283186 386.584497 
L 718.129301 386.204291 
L 718.975417 386.190455 
L 719.821532 386.394384 
L 720.667647 386.274731 
L 721.513763 386.557865 
L 722.359878 386.691257 
L 724.052108 387.690468 
L 724.898224 387.931205 
L 725.744339 388.367164 
L 727.43657 389.556043 
L 728.282685 390.276746 
L 729.1288 390.696524 
L 729.974915 390.813496 
L 730.821031 390.525275 
L 731.667146 390.407709 
L 732.513261 390.477799 
L 733.359377 390.715054 
L 734.205492 391.12338 
L 735.051607 391.186565 
L 735.897722 390.956619 
L 737.589953 391.087345 
L 738.436068 390.938203 
L 739.282184 390.607804 
L 740.974414 389.541664 
L 743.51276 389.368469 
L 744.358875 389.134943 
L 745.204991 388.76311 
L 747.743336 386.048005 
L 749.435567 384.731255 
L 751.127798 383.175822 
L 751.973913 382.196501 
L 753.666143 379.730651 
L 756.204489 377.062152 
L 758.742835 374.710043 
L 761.281181 373.400678 
L 762.973412 372.855286 
L 763.819527 372.255909 
L 764.665642 371.482065 
L 765.511758 370.498099 
L 766.357873 369.702973 
L 767.203988 368.680582 
L 768.896219 366.394662 
L 769.742334 365.459471 
L 771.434565 362.886238 
L 774.819026 358.219429 
L 775.665141 357.198008 
L 777.357372 354.412959 
L 778.203487 353.457519 
L 779.895717 352.018506 
L 780.741833 351.33071 
L 784.126294 347.640227 
L 784.972409 347.074457 
L 785.818524 345.949629 
L 787.510755 344.139364 
L 789.202986 342.890472 
L 790.049101 342.166275 
L 790.895216 341.77739 
L 791.741331 341.521721 
L 793.433562 341.585391 
L 795.971908 341.302906 
L 796.818023 340.996899 
L 797.664138 341.029093 
L 799.356369 341.559951 
L 800.202484 341.834396 
L 801.0486 341.744036 
L 802.74083 341.828228 
L 803.586945 341.614343 
L 804.433061 341.626289 
L 805.279176 341.828648 
L 806.125291 342.211619 
L 806.971407 342.154265 
L 808.663637 341.627918 
L 810.355868 340.860968 
L 813.740329 337.655182 
L 814.586444 336.826449 
L 815.43256 336.267496 
L 817.12479 334.78777 
L 817.970905 334.215917 
L 818.817021 333.781115 
L 821.355367 331.823536 
L 822.201482 331.134364 
L 823.047597 330.264773 
L 824.739828 328.886214 
L 826.432058 326.994327 
L 828.124289 324.118285 
L 831.50875 317.07402 
L 831.50875 317.07402 
" clip-path="url(#p894af99ea3)" style="fill: none; stroke: #1f77b4; stroke-width: 1.5; stroke-linecap: square"/>
   </g>
   <g id="patch_18">
    <path d="M 477.02875 524.477656 
L 477.02875 307.197656 
" style="fill: none; stroke: #000000; stroke-width: 0.8; stroke-linejoin: miter; stroke-linecap: square"/>
   </g>
   <g id="patch_19">
    <path d="M 848.38875 524.477656 
L 848.38875 307.197656 
" style="fill: none; stroke: #000000; stroke-width: 0.8; stroke-linejoin: miter; stroke-linecap: square"/>
   </g>
   <g id="patch_20">
    <path d="M 477.02875 524.477656 
L 848.38875 524.477656 
" style="fill: none; stroke: #000000; stroke-width: 0.8; stroke-linejoin: miter; stroke-linecap: square"/>
   </g>
   <g id="patch_21">
    <path d="M 477.02875 307.197656 
L 848.38875 307.197656 
" style="fill: none; stroke: #000000; stroke-width: 0.8; stroke-linejoin: miter; stroke-linecap: square"/>
   </g>
   <g id="text_66">
    <!-- t0 (transition midpoint) -->
    <g transform="translate(575.370078 301.197656) scale(0.15 -0.15)">
     <defs>
      <path id="DejaVuSans-47" d="M 2906 2969 
L 2906 4863 
L 3481 4863 
L 3481 0 
L 2906 0 
L 2906 525 
Q 2725 213 2448 61 
Q 2172 -91 1784 -91 
Q 1150 -91 751 415 
Q 353 922 353 1747 
Q 353 2572 751 3078 
Q 1150 3584 1784 3584 
Q 2172 3584 2448 3432 
Q 2725 3281 2906 2969 
z
M 947 1747 
Q 947 1113 1208 752 
Q 1469 391 1925 391 
Q 2381 391 2643 752 
Q 2906 1113 2906 1747 
Q 2906 2381 2643 2742 
Q 2381 3103 1925 3103 
Q 1469 3103 1208 2742 
Q 947 2381 947 1747 
z
" transform="scale(0.015625)"/>
     </defs>
     <use xlink:href="#DejaVuSans-57"/>
     <use xlink:href="#DejaVuSans-13" transform="translate(39.203125 0)"/>
     <use xlink:href="#DejaVuSans-3" transform="translate(102.828125 0)"/>
     <use xlink:href="#DejaVuSans-b" transform="translate(134.609375 0)"/>
     <use xlink:href="#DejaVuSans-57" transform="translate(173.625 0)"/>
     <use xlink:href="#DejaVuSans-55" transform="translate(212.828125 0)"/>
     <use xlink:href="#DejaVuSans-44" transform="translate(253.9375 0)"/>
     <use xlink:href="#DejaVuSans-51" transform="translate(315.21875 0)"/>
     <use xlink:href="#DejaVuSans-56" transform="translate(378.59375 0)"/>
     <use xlink:href="#DejaVuSans-4c" transform="translate(430.6875 0)"/>
     <use xlink:href="#DejaVuSans-57" transform="translate(458.46875 0)"/>
     <use xlink:href="#DejaVuSans-4c" transform="translate(497.671875 0)"/>
     <use xlink:href="#DejaVuSans-52" transform="translate(525.453125 0)"/>
     <use xlink:href="#DejaVuSans-51" transform="translate(586.640625 0)"/>
     <use xlink:href="#DejaVuSans-3" transform="translate(650.015625 0)"/>
     <use xlink:href="#DejaVuSans-50" transform="translate(681.796875 0)"/>
     <use xlink:href="#DejaVuSans-4c" transform="translate(779.203125 0)"/>
     <use xlink:href="#DejaVuSans-47" transform="translate(806.984375 0)"/>
     <use xlink:href="#DejaVuSans-53" transform="translate(870.46875 0)"/>
     <use xlink:href="#DejaVuSans-52" transform="translate(933.953125 0)"/>
     <use xlink:href="#DejaVuSans-4c" transform="translate(995.140625 0)"/>
     <use xlink:href="#DejaVuSans-51" transform="translate(1022.921875 0)"/>
     <use xlink:href="#DejaVuSans-57" transform="translate(1086.296875 0)"/>
     <use xlink:href="#DejaVuSans-c" transform="translate(1125.5 0)"/>
    </g>
   </g>
  </g>
 </g>
 <defs>
  <clipPath id="pa71cc979e4">
   <rect x="56.18875" y="24.597656" width="371.36" height="217.28"/>
  </clipPath>
  <clipPath id="pe6c17537f9">
   <rect x="477.02875" y="24.597656" width="371.36" height="217.28"/>
  </clipPath>
  <clipPath id="p660a368e27">
   <rect x="56.18875" y="307.197656" width="371.36" height="217.28"/>
  </clipPath>
  <clipPath id="p894af99ea3">
   <rect x="477.02875" y="307.197656" width="371.36" height="217.28"/>
  </clipPath>
 </defs>
</svg>
