<?xml version="1.0" encoding="utf-8" standalone="no"?>
<!DOCTYPE svg PUBLIC "-//W3C//DTD SVG 1.1//EN"
  "http://www.w3.org/Graphics/SVG/1.1/DTD/svg11.dtd">
<svg xmlns:xlink="http://www.w3.org/1999/xlink" width="640.368281pt" height="387.950218pt" viewBox="0 0 640.368281 387.950218" xmlns="http://www.w3.org/2000/svg" version="1.1">
 <metadata>
  <rdf:RDF xmlns:dc="http://purl.org/dc/elements/1.1/" xmlns:cc="http://creativecommons.org/ns#" xmlns:rdf="http://www.w3.org/1999/02/22-rdf-syntax-ns#">
   <cc:Work>
    <dc:type rdf:resource="http://purl.org/dc/dcmitype/StillImage"/>
    <dc:date>2026-07-18T20:24:37.810460</dc:date>
    <dc:format>image/svg+xml</dc:format>
    <dc:creator>
     <cc:Agent>
      <dc:title>Matplotlib v3.11.0, https://matplotlib.org/</dc:title>
     </cc:Agent>
    </dc:creator>
   </cc:Work>
  </rdf:RDF>
 </metadata>
 <defs>
  <style type="text/css">*{stroke-linejoin: round; stroke-linecap: butt}</style>
 </defs>
 <g id="figure_1">
  <g id="patch_1">
   <path d="M 0 387.950218 
L 640.368281 387.950218 
L 640.368281 0 
L 0 0 
z
" style="fill: #ffffff"/>
  </g>
  <g id="axes_1">
   <g id="patch_2">
    <path d="M 50.891797 302.484288 
L 633.168281 302.484288 
L 633.168281 25.3575 
L 50.891797 25.3575 
z
" style="fill: #ffffff"/>
   </g>
   <g id="FillBetweenPolyCollection_1">
    <path d="M 101.813736 289.887616 
L 101.026107 289.887616 
L 101.040524 287.342834 
L 101.080929 284.798052 
L 101.13344 282.253269 
L 101.179571 279.708487 
L 101.200582 277.163705 
L 101.181496 274.618923 
L 101.114549 272.07414 
L 101.00218 269.529358 
L 100.858962 266.984576 
L 100.710738 264.439794 
L 100.589278 261.895011 
L 100.522649 259.350229 
L 100.524217 256.805447 
L 100.584624 254.260664 
L 100.66983 251.715882 
L 100.725407 249.1711 
L 100.685319 246.626318 
L 100.484049 244.081535 
L 100.072822 241.536753 
L 99.440152 238.991971 
L 98.632026 236.447189 
L 97.760482 233.902406 
L 96.987915 231.357624 
L 96.483381 228.812842 
L 96.363444 226.26806 
L 96.642634 223.723277 
L 97.216661 221.178495 
L 97.884894 218.633713 
L 98.399556 216.088931 
L 98.521827 213.544148 
L 98.07284 210.999366 
L 96.978983 208.454584 
L 95.311559 205.909802 
L 93.307692 203.365019 
L 91.346904 200.820237 
L 89.865281 198.275455 
L 89.22099 195.730672 
L 89.561417 193.18589 
L 90.752897 190.641108 
L 92.405661 188.096326 
L 93.977977 185.551543 
L 94.911124 183.006761 
L 94.752377 180.461979 
L 93.25288 177.917197 
L 90.446045 175.372414 
L 86.698292 172.827632 
L 82.693306 170.28285 
L 79.304889 167.738068 
L 77.35891 165.193285 
L 77.360754 162.648503 
L 79.312084 160.103721 
L 82.711578 157.558939 
L 86.739501 155.014156 
L 90.530982 152.469374 
L 93.413402 149.924592 
L 95.030649 147.379809 
L 95.353637 144.835027 
L 94.623503 142.290245 
L 93.269535 139.745463 
L 91.813593 137.20068 
L 90.756768 134.655898 
L 90.458722 132.111116 
L 91.046466 129.566334 
L 92.39489 127.021551 
L 94.192779 124.476769 
L 96.064295 121.931987 
L 97.689745 119.387205 
L 98.878671 116.842422 
L 99.581865 114.29764 
L 99.860236 111.752858 
L 99.838913 109.208076 
L 99.665851 106.663293 
L 99.479941 104.118511 
L 99.386744 101.573729 
L 99.441947 99.028946 
L 99.646613 96.484164 
L 99.957274 93.939382 
L 100.307851 91.3946 
L 100.634383 88.849817 
L 100.892894 86.305035 
L 101.065619 83.760253 
L 101.157279 81.215471 
L 101.186655 78.670688 
L 101.178216 76.125906 
L 101.155889 73.581124 
L 101.138917 71.036342 
L 101.13926 68.491559 
L 101.160579 65.946777 
L 101.199155 63.401995 
L 101.246633 60.857213 
L 101.293584 58.31243 
L 101.332532 55.767648 
L 101.359502 53.222866 
L 101.374024 50.678084 
L 101.378205 48.133301 
L 101.375564 45.588519 
L 101.370031 43.043737 
L 101.365149 40.498954 
L 101.363457 37.954172 
L 101.476386 37.954172 
L 101.476386 37.954172 
L 101.474694 40.498954 
L 101.469812 43.043737 
L 101.464279 45.588519 
L 101.461638 48.133301 
L 101.465819 50.678084 
L 101.480341 53.222866 
L 101.507311 55.767648 
L 101.54626 58.31243 
L 101.59321 60.857213 
L 101.640688 63.401995 
L 101.679264 65.946777 
L 101.700583 68.491559 
L 101.700926 71.036342 
L 101.683954 73.581124 
L 101.661627 76.125906 
L 101.653188 78.670688 
L 101.682564 81.215471 
L 101.774224 83.760253 
L 101.946949 86.305035 
L 102.20546 88.849817 
L 102.531992 91.3946 
L 102.882569 93.939382 
L 103.19323 96.484164 
L 103.397896 99.028946 
L 103.453099 101.573729 
L 103.359902 104.118511 
L 103.173992 106.663293 
L 103.00093 109.208076 
L 102.979607 111.752858 
L 103.257978 114.29764 
L 103.961172 116.842422 
L 105.150098 119.387205 
L 106.775548 121.931987 
L 108.647064 124.476769 
L 110.444953 127.021551 
L 111.793377 129.566334 
L 112.381121 132.111116 
L 112.083075 134.655898 
L 111.02625 137.20068 
L 109.570308 139.745463 
L 108.21634 142.290245 
L 107.486206 144.835027 
L 107.809194 147.379809 
L 109.426441 149.924592 
L 112.308861 152.469374 
L 116.100342 155.014156 
L 120.128266 157.558939 
L 123.527759 160.103721 
L 125.479089 162.648503 
L 125.480933 165.193285 
L 123.534954 167.738068 
L 120.146537 170.28285 
L 116.141551 172.827632 
L 112.393799 175.372414 
L 109.586963 177.917197 
L 108.087466 180.461979 
L 107.92872 183.006761 
L 108.861866 185.551543 
L 110.434182 188.096326 
L 112.086946 190.641108 
L 113.278426 193.18589 
L 113.618853 195.730672 
L 112.974562 198.275455 
L 111.492939 200.820237 
L 109.532151 203.365019 
L 107.528284 205.909802 
L 105.86086 208.454584 
L 104.767003 210.999366 
L 104.318016 213.544148 
L 104.440288 216.088931 
L 104.954949 218.633713 
L 105.623182 221.178495 
L 106.197209 223.723277 
L 106.476399 226.26806 
L 106.356462 228.812842 
L 105.851929 231.357624 
L 105.079361 233.902406 
L 104.207818 236.447189 
L 103.399691 238.991971 
L 102.767021 241.536753 
L 102.355794 244.081535 
L 102.154525 246.626318 
L 102.114436 249.1711 
L 102.170014 251.715882 
L 102.255219 254.260664 
L 102.315626 256.805447 
L 102.317194 259.350229 
L 102.250565 261.895011 
L 102.129106 264.439794 
L 101.980882 266.984576 
L 101.837663 269.529358 
L 101.725294 272.07414 
L 101.658347 274.618923 
L 101.639261 277.163705 
L 101.660272 279.708487 
L 101.706403 282.253269 
L 101.758914 284.798052 
L 101.799319 287.342834 
L 101.813736 289.887616 
z
" clip-path="url(#p23e313a918)" style="fill: #463480; fill-opacity: 0.6"/>
   </g>
   <g id="FillBetweenPolyCollection_2">
    <path d="M 198.341833 289.887616 
L 196.986104 289.887616 
L 197.006173 287.660932 
L 197.063827 285.434247 
L 197.144358 283.207563 
L 197.227418 280.980878 
L 197.291016 278.754194 
L 197.315294 276.527509 
L 197.2856 274.300825 
L 197.195045 272.07414 
L 197.04676 269.847456 
L 196.855475 267.620771 
L 196.647218 265.394087 
L 196.455849 263.167402 
L 196.316072 260.940718 
L 196.254327 258.714033 
L 196.280404 256.487349 
L 196.382726 254.260664 
L 196.528836 252.03398 
L 196.670484 249.807296 
L 196.751311 247.580611 
L 196.715336 245.353927 
L 196.515791 243.127242 
L 196.124993 240.900558 
L 195.545251 238.673873 
L 194.818327 236.447189 
L 194.028261 234.220504 
L 193.292015 231.99382 
L 192.736068 229.767135 
L 192.463628 227.540451 
L 192.523015 225.313766 
L 192.888929 223.087082 
L 193.463482 220.860397 
L 194.09551 218.633713 
L 194.610039 216.407028 
L 194.838694 214.180344 
L 194.646162 211.953659 
L 193.953279 209.726975 
L 192.758816 207.50029 
L 191.157602 205.273606 
L 189.345652 203.046921 
L 187.599989 200.820237 
L 186.227066 198.593553 
L 185.487937 196.366868 
L 185.522976 194.140184 
L 186.303846 191.913499 
L 187.631052 189.686815 
L 189.176238 187.46013 
L 190.551084 185.233446 
L 191.37945 183.006761 
L 191.357817 180.780077 
L 190.302754 178.553392 
L 188.191071 176.326708 
L 185.192353 174.100023 
L 181.679573 171.873339 
L 178.194761 169.646654 
L 175.355213 167.41997 
L 173.71202 165.193285 
L 173.602957 162.966601 
L 175.055621 160.739916 
L 177.781805 158.513232 
L 181.26604 156.286547 
L 184.911174 154.059863 
L 188.184305 151.833178 
L 190.716058 149.606494 
L 192.33555 147.379809 
L 193.052902 145.153125 
L 193.015168 142.926441 
L 192.457471 140.699756 
L 191.657867 138.473072 
L 190.894167 136.246387 
L 190.400365 134.019703 
L 190.327173 131.793018 
L 190.71769 129.566334 
L 191.508601 127.339649 
L 192.558603 125.112965 
L 193.69433 122.88628 
L 194.757183 120.659596 
L 195.635991 118.432911 
L 196.278701 116.206227 
L 196.685765 113.979542 
L 196.893638 111.752858 
L 196.956936 109.526173 
L 196.934318 107.299489 
L 196.879097 105.072804 
L 196.833403 102.84612 
L 196.824702 100.619435 
L 196.864456 98.392751 
L 196.949378 96.166066 
L 197.065346 93.939382 
L 197.193093 91.712697 
L 197.313963 89.486013 
L 197.41411 87.259329 
L 197.486321 85.032644 
L 197.529668 82.80596 
L 197.547917 80.579275 
L 197.547618 78.352591 
L 197.536466 76.125906 
L 197.522023 73.899222 
L 197.510704 71.672537 
L 197.506956 69.445853 
L 197.820981 69.445853 
L 197.820981 69.445853 
L 197.817234 71.672537 
L 197.805914 73.899222 
L 197.791471 76.125906 
L 197.780319 78.352591 
L 197.78002 80.579275 
L 197.798269 82.80596 
L 197.841616 85.032644 
L 197.913827 87.259329 
L 198.013974 89.486013 
L 198.134844 91.712697 
L 198.262591 93.939382 
L 198.378559 96.166066 
L 198.463481 98.392751 
L 198.503235 100.619435 
L 198.494534 102.84612 
L 198.44884 105.072804 
L 198.393619 107.299489 
L 198.371001 109.526173 
L 198.434299 111.752858 
L 198.642172 113.979542 
L 199.049236 116.206227 
L 199.691946 118.432911 
L 200.570754 120.659596 
L 201.633607 122.88628 
L 202.769334 125.112965 
L 203.819336 127.339649 
L 204.610248 129.566334 
L 205.000764 131.793018 
L 204.927572 134.019703 
L 204.43377 136.246387 
L 203.67007 138.473072 
L 202.870466 140.699756 
L 202.31277 142.926441 
L 202.275035 145.153125 
L 202.992387 147.379809 
L 204.611879 149.606494 
L 207.143632 151.833178 
L 210.416763 154.059863 
L 214.061897 156.286547 
L 217.546132 158.513232 
L 220.272316 160.739916 
L 221.72498 162.966601 
L 221.615917 165.193285 
L 219.972724 167.41997 
L 217.133176 169.646654 
L 213.648364 171.873339 
L 210.135584 174.100023 
L 207.136866 176.326708 
L 205.025183 178.553392 
L 203.97012 180.780077 
L 203.948487 183.006761 
L 204.776853 185.233446 
L 206.151699 187.46013 
L 207.696885 189.686815 
L 209.024091 191.913499 
L 209.804961 194.140184 
L 209.84 196.366868 
L 209.100871 198.593553 
L 207.727948 200.820237 
L 205.982286 203.046921 
L 204.170335 205.273606 
L 202.569121 207.50029 
L 201.374658 209.726975 
L 200.681775 211.953659 
L 200.489243 214.180344 
L 200.717898 216.407028 
L 201.232427 218.633713 
L 201.864455 220.860397 
L 202.439008 223.087082 
L 202.804922 225.313766 
L 202.864309 227.540451 
L 202.59187 229.767135 
L 202.035922 231.99382 
L 201.299676 234.220504 
L 200.50961 236.447189 
L 199.782686 238.673873 
L 199.202944 240.900558 
L 198.812146 243.127242 
L 198.612601 245.353927 
L 198.576626 247.580611 
L 198.657453 249.807296 
L 198.799101 252.03398 
L 198.945211 254.260664 
L 199.047533 256.487349 
L 199.07361 258.714033 
L 199.011865 260.940718 
L 198.872088 263.167402 
L 198.68072 265.394087 
L 198.472462 267.620771 
L 198.281177 269.847456 
L 198.132892 272.07414 
L 198.042337 274.300825 
L 198.012643 276.527509 
L 198.036921 278.754194 
L 198.100519 280.980878 
L 198.183579 283.207563 
L 198.26411 285.434247 
L 198.321764 287.660932 
L 198.341833 289.887616 
z
" clip-path="url(#p23e313a918)" style="fill: #365d8d; fill-opacity: 0.6"/>
   </g>
   <g id="FillBetweenPolyCollection_3">
    <path d="M 297.653758 289.887616 
L 290.162273 289.887616 
L 290.226038 287.979029 
L 290.429662 286.070443 
L 290.724456 284.161856 
L 291.039983 282.253269 
L 291.292467 280.344683 
L 291.394709 278.436096 
L 291.266522 276.527509 
L 290.845442 274.618923 
L 290.097758 272.710336 
L 289.029224 270.801749 
L 287.69342 268.893162 
L 286.194356 266.984576 
L 284.679755 265.075989 
L 283.323016 263.167402 
L 282.295231 261.258816 
L 281.732404 259.350229 
L 281.705734 257.441642 
L 282.202805 255.533056 
L 283.12471 253.624469 
L 284.299465 251.715882 
L 285.507583 249.807296 
L 286.513345 247.898709 
L 287.095746 245.990122 
L 287.075713 244.081535 
L 286.338976 242.172949 
L 284.8551 240.264362 
L 282.691917 238.355775 
L 280.021754 236.447189 
L 277.11362 234.538602 
L 274.306151 232.630015 
L 271.960541 230.721429 
L 270.399748 228.812842 
L 269.847004 226.904255 
L 270.379606 224.995668 
L 271.91113 223.087082 
L 274.207191 221.178495 
L 276.929908 219.269908 
L 279.698299 217.361322 
L 282.149254 215.452735 
L 283.986707 213.544148 
L 285.013223 211.635562 
L 285.144685 209.726975 
L 284.412264 207.818388 
L 282.955435 205.909802 
L 281.006884 204.001215 
L 278.86748 202.092628 
L 276.86951 200.184041 
L 275.329732 198.275455 
L 274.499015 196.366868 
L 274.519516 194.458281 
L 275.40078 192.549695 
L 277.021949 190.641108 
L 279.159812 188.732521 
L 281.534812 186.823935 
L 283.862567 184.915348 
L 285.898544 183.006761 
L 287.467753 181.098174 
L 288.477374 179.189588 
L 288.915206 177.281001 
L 288.839128 175.372414 
L 288.362106 173.463828 
L 287.635011 171.555241 
L 286.82756 169.646654 
L 286.107246 167.738068 
L 285.617345 165.829481 
L 285.457104 163.920894 
L 285.668372 162.012307 
L 286.232422 160.103721 
L 287.078257 158.195134 
L 288.100413 156.286547 
L 289.181526 154.377961 
L 290.213877 152.469374 
L 291.115137 150.560787 
L 291.835953 148.652201 
L 292.359705 146.743614 
L 292.696744 144.835027 
L 292.876078 142.926441 
L 292.936962 141.017854 
L 292.921835 139.109267 
L 292.870947 137.20068 
L 292.818507 135.292094 
L 292.790063 133.383507 
L 292.80104 131.47492 
L 292.856546 129.566334 
L 292.952563 127.657747 
L 293.078349 125.74916 
L 293.219614 123.840574 
L 293.361755 121.931987 
L 293.492497 120.0234 
L 293.603474 118.114813 
L 293.690664 116.206227 
L 293.753878 114.29764 
L 293.795715 112.389053 
L 293.820371 110.480467 
L 293.8326 108.57188 
L 293.836955 106.663293 
L 293.837333 104.754707 
L 293.836734 102.84612 
L 293.83719 100.937533 
L 293.978841 100.937533 
L 293.978841 100.937533 
L 293.979297 102.84612 
L 293.978698 104.754707 
L 293.979076 106.663293 
L 293.983432 108.57188 
L 293.99566 110.480467 
L 294.020316 112.389053 
L 294.062153 114.29764 
L 294.125367 116.206227 
L 294.212557 118.114813 
L 294.323534 120.0234 
L 294.454276 121.931987 
L 294.596417 123.840574 
L 294.737682 125.74916 
L 294.863468 127.657747 
L 294.959485 129.566334 
L 295.014991 131.47492 
L 295.025968 133.383507 
L 294.997524 135.292094 
L 294.945084 137.20068 
L 294.894196 139.109267 
L 294.879069 141.017854 
L 294.939953 142.926441 
L 295.119287 144.835027 
L 295.456326 146.743614 
L 295.980078 148.652201 
L 296.700894 150.560787 
L 297.602155 152.469374 
L 298.634505 154.377961 
L 299.715618 156.286547 
L 300.737774 158.195134 
L 301.583609 160.103721 
L 302.147659 162.012307 
L 302.358928 163.920894 
L 302.198686 165.829481 
L 301.708785 167.738068 
L 300.988471 169.646654 
L 300.18102 171.555241 
L 299.453925 173.463828 
L 298.976903 175.372414 
L 298.900825 177.281001 
L 299.338657 179.189588 
L 300.348278 181.098174 
L 301.917488 183.006761 
L 303.953464 184.915348 
L 306.28122 186.823935 
L 308.656219 188.732521 
L 310.794082 190.641108 
L 312.415251 192.549695 
L 313.296516 194.458281 
L 313.317017 196.366868 
L 312.486299 198.275455 
L 310.946521 200.184041 
L 308.948551 202.092628 
L 306.809147 204.001215 
L 304.860596 205.909802 
L 303.403767 207.818388 
L 302.671346 209.726975 
L 302.802808 211.635562 
L 303.829325 213.544148 
L 305.666777 215.452735 
L 308.117732 217.361322 
L 310.886123 219.269908 
L 313.60884 221.178495 
L 315.904902 223.087082 
L 317.436425 224.995668 
L 317.969027 226.904255 
L 317.416283 228.812842 
L 315.85549 230.721429 
L 313.50988 232.630015 
L 310.702412 234.538602 
L 307.794277 236.447189 
L 305.124114 238.355775 
L 302.960931 240.264362 
L 301.477055 242.172949 
L 300.740319 244.081535 
L 300.720285 245.990122 
L 301.302686 247.898709 
L 302.308448 249.807296 
L 303.516567 251.715882 
L 304.691321 253.624469 
L 305.613226 255.533056 
L 306.110297 257.441642 
L 306.083627 259.350229 
L 305.5208 261.258816 
L 304.493015 263.167402 
L 303.136276 265.075989 
L 301.621675 266.984576 
L 300.122611 268.893162 
L 298.786807 270.801749 
L 297.718274 272.710336 
L 296.970589 274.618923 
L 296.549509 276.527509 
L 296.421323 278.436096 
L 296.523565 280.344683 
L 296.776048 282.253269 
L 297.091575 284.161856 
L 297.386369 286.070443 
L 297.589993 287.979029 
L 297.653758 289.887616 
z
" clip-path="url(#p23e313a918)" style="fill: #27808e; fill-opacity: 0.6"/>
   </g>
   <g id="FillBetweenPolyCollection_4">
    <path d="M 393.701717 289.887616 
L 386.602408 289.887616 
L 386.674289 287.979029 
L 386.892109 286.070443 
L 387.208297 284.161856 
L 387.553859 282.253269 
L 387.847293 280.344683 
L 388.004354 278.436096 
L 387.94753 276.527509 
L 387.615295 274.618923 
L 386.971845 272.710336 
L 386.017359 270.801749 
L 384.79713 268.893162 
L 383.405991 266.984576 
L 381.983738 265.075989 
L 380.698682 263.167402 
L 379.720064 261.258816 
L 379.184519 259.350229 
L 379.165051 257.441642 
L 379.651249 255.533056 
L 380.546315 253.624469 
L 381.681097 251.715882 
L 382.840231 249.807296 
L 383.792992 247.898709 
L 384.322497 245.990122 
L 384.250433 244.081535 
L 383.458097 242.172949 
L 381.905837 240.264362 
L 379.650827 238.355775 
L 376.858856 236.447189 
L 373.802049 234.538602 
L 370.834522 232.630015 
L 368.343181 230.721429 
L 366.679982 228.812842 
L 366.091051 226.904255 
L 366.662412 224.995668 
L 368.298908 223.087082 
L 370.742782 221.178495 
L 373.625645 219.269908 
L 376.537663 217.361322 
L 379.094945 215.452735 
L 380.990719 213.544148 
L 382.024892 211.635562 
L 382.114979 209.726975 
L 381.295417 207.818388 
L 379.710637 205.909802 
L 377.602395 204.001215 
L 375.287438 202.092628 
L 373.121106 200.184041 
L 371.44695 198.275455 
L 370.539743 196.366868 
L 370.555342 194.458281 
L 371.502092 192.549695 
L 373.243198 190.641108 
L 375.529946 188.732521 
L 378.05574 186.823935 
L 380.515255 184.915348 
L 382.653515 183.006761 
L 384.295655 181.098174 
L 385.356065 179.189588 
L 385.83194 177.281001 
L 385.788632 175.372414 
L 385.342675 173.463828 
L 384.644854 171.555241 
L 383.86271 169.646654 
L 383.16112 167.738068 
L 382.681213 165.829481 
L 382.520571 163.920894 
L 382.719461 162.012307 
L 383.257498 160.103721 
L 384.062421 158.195134 
L 385.028871 156.286547 
L 386.041886 154.377961 
L 386.998745 152.469374 
L 387.824081 150.560787 
L 388.476046 148.652201 
L 388.944381 146.743614 
L 389.243263 144.835027 
L 389.402315 142.926441 
L 389.45836 141.017854 
L 389.449155 139.109267 
L 389.409176 137.20068 
L 389.366918 135.292094 
L 389.343216 133.383507 
L 389.350382 131.47492 
L 389.392247 129.566334 
L 389.465259 127.657747 
L 389.560551 125.74916 
L 389.666604 123.840574 
L 389.771917 121.931987 
L 389.867105 120.0234 
L 389.946075 118.114813 
L 390.006224 116.206227 
L 390.047909 114.29764 
L 390.073538 112.389053 
L 390.086614 110.480467 
L 390.090964 108.57188 
L 390.090203 106.663293 
L 390.08741 104.754707 
L 390.084956 102.84612 
L 390.084418 100.937533 
L 390.219708 100.937533 
L 390.219708 100.937533 
L 390.219169 102.84612 
L 390.216715 104.754707 
L 390.213922 106.663293 
L 390.213161 108.57188 
L 390.217511 110.480467 
L 390.230587 112.389053 
L 390.256216 114.29764 
L 390.297901 116.206227 
L 390.35805 118.114813 
L 390.43702 120.0234 
L 390.532208 121.931987 
L 390.637521 123.840574 
L 390.743574 125.74916 
L 390.838866 127.657747 
L 390.911878 129.566334 
L 390.953743 131.47492 
L 390.960909 133.383507 
L 390.937208 135.292094 
L 390.894949 137.20068 
L 390.85497 139.109267 
L 390.845765 141.017854 
L 390.90181 142.926441 
L 391.060862 144.835027 
L 391.359744 146.743614 
L 391.828079 148.652201 
L 392.480044 150.560787 
L 393.30538 152.469374 
L 394.262239 154.377961 
L 395.275254 156.286547 
L 396.241705 158.195134 
L 397.046628 160.103721 
L 397.584664 162.012307 
L 397.783554 163.920894 
L 397.622912 165.829481 
L 397.143006 167.738068 
L 396.441415 169.646654 
L 395.659271 171.555241 
L 394.96145 173.463828 
L 394.515493 175.372414 
L 394.472185 177.281001 
L 394.94806 179.189588 
L 396.008471 181.098174 
L 397.65061 183.006761 
L 399.78887 184.915348 
L 402.248385 186.823935 
L 404.774179 188.732521 
L 407.060927 190.641108 
L 408.802033 192.549695 
L 409.748783 194.458281 
L 409.764383 196.366868 
L 408.857175 198.275455 
L 407.18302 200.184041 
L 405.016687 202.092628 
L 402.70173 204.001215 
L 400.593489 205.909802 
L 399.008708 207.818388 
L 398.189146 209.726975 
L 398.279234 211.635562 
L 399.313406 213.544148 
L 401.20918 215.452735 
L 403.766462 217.361322 
L 406.67848 219.269908 
L 409.561343 221.178495 
L 412.005217 223.087082 
L 413.641713 224.995668 
L 414.213074 226.904255 
L 413.624143 228.812842 
L 411.960945 230.721429 
L 409.469603 232.630015 
L 406.502076 234.538602 
L 403.445269 236.447189 
L 400.653298 238.355775 
L 398.398289 240.264362 
L 396.846028 242.172949 
L 396.053693 244.081535 
L 395.981628 245.990122 
L 396.511133 247.898709 
L 397.463894 249.807296 
L 398.623028 251.715882 
L 399.75781 253.624469 
L 400.652876 255.533056 
L 401.139074 257.441642 
L 401.119606 259.350229 
L 400.584061 261.258816 
L 399.605443 263.167402 
L 398.320387 265.075989 
L 396.898134 266.984576 
L 395.506995 268.893162 
L 394.286766 270.801749 
L 393.33228 272.710336 
L 392.68883 274.618923 
L 392.356595 276.527509 
L 392.299771 278.436096 
L 392.456832 280.344683 
L 392.750266 282.253269 
L 393.095828 284.161856 
L 393.412016 286.070443 
L 393.629837 287.979029 
L 393.701717 289.887616 
z
" clip-path="url(#p23e313a918)" style="fill: #1fa188; fill-opacity: 0.6"/>
   </g>
   <g id="FillBetweenPolyCollection_5">
    <path d="M 490.857523 289.887616 
L 481.934696 289.887616 
L 482.004105 288.297127 
L 482.216084 286.706638 
L 482.539284 285.116149 
L 482.927009 283.525661 
L 483.32191 281.935172 
L 483.661259 280.344683 
L 483.882008 278.754194 
L 483.925294 277.163705 
L 483.740631 275.573216 
L 483.290327 273.982727 
L 482.554574 272.392238 
L 481.537121 270.801749 
L 480.270622 269.21126 
L 478.819972 267.620771 
L 477.281657 266.030282 
L 475.777475 264.439794 
L 474.442182 262.849305 
L 473.406248 261.258816 
L 472.776516 259.668327 
L 472.61862 258.077838 
L 472.944955 256.487349 
L 473.710855 254.89686 
L 474.819626 253.306371 
L 476.134976 251.715882 
L 477.497764 250.125393 
L 478.74351 248.534904 
L 479.717781 246.944415 
L 480.288025 245.353927 
L 480.352125 243.763438 
L 479.845043 242.172949 
L 478.745053 240.58246 
L 477.080111 238.991971 
L 474.93332 237.401482 
L 472.444933 235.810993 
L 469.807629 234.220504 
L 467.252538 232.630015 
L 465.025534 231.039526 
L 463.356268 229.449037 
L 462.425156 227.858549 
L 462.335098 226.26806 
L 463.094322 224.677571 
L 464.614392 223.087082 
L 466.723776 221.496593 
L 469.193611 219.906104 
L 471.769664 218.315615 
L 474.203786 216.725126 
L 476.279423 215.134637 
L 477.828403 213.544148 
L 478.739154 211.953659 
L 478.958674 210.36317 
L 478.491279 208.772682 
L 477.396384 207.182193 
L 475.785794 205.591704 
L 473.819152 204.001215 
L 471.69515 202.410726 
L 469.636462 200.820237 
L 467.868007 199.229748 
L 466.590652 197.639259 
L 465.954713 196.04877 
L 466.038825 194.458281 
L 466.839176 192.867792 
L 468.271967 191.277304 
L 470.188737 189.686815 
L 472.401113 188.096326 
L 474.709458 186.505837 
L 476.929514 184.915348 
L 478.912351 183.324859 
L 480.555284 181.73437 
L 481.803929 180.143881 
L 482.647522 178.553392 
L 483.110516 176.962903 
L 483.243224 175.372414 
L 483.113327 173.781925 
L 482.798836 172.191437 
L 482.382144 170.600948 
L 481.944436 169.010459 
L 481.559907 167.41997 
L 481.289837 165.829481 
L 481.177239 164.238992 
L 481.243134 162.648503 
L 481.485497 161.058014 
L 481.881377 159.467525 
L 482.391951 157.877036 
L 482.969535 156.286547 
L 483.565147 154.696058 
L 484.135154 153.10557 
L 484.645924 151.515081 
L 485.076013 149.924592 
L 485.416017 148.334103 
L 485.66673 146.743614 
L 485.836406 145.153125 
L 485.937897 143.562636 
L 485.986186 141.972147 
L 485.996547 140.381658 
L 485.983316 138.791169 
L 485.95913 137.20068 
L 485.934446 135.610192 
L 485.917222 134.019703 
L 485.91273 132.429214 
L 486.879489 132.429214 
L 486.879489 132.429214 
L 486.874997 134.019703 
L 486.857773 135.610192 
L 486.833089 137.20068 
L 486.808904 138.791169 
L 486.795673 140.381658 
L 486.806033 141.972147 
L 486.854322 143.562636 
L 486.955813 145.153125 
L 487.125489 146.743614 
L 487.376202 148.334103 
L 487.716206 149.924592 
L 488.146295 151.515081 
L 488.657066 153.10557 
L 489.227072 154.696058 
L 489.822684 156.286547 
L 490.400268 157.877036 
L 490.910842 159.467525 
L 491.306722 161.058014 
L 491.549085 162.648503 
L 491.61498 164.238992 
L 491.502382 165.829481 
L 491.232312 167.41997 
L 490.847783 169.010459 
L 490.410075 170.600948 
L 489.993383 172.191437 
L 489.678892 173.781925 
L 489.548996 175.372414 
L 489.681703 176.962903 
L 490.144697 178.553392 
L 490.98829 180.143881 
L 492.236935 181.73437 
L 493.879868 183.324859 
L 495.862705 184.915348 
L 498.082761 186.505837 
L 500.391106 188.096326 
L 502.603482 189.686815 
L 504.520252 191.277304 
L 505.953043 192.867792 
L 506.753394 194.458281 
L 506.837506 196.04877 
L 506.201567 197.639259 
L 504.924212 199.229748 
L 503.155757 200.820237 
L 501.097069 202.410726 
L 498.973067 204.001215 
L 497.006425 205.591704 
L 495.395836 207.182193 
L 494.30094 208.772682 
L 493.833545 210.36317 
L 494.053065 211.953659 
L 494.963816 213.544148 
L 496.512797 215.134637 
L 498.588434 216.725126 
L 501.022555 218.315615 
L 503.598608 219.906104 
L 506.068443 221.496593 
L 508.177827 223.087082 
L 509.697898 224.677571 
L 510.457121 226.26806 
L 510.367063 227.858549 
L 509.435952 229.449037 
L 507.766686 231.039526 
L 505.539681 232.630015 
L 502.98459 234.220504 
L 500.347286 235.810993 
L 497.858899 237.401482 
L 495.712108 238.991971 
L 494.047166 240.58246 
L 492.947176 242.172949 
L 492.440095 243.763438 
L 492.504194 245.353927 
L 493.074438 246.944415 
L 494.048709 248.534904 
L 495.294455 250.125393 
L 496.657243 251.715882 
L 497.972593 253.306371 
L 499.081365 254.89686 
L 499.847264 256.487349 
L 500.173599 258.077838 
L 500.015703 259.668327 
L 499.385971 261.258816 
L 498.350037 262.849305 
L 497.014745 264.439794 
L 495.510562 266.030282 
L 493.972247 267.620771 
L 492.521598 269.21126 
L 491.255098 270.801749 
L 490.237646 272.392238 
L 489.501892 273.982727 
L 489.051588 275.573216 
L 488.866925 277.163705 
L 488.910211 278.754194 
L 489.13096 280.344683 
L 489.470309 281.935172 
L 489.86521 283.525661 
L 490.252935 285.116149 
L 490.576135 286.706638 
L 490.788114 288.297127 
L 490.857523 289.887616 
z
" clip-path="url(#p23e313a918)" style="fill: #48c16e; fill-opacity: 0.6"/>
   </g>
   <g id="FillBetweenPolyCollection_6">
    <path d="M 586.914384 289.887616 
L 578.365929 289.887616 
L 578.456019 287.979029 
L 578.726709 286.070443 
L 579.117502 284.161856 
L 579.540378 282.253269 
L 579.890855 280.344683 
L 580.059899 278.436096 
L 579.945448 276.527509 
L 579.464082 274.618923 
L 578.564204 272.710336 
L 577.241073 270.801749 
L 575.551262 268.893162 
L 573.621078 266.984576 
L 571.642166 265.075989 
L 569.84955 263.167402 
L 568.482773 261.258816 
L 567.737706 259.350229 
L 567.721765 257.441642 
L 568.425838 255.533056 
L 569.72143 253.624469 
L 571.383103 251.715882 
L 573.128271 249.807296 
L 574.662253 247.898709 
L 575.717978 245.990122 
L 576.085319 244.081535 
L 575.631289 242.172949 
L 574.315452 240.264362 
L 572.203277 238.355775 
L 569.474886 236.447189 
L 566.421343 234.538602 
L 563.419376 232.630015 
L 560.880345 230.721429 
L 559.179148 228.812842 
L 558.579145 226.904255 
L 559.174554 224.995668 
L 560.868606 223.087082 
L 563.394622 221.178495 
L 566.37289 219.269908 
L 569.385161 217.361322 
L 572.045548 215.452735 
L 574.052073 213.544148 
L 575.213485 211.635562 
L 575.455671 209.726975 
L 574.816495 207.818388 
L 573.43608 205.909802 
L 571.543811 204.001215 
L 569.43798 202.092628 
L 567.452864 200.184041 
L 565.912213 198.275455 
L 565.075656 196.366868 
L 565.091007 194.458281 
L 565.967039 192.549695 
L 567.576239 190.641108 
L 569.687448 188.732521 
L 572.018365 186.823935 
L 574.292163 184.915348 
L 576.283179 183.006761 
L 577.842745 181.098174 
L 578.904322 179.189588 
L 579.47355 177.281001 
L 579.611179 175.372414 
L 579.415335 173.463828 
L 579.005981 171.555241 
L 578.511183 169.646654 
L 578.053589 167.738068 
L 577.73645 165.829481 
L 577.630656 163.920894 
L 577.765856 162.012307 
L 578.128724 160.103721 
L 578.669608 158.195134 
L 579.316078 156.286547 
L 579.989575 154.377961 
L 580.62064 152.469374 
L 581.15917 150.560787 
L 581.57827 148.652201 
L 581.872502 146.743614 
L 582.052696 144.835027 
L 582.13975 142.926441 
L 582.159147 141.017854 
L 582.136912 139.109267 
L 582.096907 137.20068 
L 582.059004 135.292094 
L 582.037789 133.383507 
L 582.041761 131.47492 
L 582.07319 129.566334 
L 582.128829 127.657747 
L 582.201459 125.74916 
L 582.281934 123.840574 
L 582.361254 121.931987 
L 582.432188 120.0234 
L 582.490137 118.114813 
L 582.533245 116.206227 
L 582.56194 114.29764 
L 582.578213 112.389053 
L 582.584894 110.480467 
L 582.585072 108.57188 
L 582.5817 106.663293 
L 582.577343 104.754707 
L 582.574007 102.84612 
L 582.573032 100.937533 
L 582.707281 100.937533 
L 582.707281 100.937533 
L 582.706306 102.84612 
L 582.70297 104.754707 
L 582.698613 106.663293 
L 582.695242 108.57188 
L 582.695419 110.480467 
L 582.7021 112.389053 
L 582.718373 114.29764 
L 582.747068 116.206227 
L 582.790176 118.114813 
L 582.848125 120.0234 
L 582.919059 121.931987 
L 582.99838 123.840574 
L 583.078854 125.74916 
L 583.151484 127.657747 
L 583.207124 129.566334 
L 583.238552 131.47492 
L 583.242524 133.383507 
L 583.221309 135.292094 
L 583.183406 137.20068 
L 583.143401 139.109267 
L 583.121166 141.017854 
L 583.140563 142.926441 
L 583.227617 144.835027 
L 583.407811 146.743614 
L 583.702043 148.652201 
L 584.121143 150.560787 
L 584.659673 152.469374 
L 585.290739 154.377961 
L 585.964235 156.286547 
L 586.610705 158.195134 
L 587.15159 160.103721 
L 587.514457 162.012307 
L 587.649657 163.920894 
L 587.543863 165.829481 
L 587.226724 167.738068 
L 586.76913 169.646654 
L 586.274332 171.555241 
L 585.864978 173.463828 
L 585.669134 175.372414 
L 585.806763 177.281001 
L 586.375991 179.189588 
L 587.437568 181.098174 
L 588.997134 183.006761 
L 590.988151 184.915348 
L 593.261948 186.823935 
L 595.592865 188.732521 
L 597.704075 190.641108 
L 599.313274 192.549695 
L 600.189306 194.458281 
L 600.204657 196.366868 
L 599.3681 198.275455 
L 597.827449 200.184041 
L 595.842333 202.092628 
L 593.736502 204.001215 
L 591.844233 205.909802 
L 590.463818 207.818388 
L 589.824642 209.726975 
L 590.066828 211.635562 
L 591.22824 213.544148 
L 593.234765 215.452735 
L 595.895152 217.361322 
L 598.907423 219.269908 
L 601.885691 221.178495 
L 604.411708 223.087082 
L 606.10576 224.995668 
L 606.701168 226.904255 
L 606.101165 228.812842 
L 604.399968 230.721429 
L 601.860937 232.630015 
L 598.85897 234.538602 
L 595.805427 236.447189 
L 593.077037 238.355775 
L 590.964862 240.264362 
L 589.649024 242.172949 
L 589.194994 244.081535 
L 589.562335 245.990122 
L 590.61806 247.898709 
L 592.152042 249.807296 
L 593.89721 251.715882 
L 595.558883 253.624469 
L 596.854475 255.533056 
L 597.558548 257.441642 
L 597.542607 259.350229 
L 596.79754 261.258816 
L 595.430763 263.167402 
L 593.638147 265.075989 
L 591.659236 266.984576 
L 589.729051 268.893162 
L 588.03924 270.801749 
L 586.716109 272.710336 
L 585.816231 274.618923 
L 585.334865 276.527509 
L 585.220414 278.436096 
L 585.389458 280.344683 
L 585.739935 282.253269 
L 586.162811 284.161856 
L 586.553604 286.070443 
L 586.824294 287.979029 
L 586.914384 289.887616 
z
" clip-path="url(#p23e313a918)" style="fill: #9bd93c; fill-opacity: 0.6"/>
   </g>
   <g id="matplotlib.axis_1">
    <g id="xtick_1">
     <g id="line2d_1">
      <defs>
       <path id="mba771a0d4c" d="M 0 0 
L 0 3.5 
" style="stroke: #000000; stroke-width: 0.8"/>
      </defs>
      <g>
       <use xlink:href="#mba771a0d4c" x="101.419922" y="302.484288" style="stroke: #000000; stroke-width: 0.8"/>
      </g>
     </g>
     <g id="text_1">
      <!-- Quenching -->
      <g transform="translate(43.860069 349.780816) rotate(-30) scale(0.12 -0.12)">
       <defs>
        <path id="DejaVuSans-34" d="M 2522 4238 
Q 1834 4238 1429 3725 
Q 1025 3213 1025 2328 
Q 1025 1447 1429 934 
Q 1834 422 2522 422 
Q 3209 422 3611 934 
Q 4013 1447 4013 2328 
Q 4013 3213 3611 3725 
Q 3209 4238 2522 4238 
z
M 3406 84 
L 4238 -825 
L 3475 -825 
L 2784 -78 
Q 2681 -84 2626 -87 
Q 2572 -91 2522 -91 
Q 1538 -91 948 567 
Q 359 1225 359 2328 
Q 359 3434 948 4092 
Q 1538 4750 2522 4750 
Q 3503 4750 4090 4092 
Q 4678 3434 4678 2328 
Q 4678 1516 4351 937 
Q 4025 359 3406 84 
z
" transform="scale(0.015625)"/>
        <path id="DejaVuSans-58" d="M 544 1381 
L 544 3500 
L 1119 3500 
L 1119 1403 
Q 1119 906 1312 657 
Q 1506 409 1894 409 
Q 2359 409 2629 706 
Q 2900 1003 2900 1516 
L 2900 3500 
L 3475 3500 
L 3475 0 
L 2900 0 
L 2900 538 
Q 2691 219 2414 64 
Q 2138 -91 1772 -91 
Q 1169 -91 856 284 
Q 544 659 544 1381 
z
M 1991 3584 
L 1991 3584 
z
" transform="scale(0.015625)"/>
        <path id="DejaVuSans-48" d="M 3597 1894 
L 3597 1613 
L 953 1613 
Q 991 1019 1311 708 
Q 1631 397 2203 397 
Q 2534 397 2845 478 
Q 3156 559 3463 722 
L 3463 178 
Q 3153 47 2828 -22 
Q 2503 -91 2169 -91 
Q 1331 -91 842 396 
Q 353 884 353 1716 
Q 353 2575 817 3079 
Q 1281 3584 2069 3584 
Q 2775 3584 3186 3129 
Q 3597 2675 3597 1894 
z
M 3022 2063 
Q 3016 2534 2758 2815 
Q 2500 3097 2075 3097 
Q 1594 3097 1305 2825 
Q 1016 2553 972 2059 
L 3022 2063 
z
" transform="scale(0.015625)"/>
        <path id="DejaVuSans-51" d="M 3513 2113 
L 3513 0 
L 2938 0 
L 2938 2094 
Q 2938 2591 2744 2837 
Q 2550 3084 2163 3084 
Q 1697 3084 1428 2787 
Q 1159 2491 1159 1978 
L 1159 0 
L 581 0 
L 581 3500 
L 1159 3500 
L 1159 2956 
Q 1366 3272 1645 3428 
Q 1925 3584 2291 3584 
Q 2894 3584 3203 3211 
Q 3513 2838 3513 2113 
z
" transform="scale(0.015625)"/>
        <path id="DejaVuSans-46" d="M 3122 3366 
L 3122 2828 
Q 2878 2963 2633 3030 
Q 2388 3097 2138 3097 
Q 1578 3097 1268 2742 
Q 959 2388 959 1747 
Q 959 1106 1268 751 
Q 1578 397 2138 397 
Q 2388 397 2633 464 
Q 2878 531 3122 666 
L 3122 134 
Q 2881 22 2623 -34 
Q 2366 -91 2075 -91 
Q 1284 -91 818 406 
Q 353 903 353 1747 
Q 353 2603 823 3093 
Q 1294 3584 2113 3584 
Q 2378 3584 2631 3529 
Q 2884 3475 3122 3366 
z
" transform="scale(0.015625)"/>
        <path id="DejaVuSans-4b" d="M 3513 2113 
L 3513 0 
L 2938 0 
L 2938 2094 
Q 2938 2591 2744 2837 
Q 2550 3084 2163 3084 
Q 1697 3084 1428 2787 
Q 1159 2491 1159 1978 
L 1159 0 
L 581 0 
L 581 4863 
L 1159 4863 
L 1159 2956 
Q 1366 3272 1645 3428 
Q 1925 3584 2291 3584 
Q 2894 3584 3203 3211 
Q 3513 2838 3513 2113 
z
" transform="scale(0.015625)"/>
        <path id="DejaVuSans-4c" d="M 603 3500 
L 1178 3500 
L 1178 0 
L 603 0 
L 603 3500 
z
M 603 4863 
L 1178 4863 
L 1178 4134 
L 603 4134 
L 603 4863 
z
" transform="scale(0.015625)"/>
        <path id="DejaVuSans-4a" d="M 2906 1791 
Q 2906 2416 2648 2759 
Q 2391 3103 1925 3103 
Q 1463 3103 1205 2759 
Q 947 2416 947 1791 
Q 947 1169 1205 825 
Q 1463 481 1925 481 
Q 2391 481 2648 825 
Q 2906 1169 2906 1791 
z
M 3481 434 
Q 3481 -459 3084 -895 
Q 2688 -1331 1869 -1331 
Q 1566 -1331 1297 -1286 
Q 1028 -1241 775 -1147 
L 775 -588 
Q 1028 -725 1275 -790 
Q 1522 -856 1778 -856 
Q 2344 -856 2625 -561 
Q 2906 -266 2906 331 
L 2906 616 
Q 2728 306 2450 153 
Q 2172 0 1784 0 
Q 1141 0 747 490 
Q 353 981 353 1791 
Q 353 2603 747 3093 
Q 1141 3584 1784 3584 
Q 2172 3584 2450 3431 
Q 2728 3278 2906 2969 
L 2906 3500 
L 3481 3500 
L 3481 434 
z
" transform="scale(0.015625)"/>
       </defs>
       <use xlink:href="#DejaVuSans-34"/>
       <use xlink:href="#DejaVuSans-58" transform="translate(78.71875 0)"/>
       <use xlink:href="#DejaVuSans-48" transform="translate(142.09375 0)"/>
       <use xlink:href="#DejaVuSans-51" transform="translate(203.625 0)"/>
       <use xlink:href="#DejaVuSans-46" transform="translate(267 0)"/>
       <use xlink:href="#DejaVuSans-4b" transform="translate(321.984375 0)"/>
       <use xlink:href="#DejaVuSans-4c" transform="translate(385.359375 0)"/>
       <use xlink:href="#DejaVuSans-51" transform="translate(413.140625 0)"/>
       <use xlink:href="#DejaVuSans-4a" transform="translate(476.515625 0)"/>
      </g>
     </g>
    </g>
    <g id="xtick_2">
     <g id="line2d_2">
      <g>
       <use xlink:href="#mba771a0d4c" x="197.663969" y="302.484288" style="stroke: #000000; stroke-width: 0.8"/>
      </g>
     </g>
     <g id="text_2">
      <!-- Logarithmic -->
      <g transform="translate(134.745584 352.874566) rotate(-30) scale(0.12 -0.12)">
       <defs>
        <path id="DejaVuSans-2f" d="M 628 4666 
L 1259 4666 
L 1259 531 
L 3531 531 
L 3531 0 
L 628 0 
L 628 4666 
z
" transform="scale(0.015625)"/>
        <path id="DejaVuSans-52" d="M 1959 3097 
Q 1497 3097 1228 2736 
Q 959 2375 959 1747 
Q 959 1119 1226 758 
Q 1494 397 1959 397 
Q 2419 397 2687 759 
Q 2956 1122 2956 1747 
Q 2956 2369 2687 2733 
Q 2419 3097 1959 3097 
z
M 1959 3584 
Q 2709 3584 3137 3096 
Q 3566 2609 3566 1747 
Q 3566 888 3137 398 
Q 2709 -91 1959 -91 
Q 1206 -91 779 398 
Q 353 888 353 1747 
Q 353 2609 779 3096 
Q 1206 3584 1959 3584 
z
" transform="scale(0.015625)"/>
        <path id="DejaVuSans-44" d="M 2194 1759 
Q 1497 1759 1228 1600 
Q 959 1441 959 1056 
Q 959 750 1161 570 
Q 1363 391 1709 391 
Q 2188 391 2477 730 
Q 2766 1069 2766 1631 
L 2766 1759 
L 2194 1759 
z
M 3341 1997 
L 3341 0 
L 2766 0 
L 2766 531 
Q 2569 213 2275 61 
Q 1981 -91 1556 -91 
Q 1019 -91 701 211 
Q 384 513 384 1019 
Q 384 1609 779 1909 
Q 1175 2209 1959 2209 
L 2766 2209 
L 2766 2266 
Q 2766 2663 2505 2880 
Q 2244 3097 1772 3097 
Q 1472 3097 1187 3025 
Q 903 2953 641 2809 
L 641 3341 
Q 956 3463 1253 3523 
Q 1550 3584 1831 3584 
Q 2591 3584 2966 3190 
Q 3341 2797 3341 1997 
z
" transform="scale(0.015625)"/>
        <path id="DejaVuSans-55" d="M 2631 2963 
Q 2534 3019 2420 3045 
Q 2306 3072 2169 3072 
Q 1681 3072 1420 2755 
Q 1159 2438 1159 1844 
L 1159 0 
L 581 0 
L 581 3500 
L 1159 3500 
L 1159 2956 
Q 1341 3275 1631 3429 
Q 1922 3584 2338 3584 
Q 2397 3584 2469 3576 
Q 2541 3569 2628 3553 
L 2631 2963 
z
" transform="scale(0.015625)"/>
        <path id="DejaVuSans-57" d="M 1172 4494 
L 1172 3500 
L 2356 3500 
L 2356 3053 
L 1172 3053 
L 1172 1153 
Q 1172 725 1289 603 
Q 1406 481 1766 481 
L 2356 481 
L 2356 0 
L 1766 0 
Q 1100 0 847 248 
Q 594 497 594 1153 
L 594 3053 
L 172 3053 
L 172 3500 
L 594 3500 
L 594 4494 
L 1172 4494 
z
" transform="scale(0.015625)"/>
        <path id="DejaVuSans-50" d="M 3328 2828 
Q 3544 3216 3844 3400 
Q 4144 3584 4550 3584 
Q 5097 3584 5394 3201 
Q 5691 2819 5691 2113 
L 5691 0 
L 5113 0 
L 5113 2094 
Q 5113 2597 4934 2840 
Q 4756 3084 4391 3084 
Q 3944 3084 3684 2787 
Q 3425 2491 3425 1978 
L 3425 0 
L 2847 0 
L 2847 2094 
Q 2847 2600 2669 2842 
Q 2491 3084 2119 3084 
Q 1678 3084 1418 2786 
Q 1159 2488 1159 1978 
L 1159 0 
L 581 0 
L 581 3500 
L 1159 3500 
L 1159 2956 
Q 1356 3278 1631 3431 
Q 1906 3584 2284 3584 
Q 2666 3584 2933 3390 
Q 3200 3197 3328 2828 
z
" transform="scale(0.015625)"/>
       </defs>
       <use xlink:href="#DejaVuSans-2f"/>
       <use xlink:href="#DejaVuSans-52" transform="translate(53.96875 0)"/>
       <use xlink:href="#DejaVuSans-4a" transform="translate(115.15625 0)"/>
       <use xlink:href="#DejaVuSans-44" transform="translate(178.640625 0)"/>
       <use xlink:href="#DejaVuSans-55" transform="translate(239.921875 0)"/>
       <use xlink:href="#DejaVuSans-4c" transform="translate(281.03125 0)"/>
       <use xlink:href="#DejaVuSans-57" transform="translate(308.8125 0)"/>
       <use xlink:href="#DejaVuSans-4b" transform="translate(348.015625 0)"/>
       <use xlink:href="#DejaVuSans-50" transform="translate(411.390625 0)"/>
       <use xlink:href="#DejaVuSans-4c" transform="translate(508.796875 0)"/>
       <use xlink:href="#DejaVuSans-46" transform="translate(536.578125 0)"/>
      </g>
     </g>
    </g>
    <g id="xtick_3">
     <g id="line2d_3">
      <g>
       <use xlink:href="#mba771a0d4c" x="293.908016" y="302.484288" style="stroke: #000000; stroke-width: 0.8"/>
      </g>
     </g>
     <g id="text_3">
      <!-- Geometric Staircase -->
      <g transform="translate(187.031805 378.253629) rotate(-30) scale(0.12 -0.12)">
       <defs>
        <path id="DejaVuSans-2a" d="M 3809 666 
L 3809 1919 
L 2778 1919 
L 2778 2438 
L 4434 2438 
L 4434 434 
Q 4069 175 3628 42 
Q 3188 -91 2688 -91 
Q 1594 -91 976 548 
Q 359 1188 359 2328 
Q 359 3472 976 4111 
Q 1594 4750 2688 4750 
Q 3144 4750 3555 4637 
Q 3966 4525 4313 4306 
L 4313 3634 
Q 3963 3931 3569 4081 
Q 3175 4231 2741 4231 
Q 1884 4231 1454 3753 
Q 1025 3275 1025 2328 
Q 1025 1384 1454 906 
Q 1884 428 2741 428 
Q 3075 428 3337 486 
Q 3600 544 3809 666 
z
" transform="scale(0.015625)"/>
        <path id="DejaVuSans-3" transform="scale(0.015625)"/>
        <path id="DejaVuSans-36" d="M 3425 4513 
L 3425 3897 
Q 3066 4069 2747 4153 
Q 2428 4238 2131 4238 
Q 1616 4238 1336 4038 
Q 1056 3838 1056 3469 
Q 1056 3159 1242 3001 
Q 1428 2844 1947 2747 
L 2328 2669 
Q 3034 2534 3370 2195 
Q 3706 1856 3706 1288 
Q 3706 609 3251 259 
Q 2797 -91 1919 -91 
Q 1588 -91 1214 -16 
Q 841 59 441 206 
L 441 856 
Q 825 641 1194 531 
Q 1563 422 1919 422 
Q 2459 422 2753 634 
Q 3047 847 3047 1241 
Q 3047 1584 2836 1778 
Q 2625 1972 2144 2069 
L 1759 2144 
Q 1053 2284 737 2584 
Q 422 2884 422 3419 
Q 422 4038 858 4394 
Q 1294 4750 2059 4750 
Q 2388 4750 2728 4690 
Q 3069 4631 3425 4513 
z
" transform="scale(0.015625)"/>
        <path id="DejaVuSans-56" d="M 2834 3397 
L 2834 2853 
Q 2591 2978 2328 3040 
Q 2066 3103 1784 3103 
Q 1356 3103 1142 2972 
Q 928 2841 928 2578 
Q 928 2378 1081 2264 
Q 1234 2150 1697 2047 
L 1894 2003 
Q 2506 1872 2764 1633 
Q 3022 1394 3022 966 
Q 3022 478 2636 193 
Q 2250 -91 1575 -91 
Q 1294 -91 989 -36 
Q 684 19 347 128 
L 347 722 
Q 666 556 975 473 
Q 1284 391 1588 391 
Q 1994 391 2212 530 
Q 2431 669 2431 922 
Q 2431 1156 2273 1281 
Q 2116 1406 1581 1522 
L 1381 1569 
Q 847 1681 609 1914 
Q 372 2147 372 2553 
Q 372 3047 722 3315 
Q 1072 3584 1716 3584 
Q 2034 3584 2315 3537 
Q 2597 3491 2834 3397 
z
" transform="scale(0.015625)"/>
       </defs>
       <use xlink:href="#DejaVuSans-2a"/>
       <use xlink:href="#DejaVuSans-48" transform="translate(77.484375 0)"/>
       <use xlink:href="#DejaVuSans-52" transform="translate(139.015625 0)"/>
       <use xlink:href="#DejaVuSans-50" transform="translate(200.203125 0)"/>
       <use xlink:href="#DejaVuSans-48" transform="translate(297.609375 0)"/>
       <use xlink:href="#DejaVuSans-57" transform="translate(359.140625 0)"/>
       <use xlink:href="#DejaVuSans-55" transform="translate(398.34375 0)"/>
       <use xlink:href="#DejaVuSans-4c" transform="translate(439.453125 0)"/>
       <use xlink:href="#DejaVuSans-46" transform="translate(467.234375 0)"/>
       <use xlink:href="#DejaVuSans-3" transform="translate(522.21875 0)"/>
       <use xlink:href="#DejaVuSans-36" transform="translate(554 0)"/>
       <use xlink:href="#DejaVuSans-57" transform="translate(617.484375 0)"/>
       <use xlink:href="#DejaVuSans-44" transform="translate(656.6875 0)"/>
       <use xlink:href="#DejaVuSans-4c" transform="translate(717.96875 0)"/>
       <use xlink:href="#DejaVuSans-55" transform="translate(745.75 0)"/>
       <use xlink:href="#DejaVuSans-46" transform="translate(784.65625 0)"/>
       <use xlink:href="#DejaVuSans-44" transform="translate(839.640625 0)"/>
       <use xlink:href="#DejaVuSans-56" transform="translate(900.921875 0)"/>
       <use xlink:href="#DejaVuSans-48" transform="translate(953.015625 0)"/>
      </g>
     </g>
    </g>
    <g id="xtick_4">
     <g id="line2d_4">
      <g>
       <use xlink:href="#mba771a0d4c" x="390.152063" y="302.484288" style="stroke: #000000; stroke-width: 0.8"/>
      </g>
     </g>
     <g id="text_4">
      <!-- Geometric -->
      <g transform="translate(334.440092 348.713941) rotate(-30) scale(0.12 -0.12)">
       <use xlink:href="#DejaVuSans-2a"/>
       <use xlink:href="#DejaVuSans-48" transform="translate(77.484375 0)"/>
       <use xlink:href="#DejaVuSans-52" transform="translate(139.015625 0)"/>
       <use xlink:href="#DejaVuSans-50" transform="translate(200.203125 0)"/>
       <use xlink:href="#DejaVuSans-48" transform="translate(297.609375 0)"/>
       <use xlink:href="#DejaVuSans-57" transform="translate(359.140625 0)"/>
       <use xlink:href="#DejaVuSans-55" transform="translate(398.34375 0)"/>
       <use xlink:href="#DejaVuSans-4c" transform="translate(439.453125 0)"/>
       <use xlink:href="#DejaVuSans-46" transform="translate(467.234375 0)"/>
      </g>
     </g>
    </g>
    <g id="xtick_5">
     <g id="line2d_5">
      <g>
       <use xlink:href="#mba771a0d4c" x="486.39611" y="302.484288" style="stroke: #000000; stroke-width: 0.8"/>
      </g>
     </g>
     <g id="text_5">
      <!-- Linear Staircase -->
      <g transform="translate(401.491505 365.568316) rotate(-30) scale(0.12 -0.12)">
       <use xlink:href="#DejaVuSans-2f"/>
       <use xlink:href="#DejaVuSans-4c" transform="translate(55.71875 0)"/>
       <use xlink:href="#DejaVuSans-51" transform="translate(83.5 0)"/>
       <use xlink:href="#DejaVuSans-48" transform="translate(146.875 0)"/>
       <use xlink:href="#DejaVuSans-44" transform="translate(208.40625 0)"/>
       <use xlink:href="#DejaVuSans-55" transform="translate(269.6875 0)"/>
       <use xlink:href="#DejaVuSans-3" transform="translate(310.796875 0)"/>
       <use xlink:href="#DejaVuSans-36" transform="translate(342.578125 0)"/>
       <use xlink:href="#DejaVuSans-57" transform="translate(406.0625 0)"/>
       <use xlink:href="#DejaVuSans-44" transform="translate(445.265625 0)"/>
       <use xlink:href="#DejaVuSans-4c" transform="translate(506.546875 0)"/>
       <use xlink:href="#DejaVuSans-55" transform="translate(534.328125 0)"/>
       <use xlink:href="#DejaVuSans-46" transform="translate(573.234375 0)"/>
       <use xlink:href="#DejaVuSans-44" transform="translate(628.21875 0)"/>
       <use xlink:href="#DejaVuSans-56" transform="translate(689.5 0)"/>
       <use xlink:href="#DejaVuSans-48" transform="translate(741.59375 0)"/>
      </g>
     </g>
    </g>
    <g id="xtick_6">
     <g id="line2d_6">
      <g>
       <use xlink:href="#mba771a0d4c" x="582.640157" y="302.484288" style="stroke: #000000; stroke-width: 0.8"/>
      </g>
     </g>
     <g id="text_6">
      <!-- Linear -->
      <g transform="translate(548.899792 336.028629) rotate(-30) scale(0.12 -0.12)">
       <use xlink:href="#DejaVuSans-2f"/>
       <use xlink:href="#DejaVuSans-4c" transform="translate(55.71875 0)"/>
       <use xlink:href="#DejaVuSans-51" transform="translate(83.5 0)"/>
       <use xlink:href="#DejaVuSans-48" transform="translate(146.875 0)"/>
       <use xlink:href="#DejaVuSans-44" transform="translate(208.40625 0)"/>
       <use xlink:href="#DejaVuSans-55" transform="translate(269.6875 0)"/>
      </g>
     </g>
    </g>
   </g>
   <g id="matplotlib.axis_2">
    <g id="ytick_1">
     <g id="line2d_7">
      <path d="M 50.891797 289.887616 
L 633.168281 289.887616 
" clip-path="url(#p23e313a918)" style="fill: none; stroke: #b0b0b0; stroke-opacity: 0.4; stroke-width: 0.8; stroke-linecap: square"/>
     </g>
     <g id="line2d_8">
      <defs>
       <path id="m626ef7a874" d="M 0 0 
L -3.5 0 
" style="stroke: #000000; stroke-width: 0.8"/>
      </defs>
      <g>
       <use xlink:href="#m626ef7a874" x="50.891797" y="289.887616" style="stroke: #000000; stroke-width: 0.8"/>
      </g>
     </g>
     <g id="text_7">
      <!-- −9 -->
      <g transform="translate(26.201172 294.44621) scale(0.12 -0.12)">
       <defs>
        <path id="DejaVuSans-c9c" d="M 678 2272 
L 4684 2272 
L 4684 1741 
L 678 1741 
L 678 2272 
z
" transform="scale(0.015625)"/>
        <path id="DejaVuSans-1c" d="M 703 97 
L 703 672 
Q 941 559 1184 500 
Q 1428 441 1663 441 
Q 2288 441 2617 861 
Q 2947 1281 2994 2138 
Q 2813 1869 2534 1725 
Q 2256 1581 1919 1581 
Q 1219 1581 811 2004 
Q 403 2428 403 3163 
Q 403 3881 828 4315 
Q 1253 4750 1959 4750 
Q 2769 4750 3195 4129 
Q 3622 3509 3622 2328 
Q 3622 1225 3098 567 
Q 2575 -91 1691 -91 
Q 1453 -91 1209 -44 
Q 966 3 703 97 
z
M 1959 2075 
Q 2384 2075 2632 2365 
Q 2881 2656 2881 3163 
Q 2881 3666 2632 3958 
Q 2384 4250 1959 4250 
Q 1534 4250 1286 3958 
Q 1038 3666 1038 3163 
Q 1038 2656 1286 2365 
Q 1534 2075 1959 2075 
z
" transform="scale(0.015625)"/>
       </defs>
       <use xlink:href="#DejaVuSans-c9c"/>
       <use xlink:href="#DejaVuSans-1c" transform="translate(83.796875 0)"/>
      </g>
     </g>
    </g>
    <g id="ytick_2">
     <g id="line2d_9">
      <path d="M 50.891797 258.395936 
L 633.168281 258.395936 
" clip-path="url(#p23e313a918)" style="fill: none; stroke: #b0b0b0; stroke-opacity: 0.4; stroke-width: 0.8; stroke-linecap: square"/>
     </g>
     <g id="line2d_10">
      <g>
       <use xlink:href="#m626ef7a874" x="50.891797" y="258.395936" style="stroke: #000000; stroke-width: 0.8"/>
      </g>
     </g>
     <g id="text_8">
      <!-- −8 -->
      <g transform="translate(26.201172 262.954529) scale(0.12 -0.12)">
       <defs>
        <path id="DejaVuSans-1b" d="M 2034 2216 
Q 1584 2216 1326 1975 
Q 1069 1734 1069 1313 
Q 1069 891 1326 650 
Q 1584 409 2034 409 
Q 2484 409 2743 651 
Q 3003 894 3003 1313 
Q 3003 1734 2745 1975 
Q 2488 2216 2034 2216 
z
M 1403 2484 
Q 997 2584 770 2862 
Q 544 3141 544 3541 
Q 544 4100 942 4425 
Q 1341 4750 2034 4750 
Q 2731 4750 3128 4425 
Q 3525 4100 3525 3541 
Q 3525 3141 3298 2862 
Q 3072 2584 2669 2484 
Q 3125 2378 3379 2068 
Q 3634 1759 3634 1313 
Q 3634 634 3220 271 
Q 2806 -91 2034 -91 
Q 1263 -91 848 271 
Q 434 634 434 1313 
Q 434 1759 690 2068 
Q 947 2378 1403 2484 
z
M 1172 3481 
Q 1172 3119 1398 2916 
Q 1625 2713 2034 2713 
Q 2441 2713 2670 2916 
Q 2900 3119 2900 3481 
Q 2900 3844 2670 4047 
Q 2441 4250 2034 4250 
Q 1625 4250 1398 4047 
Q 1172 3844 1172 3481 
z
" transform="scale(0.015625)"/>
       </defs>
       <use xlink:href="#DejaVuSans-c9c"/>
       <use xlink:href="#DejaVuSans-1b" transform="translate(83.796875 0)"/>
      </g>
     </g>
    </g>
    <g id="ytick_3">
     <g id="line2d_11">
      <path d="M 50.891797 226.904255 
L 633.168281 226.904255 
" clip-path="url(#p23e313a918)" style="fill: none; stroke: #b0b0b0; stroke-opacity: 0.4; stroke-width: 0.8; stroke-linecap: square"/>
     </g>
     <g id="line2d_12">
      <g>
       <use xlink:href="#m626ef7a874" x="50.891797" y="226.904255" style="stroke: #000000; stroke-width: 0.8"/>
      </g>
     </g>
     <g id="text_9">
      <!-- −7 -->
      <g transform="translate(26.201172 231.462849) scale(0.12 -0.12)">
       <defs>
        <path id="DejaVuSans-1a" d="M 525 4666 
L 3525 4666 
L 3525 4397 
L 1831 0 
L 1172 0 
L 2766 4134 
L 525 4134 
L 525 4666 
z
" transform="scale(0.015625)"/>
       </defs>
       <use xlink:href="#DejaVuSans-c9c"/>
       <use xlink:href="#DejaVuSans-1a" transform="translate(83.796875 0)"/>
      </g>
     </g>
    </g>
    <g id="ytick_4">
     <g id="line2d_13">
      <path d="M 50.891797 195.412575 
L 633.168281 195.412575 
" clip-path="url(#p23e313a918)" style="fill: none; stroke: #b0b0b0; stroke-opacity: 0.4; stroke-width: 0.8; stroke-linecap: square"/>
     </g>
     <g id="line2d_14">
      <g>
       <use xlink:href="#m626ef7a874" x="50.891797" y="195.412575" style="stroke: #000000; stroke-width: 0.8"/>
      </g>
     </g>
     <g id="text_10">
      <!-- −6 -->
      <g transform="translate(26.201172 199.971168) scale(0.12 -0.12)">
       <defs>
        <path id="DejaVuSans-19" d="M 2113 2584 
Q 1688 2584 1439 2293 
Q 1191 2003 1191 1497 
Q 1191 994 1439 701 
Q 1688 409 2113 409 
Q 2538 409 2786 701 
Q 3034 994 3034 1497 
Q 3034 2003 2786 2293 
Q 2538 2584 2113 2584 
z
M 3366 4563 
L 3366 3988 
Q 3128 4100 2886 4159 
Q 2644 4219 2406 4219 
Q 1781 4219 1451 3797 
Q 1122 3375 1075 2522 
Q 1259 2794 1537 2939 
Q 1816 3084 2150 3084 
Q 2853 3084 3261 2657 
Q 3669 2231 3669 1497 
Q 3669 778 3244 343 
Q 2819 -91 2113 -91 
Q 1303 -91 875 529 
Q 447 1150 447 2328 
Q 447 3434 972 4092 
Q 1497 4750 2381 4750 
Q 2619 4750 2861 4703 
Q 3103 4656 3366 4563 
z
" transform="scale(0.015625)"/>
       </defs>
       <use xlink:href="#DejaVuSans-c9c"/>
       <use xlink:href="#DejaVuSans-19" transform="translate(83.796875 0)"/>
      </g>
     </g>
    </g>
    <g id="ytick_5">
     <g id="line2d_15">
      <path d="M 50.891797 163.920894 
L 633.168281 163.920894 
" clip-path="url(#p23e313a918)" style="fill: none; stroke: #b0b0b0; stroke-opacity: 0.4; stroke-width: 0.8; stroke-linecap: square"/>
     </g>
     <g id="line2d_16">
      <g>
       <use xlink:href="#m626ef7a874" x="50.891797" y="163.920894" style="stroke: #000000; stroke-width: 0.8"/>
      </g>
     </g>
     <g id="text_11">
      <!-- −5 -->
      <g transform="translate(26.201172 168.479488) scale(0.12 -0.12)">
       <defs>
        <path id="DejaVuSans-18" d="M 691 4666 
L 3169 4666 
L 3169 4134 
L 1269 4134 
L 1269 2991 
Q 1406 3038 1543 3061 
Q 1681 3084 1819 3084 
Q 2600 3084 3056 2656 
Q 3513 2228 3513 1497 
Q 3513 744 3044 326 
Q 2575 -91 1722 -91 
Q 1428 -91 1123 -41 
Q 819 9 494 109 
L 494 744 
Q 775 591 1075 516 
Q 1375 441 1709 441 
Q 2250 441 2565 725 
Q 2881 1009 2881 1497 
Q 2881 1984 2565 2268 
Q 2250 2553 1709 2553 
Q 1456 2553 1204 2497 
Q 953 2441 691 2322 
L 691 4666 
z
" transform="scale(0.015625)"/>
       </defs>
       <use xlink:href="#DejaVuSans-c9c"/>
       <use xlink:href="#DejaVuSans-18" transform="translate(83.796875 0)"/>
      </g>
     </g>
    </g>
    <g id="ytick_6">
     <g id="line2d_17">
      <path d="M 50.891797 132.429214 
L 633.168281 132.429214 
" clip-path="url(#p23e313a918)" style="fill: none; stroke: #b0b0b0; stroke-opacity: 0.4; stroke-width: 0.8; stroke-linecap: square"/>
     </g>
     <g id="line2d_18">
      <g>
       <use xlink:href="#m626ef7a874" x="50.891797" y="132.429214" style="stroke: #000000; stroke-width: 0.8"/>
      </g>
     </g>
     <g id="text_12">
      <!-- −4 -->
      <g transform="translate(26.201172 136.987807) scale(0.12 -0.12)">
       <defs>
        <path id="DejaVuSans-17" d="M 2419 4116 
L 825 1625 
L 2419 1625 
L 2419 4116 
z
M 2253 4666 
L 3047 4666 
L 3047 1625 
L 3713 1625 
L 3713 1100 
L 3047 1100 
L 3047 0 
L 2419 0 
L 2419 1100 
L 313 1100 
L 313 1709 
L 2253 4666 
z
" transform="scale(0.015625)"/>
       </defs>
       <use xlink:href="#DejaVuSans-c9c"/>
       <use xlink:href="#DejaVuSans-17" transform="translate(83.796875 0)"/>
      </g>
     </g>
    </g>
    <g id="ytick_7">
     <g id="line2d_19">
      <path d="M 50.891797 100.937533 
L 633.168281 100.937533 
" clip-path="url(#p23e313a918)" style="fill: none; stroke: #b0b0b0; stroke-opacity: 0.4; stroke-width: 0.8; stroke-linecap: square"/>
     </g>
     <g id="line2d_20">
      <g>
       <use xlink:href="#m626ef7a874" x="50.891797" y="100.937533" style="stroke: #000000; stroke-width: 0.8"/>
      </g>
     </g>
     <g id="text_13">
      <!-- −3 -->
      <g transform="translate(26.201172 105.496127) scale(0.12 -0.12)">
       <defs>
        <path id="DejaVuSans-16" d="M 2597 2516 
Q 3050 2419 3304 2112 
Q 3559 1806 3559 1356 
Q 3559 666 3084 287 
Q 2609 -91 1734 -91 
Q 1441 -91 1130 -33 
Q 819 25 488 141 
L 488 750 
Q 750 597 1062 519 
Q 1375 441 1716 441 
Q 2309 441 2620 675 
Q 2931 909 2931 1356 
Q 2931 1769 2642 2001 
Q 2353 2234 1838 2234 
L 1294 2234 
L 1294 2753 
L 1863 2753 
Q 2328 2753 2575 2939 
Q 2822 3125 2822 3475 
Q 2822 3834 2567 4026 
Q 2313 4219 1838 4219 
Q 1578 4219 1281 4162 
Q 984 4106 628 3988 
L 628 4550 
Q 988 4650 1302 4700 
Q 1616 4750 1894 4750 
Q 2613 4750 3031 4423 
Q 3450 4097 3450 3541 
Q 3450 3153 3228 2886 
Q 3006 2619 2597 2516 
z
" transform="scale(0.015625)"/>
       </defs>
       <use xlink:href="#DejaVuSans-c9c"/>
       <use xlink:href="#DejaVuSans-16" transform="translate(83.796875 0)"/>
      </g>
     </g>
    </g>
    <g id="ytick_8">
     <g id="line2d_21">
      <path d="M 50.891797 69.445853 
L 633.168281 69.445853 
" clip-path="url(#p23e313a918)" style="fill: none; stroke: #b0b0b0; stroke-opacity: 0.4; stroke-width: 0.8; stroke-linecap: square"/>
     </g>
     <g id="line2d_22">
      <g>
       <use xlink:href="#m626ef7a874" x="50.891797" y="69.445853" style="stroke: #000000; stroke-width: 0.8"/>
      </g>
     </g>
     <g id="text_14">
      <!-- −2 -->
      <g transform="translate(26.201172 74.004446) scale(0.12 -0.12)">
       <defs>
        <path id="DejaVuSans-15" d="M 1228 531 
L 3431 531 
L 3431 0 
L 469 0 
L 469 531 
Q 828 903 1448 1529 
Q 2069 2156 2228 2338 
Q 2531 2678 2651 2914 
Q 2772 3150 2772 3378 
Q 2772 3750 2511 3984 
Q 2250 4219 1831 4219 
Q 1534 4219 1204 4116 
Q 875 4013 500 3803 
L 500 4441 
Q 881 4594 1212 4672 
Q 1544 4750 1819 4750 
Q 2544 4750 2975 4387 
Q 3406 4025 3406 3419 
Q 3406 3131 3298 2873 
Q 3191 2616 2906 2266 
Q 2828 2175 2409 1742 
Q 1991 1309 1228 531 
z
" transform="scale(0.015625)"/>
       </defs>
       <use xlink:href="#DejaVuSans-c9c"/>
       <use xlink:href="#DejaVuSans-15" transform="translate(83.796875 0)"/>
      </g>
     </g>
    </g>
    <g id="ytick_9">
     <g id="line2d_23">
      <path d="M 50.891797 37.954172 
L 633.168281 37.954172 
" clip-path="url(#p23e313a918)" style="fill: none; stroke: #b0b0b0; stroke-opacity: 0.4; stroke-width: 0.8; stroke-linecap: square"/>
     </g>
     <g id="line2d_24">
      <g>
       <use xlink:href="#m626ef7a874" x="50.891797" y="37.954172" style="stroke: #000000; stroke-width: 0.8"/>
      </g>
     </g>
     <g id="text_15">
      <!-- −1 -->
      <g transform="translate(26.201172 42.512766) scale(0.12 -0.12)">
       <defs>
        <path id="DejaVuSans-14" d="M 794 531 
L 1825 531 
L 1825 4091 
L 703 3866 
L 703 4441 
L 1819 4666 
L 2450 4666 
L 2450 531 
L 3481 531 
L 3481 0 
L 794 0 
L 794 531 
z
" transform="scale(0.015625)"/>
       </defs>
       <use xlink:href="#DejaVuSans-c9c"/>
       <use xlink:href="#DejaVuSans-14" transform="translate(83.796875 0)"/>
      </g>
     </g>
    </g>
    <g id="text_16">
     <!-- Final Energy (raw trial distribution) -->
     <g transform="translate(18.597656 294.190035) rotate(-90) scale(0.15 -0.15)">
      <defs>
       <path id="DejaVuSans-29" d="M 628 4666 
L 3309 4666 
L 3309 4134 
L 1259 4134 
L 1259 2759 
L 3109 2759 
L 3109 2228 
L 1259 2228 
L 1259 0 
L 628 0 
L 628 4666 
z
" transform="scale(0.015625)"/>
       <path id="DejaVuSans-4f" d="M 603 4863 
L 1178 4863 
L 1178 0 
L 603 0 
L 603 4863 
z
" transform="scale(0.015625)"/>
       <path id="DejaVuSans-28" d="M 628 4666 
L 3578 4666 
L 3578 4134 
L 1259 4134 
L 1259 2753 
L 3481 2753 
L 3481 2222 
L 1259 2222 
L 1259 531 
L 3634 531 
L 3634 0 
L 628 0 
L 628 4666 
z
" transform="scale(0.015625)"/>
       <path id="DejaVuSans-5c" d="M 2059 -325 
Q 1816 -950 1584 -1140 
Q 1353 -1331 966 -1331 
L 506 -1331 
L 506 -850 
L 844 -850 
Q 1081 -850 1212 -737 
Q 1344 -625 1503 -206 
L 1606 56 
L 191 3500 
L 800 3500 
L 1894 763 
L 2988 3500 
L 3597 3500 
L 2059 -325 
z
" transform="scale(0.015625)"/>
       <path id="DejaVuSans-b" d="M 1984 4856 
Q 1566 4138 1362 3434 
Q 1159 2731 1159 2009 
Q 1159 1288 1364 580 
Q 1569 -128 1984 -844 
L 1484 -844 
Q 1016 -109 783 600 
Q 550 1309 550 2009 
Q 550 2706 781 3412 
Q 1013 4119 1484 4856 
L 1984 4856 
z
" transform="scale(0.015625)"/>
       <path id="DejaVuSans-5a" d="M 269 3500 
L 844 3500 
L 1563 769 
L 2278 3500 
L 2956 3500 
L 3675 769 
L 4391 3500 
L 4966 3500 
L 4050 0 
L 3372 0 
L 2619 2869 
L 1863 0 
L 1184 0 
L 269 3500 
z
" transform="scale(0.015625)"/>
       <path id="DejaVuSans-47" d="M 2906 2969 
L 2906 4863 
L 3481 4863 
L 3481 0 
L 2906 0 
L 2906 525 
Q 2725 213 2448 61 
Q 2172 -91 1784 -91 
Q 1150 -91 751 415 
Q 353 922 353 1747 
Q 353 2572 751 3078 
Q 1150 3584 1784 3584 
Q 2172 3584 2448 3432 
Q 2725 3281 2906 2969 
z
M 947 1747 
Q 947 1113 1208 752 
Q 1469 391 1925 391 
Q 2381 391 2643 752 
Q 2906 1113 2906 1747 
Q 2906 2381 2643 2742 
Q 2381 3103 1925 3103 
Q 1469 3103 1208 2742 
Q 947 2381 947 1747 
z
" transform="scale(0.015625)"/>
       <path id="DejaVuSans-45" d="M 3116 1747 
Q 3116 2381 2855 2742 
Q 2594 3103 2138 3103 
Q 1681 3103 1420 2742 
Q 1159 2381 1159 1747 
Q 1159 1113 1420 752 
Q 1681 391 2138 391 
Q 2594 391 2855 752 
Q 3116 1113 3116 1747 
z
M 1159 2969 
Q 1341 3281 1617 3432 
Q 1894 3584 2278 3584 
Q 2916 3584 3314 3078 
Q 3713 2572 3713 1747 
Q 3713 922 3314 415 
Q 2916 -91 2278 -91 
Q 1894 -91 1617 61 
Q 1341 213 1159 525 
L 1159 0 
L 581 0 
L 581 4863 
L 1159 4863 
L 1159 2969 
z
" transform="scale(0.015625)"/>
       <path id="DejaVuSans-c" d="M 513 4856 
L 1013 4856 
Q 1481 4119 1714 3412 
Q 1947 2706 1947 2009 
Q 1947 1309 1714 600 
Q 1481 -109 1013 -844 
L 513 -844 
Q 928 -128 1133 580 
Q 1338 1288 1338 2009 
Q 1338 2731 1133 3434 
Q 928 4138 513 4856 
z
" transform="scale(0.015625)"/>
      </defs>
      <use xlink:href="#DejaVuSans-29"/>
      <use xlink:href="#DejaVuSans-4c" transform="translate(50.234375 0)"/>
      <use xlink:href="#DejaVuSans-51" transform="translate(78.015625 0)"/>
      <use xlink:href="#DejaVuSans-44" transform="translate(141.390625 0)"/>
      <use xlink:href="#DejaVuSans-4f" transform="translate(202.671875 0)"/>
      <use xlink:href="#DejaVuSans-3" transform="translate(230.453125 0)"/>
      <use xlink:href="#DejaVuSans-28" transform="translate(262.234375 0)"/>
      <use xlink:href="#DejaVuSans-51" transform="translate(325.421875 0)"/>
      <use xlink:href="#DejaVuSans-48" transform="translate(388.796875 0)"/>
      <use xlink:href="#DejaVuSans-55" transform="translate(450.328125 0)"/>
      <use xlink:href="#DejaVuSans-4a" transform="translate(489.6875 0)"/>
      <use xlink:href="#DejaVuSans-5c" transform="translate(553.171875 0)"/>
      <use xlink:href="#DejaVuSans-3" transform="translate(612.359375 0)"/>
      <use xlink:href="#DejaVuSans-b" transform="translate(644.140625 0)"/>
      <use xlink:href="#DejaVuSans-55" transform="translate(683.15625 0)"/>
      <use xlink:href="#DejaVuSans-44" transform="translate(724.265625 0)"/>
      <use xlink:href="#DejaVuSans-5a" transform="translate(785.546875 0)"/>
      <use xlink:href="#DejaVuSans-3" transform="translate(867.328125 0)"/>
      <use xlink:href="#DejaVuSans-57" transform="translate(899.109375 0)"/>
      <use xlink:href="#DejaVuSans-55" transform="translate(938.3125 0)"/>
      <use xlink:href="#DejaVuSans-4c" transform="translate(979.421875 0)"/>
      <use xlink:href="#DejaVuSans-44" transform="translate(1007.203125 0)"/>
      <use xlink:href="#DejaVuSans-4f" transform="translate(1068.484375 0)"/>
      <use xlink:href="#DejaVuSans-3" transform="translate(1096.265625 0)"/>
      <use xlink:href="#DejaVuSans-47" transform="translate(1128.046875 0)"/>
      <use xlink:href="#DejaVuSans-4c" transform="translate(1191.53125 0)"/>
      <use xlink:href="#DejaVuSans-56" transform="translate(1219.3125 0)"/>
      <use xlink:href="#DejaVuSans-57" transform="translate(1271.40625 0)"/>
      <use xlink:href="#DejaVuSans-55" transform="translate(1310.609375 0)"/>
      <use xlink:href="#DejaVuSans-4c" transform="translate(1351.71875 0)"/>
      <use xlink:href="#DejaVuSans-45" transform="translate(1379.5 0)"/>
      <use xlink:href="#DejaVuSans-58" transform="translate(1442.984375 0)"/>
      <use xlink:href="#DejaVuSans-57" transform="translate(1506.359375 0)"/>
      <use xlink:href="#DejaVuSans-4c" transform="translate(1545.5625 0)"/>
      <use xlink:href="#DejaVuSans-52" transform="translate(1573.34375 0)"/>
      <use xlink:href="#DejaVuSans-51" transform="translate(1634.53125 0)"/>
      <use xlink:href="#DejaVuSans-c" transform="translate(1697.90625 0)"/>
     </g>
    </g>
   </g>
   <g id="LineCollection_1">
    <path d="M 89.389416 169.809838 
L 113.450427 169.809838 
" clip-path="url(#p23e313a918)" style="fill: none; stroke: #1f77b4; stroke-width: 1.5"/>
    <path d="M 185.633463 176.076683 
L 209.694474 176.076683 
" clip-path="url(#p23e313a918)" style="fill: none; stroke: #1f77b4; stroke-width: 1.5"/>
    <path d="M 281.87751 217.677193 
L 305.938521 217.677193 
" clip-path="url(#p23e313a918)" style="fill: none; stroke: #1f77b4; stroke-width: 1.5"/>
    <path d="M 378.121557 217.708684 
L 402.182568 217.708684 
" clip-path="url(#p23e313a918)" style="fill: none; stroke: #1f77b4; stroke-width: 1.5"/>
    <path d="M 474.365604 222.463928 
L 498.426615 222.463928 
" clip-path="url(#p23e313a918)" style="fill: none; stroke: #1f77b4; stroke-width: 1.5"/>
    <path d="M 570.609651 223.975529 
L 594.670662 223.975529 
" clip-path="url(#p23e313a918)" style="fill: none; stroke: #1f77b4; stroke-width: 1.5"/>
   </g>
   <g id="LineCollection_2">
    <path d="M 89.389416 37.954172 
L 113.450427 37.954172 
" clip-path="url(#p23e313a918)" style="fill: none; stroke: #1f77b4; stroke-width: 1.5"/>
    <path d="M 185.633463 69.445853 
L 209.694474 69.445853 
" clip-path="url(#p23e313a918)" style="fill: none; stroke: #1f77b4; stroke-width: 1.5"/>
    <path d="M 281.87751 100.937533 
L 305.938521 100.937533 
" clip-path="url(#p23e313a918)" style="fill: none; stroke: #1f77b4; stroke-width: 1.5"/>
    <path d="M 378.121557 100.937533 
L 402.182568 100.937533 
" clip-path="url(#p23e313a918)" style="fill: none; stroke: #1f77b4; stroke-width: 1.5"/>
    <path d="M 474.365604 132.429214 
L 498.426615 132.429214 
" clip-path="url(#p23e313a918)" style="fill: none; stroke: #1f77b4; stroke-width: 1.5"/>
    <path d="M 570.609651 100.937533 
L 594.670662 100.937533 
" clip-path="url(#p23e313a918)" style="fill: none; stroke: #1f77b4; stroke-width: 1.5"/>
   </g>
   <g id="LineCollection_3">
    <path d="M 89.389416 289.887616 
L 113.450427 289.887616 
" clip-path="url(#p23e313a918)" style="fill: none; stroke: #1f77b4; stroke-width: 1.5"/>
    <path d="M 185.633463 289.887616 
L 209.694474 289.887616 
" clip-path="url(#p23e313a918)" style="fill: none; stroke: #1f77b4; stroke-width: 1.5"/>
    <path d="M 281.87751 289.887616 
L 305.938521 289.887616 
" clip-path="url(#p23e313a918)" style="fill: none; stroke: #1f77b4; stroke-width: 1.5"/>
    <path d="M 378.121557 289.887616 
L 402.182568 289.887616 
" clip-path="url(#p23e313a918)" style="fill: none; stroke: #1f77b4; stroke-width: 1.5"/>
    <path d="M 474.365604 289.887616 
L 498.426615 289.887616 
" clip-path="url(#p23e313a918)" style="fill: none; stroke: #1f77b4; stroke-width: 1.5"/>
    <path d="M 570.609651 289.887616 
L 594.670662 289.887616 
" clip-path="url(#p23e313a918)" style="fill: none; stroke: #1f77b4; stroke-width: 1.5"/>
   </g>
   <g id="LineCollection_4">
    <path d="M 101.419922 289.887616 
L 101.419922 37.954172 
" clip-path="url(#p23e313a918)" style="fill: none; stroke: #1f77b4; stroke-width: 1.5"/>
    <path d="M 197.663969 289.887616 
L 197.663969 69.445853 
" clip-path="url(#p23e313a918)" style="fill: none; stroke: #1f77b4; stroke-width: 1.5"/>
    <path d="M 293.908016 289.887616 
L 293.908016 100.937533 
" clip-path="url(#p23e313a918)" style="fill: none; stroke: #1f77b4; stroke-width: 1.5"/>
    <path d="M 390.152063 289.887616 
L 390.152063 100.937533 
" clip-path="url(#p23e313a918)" style="fill: none; stroke: #1f77b4; stroke-width: 1.5"/>
    <path d="M 486.39611 289.887616 
L 486.39611 132.429214 
" clip-path="url(#p23e313a918)" style="fill: none; stroke: #1f77b4; stroke-width: 1.5"/>
    <path d="M 582.640157 289.887616 
L 582.640157 100.937533 
" clip-path="url(#p23e313a918)" style="fill: none; stroke: #1f77b4; stroke-width: 1.5"/>
   </g>
   <g id="patch_3">
    <path d="M 50.891797 302.484288 
L 50.891797 25.3575 
" style="fill: none; stroke: #000000; stroke-width: 0.8; stroke-linejoin: miter; stroke-linecap: square"/>
   </g>
   <g id="patch_4">
    <path d="M 633.168281 302.484288 
L 633.168281 25.3575 
" style="fill: none; stroke: #000000; stroke-width: 0.8; stroke-linejoin: miter; stroke-linecap: square"/>
   </g>
   <g id="patch_5">
    <path d="M 50.891797 302.484288 
L 633.168281 302.484288 
" style="fill: none; stroke: #000000; stroke-width: 0.8; stroke-linejoin: miter; stroke-linecap: square"/>
   </g>
   <g id="patch_6">
    <path d="M 50.891797 25.3575 
L 633.168281 25.3575 
" style="fill: none; stroke: #000000; stroke-width: 0.8; stroke-linejoin: miter; stroke-linecap: square"/>
   </g>
   <g id="text_17">
    <!-- Distribution of Final Energies by Schedule -->
    <g transform="translate(175.335039 19.3575) scale(0.16 -0.16)">
     <defs>
      <path id="DejaVuSans-27" d="M 1259 4147 
L 1259 519 
L 2022 519 
Q 2988 519 3436 956 
Q 3884 1394 3884 2338 
Q 3884 3275 3436 3711 
Q 2988 4147 2022 4147 
L 1259 4147 
z
M 628 4666 
L 1925 4666 
Q 3281 4666 3915 4102 
Q 4550 3538 4550 2338 
Q 4550 1131 3912 565 
Q 3275 0 1925 0 
L 628 0 
L 628 4666 
z
" transform="scale(0.015625)"/>
      <path id="DejaVuSans-49" d="M 2375 4863 
L 2375 4384 
L 1825 4384 
Q 1516 4384 1395 4259 
Q 1275 4134 1275 3809 
L 1275 3500 
L 2222 3500 
L 2222 3053 
L 1275 3053 
L 1275 0 
L 697 0 
L 697 3053 
L 147 3053 
L 147 3500 
L 697 3500 
L 697 3744 
Q 697 4328 969 4595 
Q 1241 4863 1831 4863 
L 2375 4863 
z
" transform="scale(0.015625)"/>
     </defs>
     <use xlink:href="#DejaVuSans-27"/>
     <use xlink:href="#DejaVuSans-4c" transform="translate(77 0)"/>
     <use xlink:href="#DejaVuSans-56" transform="translate(104.78125 0)"/>
     <use xlink:href="#DejaVuSans-57" transform="translate(156.875 0)"/>
     <use xlink:href="#DejaVuSans-55" transform="translate(196.078125 0)"/>
     <use xlink:href="#DejaVuSans-4c" transform="translate(237.1875 0)"/>
     <use xlink:href="#DejaVuSans-45" transform="translate(264.96875 0)"/>
     <use xlink:href="#DejaVuSans-58" transform="translate(328.453125 0)"/>
     <use xlink:href="#DejaVuSans-57" transform="translate(391.828125 0)"/>
     <use xlink:href="#DejaVuSans-4c" transform="translate(431.03125 0)"/>
     <use xlink:href="#DejaVuSans-52" transform="translate(458.8125 0)"/>
     <use xlink:href="#DejaVuSans-51" transform="translate(520 0)"/>
     <use xlink:href="#DejaVuSans-3" transform="translate(583.375 0)"/>
     <use xlink:href="#DejaVuSans-52" transform="translate(615.15625 0)"/>
     <use xlink:href="#DejaVuSans-49" transform="translate(676.34375 0)"/>
     <use xlink:href="#DejaVuSans-3" transform="translate(711.546875 0)"/>
     <use xlink:href="#DejaVuSans-29" transform="translate(743.328125 0)"/>
     <use xlink:href="#DejaVuSans-4c" transform="translate(793.5625 0)"/>
     <use xlink:href="#DejaVuSans-51" transform="translate(821.34375 0)"/>
     <use xlink:href="#DejaVuSans-44" transform="translate(884.71875 0)"/>
     <use xlink:href="#DejaVuSans-4f" transform="translate(946 0)"/>
     <use xlink:href="#DejaVuSans-3" transform="translate(973.78125 0)"/>
     <use xlink:href="#DejaVuSans-28" transform="translate(1005.5625 0)"/>
     <use xlink:href="#DejaVuSans-51" transform="translate(1068.75 0)"/>
     <use xlink:href="#DejaVuSans-48" transform="translate(1132.125 0)"/>
     <use xlink:href="#DejaVuSans-55" transform="translate(1193.65625 0)"/>
     <use xlink:href="#DejaVuSans-4a" transform="translate(1233.015625 0)"/>
     <use xlink:href="#DejaVuSans-4c" transform="translate(1296.5 0)"/>
     <use xlink:href="#DejaVuSans-48" transform="translate(1324.28125 0)"/>
     <use xlink:href="#DejaVuSans-56" transform="translate(1385.8125 0)"/>
     <use xlink:href="#DejaVuSans-3" transform="translate(1437.90625 0)"/>
     <use xlink:href="#DejaVuSans-45" transform="translate(1469.6875 0)"/>
     <use xlink:href="#DejaVuSans-5c" transform="translate(1533.171875 0)"/>
     <use xlink:href="#DejaVuSans-3" transform="translate(1592.359375 0)"/>
     <use xlink:href="#DejaVuSans-36" transform="translate(1624.140625 0)"/>
     <use xlink:href="#DejaVuSans-46" transform="translate(1687.625 0)"/>
     <use xlink:href="#DejaVuSans-4b" transform="translate(1742.609375 0)"/>
     <use xlink:href="#DejaVuSans-48" transform="translate(1805.984375 0)"/>
     <use xlink:href="#DejaVuSans-47" transform="translate(1867.515625 0)"/>
     <use xlink:href="#DejaVuSans-58" transform="translate(1931 0)"/>
     <use xlink:href="#DejaVuSans-4f" transform="translate(1994.375 0)"/>
     <use xlink:href="#DejaVuSans-48" transform="translate(2022.15625 0)"/>
    </g>
   </g>
  </g>
 </g>
 <defs>
  <clipPath id="p23e313a918">
   <rect x="50.891797" y="25.3575" width="582.276484" height="277.126788"/>
  </clipPath>
 </defs>
</svg>
